<mxfile host="65bd71144e">
    <diagram id="RiPDyhCxWDPU11BnjIRP" name="Readme">
        <mxGraphModel dx="1292" dy="860" grid="1" gridSize="10" guides="1" tooltips="1" connect="1" arrows="1" fold="1" page="1" pageScale="1" pageWidth="850" pageHeight="1100" math="0" shadow="0">
            <root>
                <mxCell id="0"/>
                <mxCell id="1" parent="0"/>
                <mxCell id="UFWtkAdqDlV0CHpWmLtE-1" value="" style="sketch=0;aspect=fixed;html=1;points=[];align=center;image;fontSize=12;image=img/lib/mscae/Docker.svg;" parent="1" vertex="1">
                    <mxGeometry x="220" y="139" width="123.17" height="101" as="geometry"/>
                </mxCell>
                <mxCell id="UFWtkAdqDlV0CHpWmLtE-2" value="" style="shape=image;verticalLabelPosition=bottom;labelBackgroundColor=default;verticalAlign=top;aspect=fixed;imageAspect=0;image=data:image/webp,UklGRpIUAABXRUJQVlA4TIUUAAAv/8F/EFcQAoEkf5JhhhIIJCHtb7WBkQBIeMEEIonkd60eMhuAZxm6DmGKPDkK2rZhXP64dxFExATItrX/qJb9bNvctdm2fcOfiooRVK4Ap0qFgqtU4rKrfEr5OFJdX/PU7DPIIuffIqL/Dty2DSO6vlyWn/i1tj1rs23btkaANXU0Tg6OSk2OhFQ0+VEqmiMxrtwY2F3p/kviezYvtCME2TXO6ozoP8O2bcPQzbw2n9A5sn+6eb6/RbJjDjc61bvy+VUj0XlTwNNIlKd6/tKfj5GIvibz/HG4TyvX0zS3dy83k+vfhwmjEzkD8Tm8vv7ZT7vtPlPIjDSXew2458Ph9bYhekjf4xvNxt7snz+ISXebOE8UITZLmXeKkwedKq6nWOkS9egGipiv1A/Rr9QP0UNqlCNFT52Y//jjnfL5RaViu0rq8pmI6CENs24y+fW0cgrxnWntVNJ7o/WjjJacoQ2kcq+Cc+MWUH6s5dbTJtL93/gttYY2EnukTGTajbSVWOq0wEx+pi2lFlj/QNvKl7xNW0unxO2NEfcpah8Oh8NhjHNyWQ3LHV6e6PVWwcvv54/lrJZUs3juFR7/KMzlbvHDt6DcuNCDhntRCEn5vPAoOR0Xzi2AO4TGvS9Sialc2N9YGDMsOZmUzsumwvIseayl7GVjdQR4k776RbooAzzKXmbZKESKkbuWto014Ushq1kyDxoRc5S7hnBd9vgSE/pQleBdf9B3VG4MPUrsJqIHxI0JdRWOWfD2eq8QO38DdVo2fSj7iTXihsCTS9y/sEYWPFnRnLc1QB94MsG4MXCL9VIGugqmDWy1IhzDdILpw3xjzbgx7ORy3QPf9IrCqxZLEyZfcxaUlsoprMtVP+FVSLr5GlYVWIJd3RBkrNedwJLrGjQbeAacnFcXNN3N/2P9nINUImlCWI0tpAwrkVy2OkAfJBdx021l0AS5irhR2EzGEFbCzTe2k0tQaXmcZtXYUEoZF/2cTmFLGURcjNt9A9BKtig95dxYbCtOskXzoSeaOdnGoBds0ZKauMyotjVBV0kWJ5pe+hlqW0KvtRQudmrbHXjtpNBXE4bX6a0JvSohjPlEy/vGBlOGyGVQ1rObrTYwBNjJwOgJt/kGLjMORLaGJDluv9HM/H0SVS+CKP+M2284Tg1goLoVREt8ttkziyuAE1mj5HDmVducmUUFwJCVZDMSG7VN3MK7gDpBOH7qjc7MwgJAT4JoeNlWzSwA4CSJC8tudmYWCoCRxMDKN2tmkd8BkOJ5dtPpLSsZ9aiBQYvBsK7YdIhLAVwyMZxYahW/Xw6Hw+H1Vi83cCqgKcRw5tRrzNNIfu4X/1w4FjBXMYycPD4zEJvuc6GW0wGopeC46XR0bzSb22XMnA8RdgAaTrX+EP1axHEIwEUL4A7AiZOtP4sPSwNtJkBXAHruHnsafg6Hwzg9X0sMHAWY4udrdgDG1e7lyHjdAwDc3QcRUbZAz8kBt/v5LgXgiIuNq/fnQYPJ40DU6XAXTgHg4efrc8Cw6qiO3nQZZvJEVIVrOTsAzz/fkAEta7fGm9WYzeOSp4ZTATgKQAFnVhbTeTp1wACGbDDD6GsAJ/3zARhYOmZ7g7AYykOVjKcOQJP9eO8A2LFR298G5i24HOOTAJT5j3cHlKxr9O6CBzgHF6PoNYDix/s/oGHlER0nMoTHvYYafddGiUADp5U2IxFRhSVpsqVqAMANBEi/zsZ4b4vyGWjwdRNvEhjW2VyIiHJED480ADQSWGkzEJHFKukZOQAYAZh1Nm69RsOoAKAUQMOpI/ZxrZ7RQYicOLt4ytV6BuWQIWdOFs+ZiDq9/kcJYeBE3l9XmdlnITKusWmJiNT6dkJwq2x6IrLrjEhM9I1/L5KhXWPTrHgX6fmyxua04l0kPeMad3Ndj2HUQhgZRTwjEeXrKRlWCAMji8YREektICGcGSqaZs3NnM9bEZwY8e6nNTdz6CqCdgXnNTezdrLo4hnW3MzKhUZE3WozS8vMEFG9EZ0Ag9loGiK6bkQtgya+CxEV8bivRXbCqKMZiCiPp60XyYW5VLGUREQqnotdJJNZS0QUcdMHaDgSDLaLuekiOi/SCe1MRDaidhErjSKWnojqiEyAllEJbSCiKiJXL3GVRh7TNSKoeSdfvxPaSEQ7rBbekziyn+Ls24tDxVSsqvepQginH+feU+c30kCs0OoKT549plmZ+ZSRXLYi85vhhNFF9Z2vyBnmAiixHdaExpNlcJkobFS0qtajcpg0O3l+52hkudTRjHHtQ/RTnVFotSiquIposhDDlG00WgGmdBnyEN69biC1gYhoF4fJXMjHeHYN8CSLXVxVHGfd6ACtJ98Df2TWExHVUbgax5D7xaMz4EtmZyIiG0VT4D7EMNVBA4UM2uguRERdnLsqdyG8rgC4XBZFNCciIorCos0DGE8BwGQyaydUBOaKXgdoPQpAo2XWTOQxNvlbHXI/+xsALWTIKbpyYhfDMxUB/rIb3AkNE1UE7p1U6Hgb3EhtJCKyiJGX+XHkJwOAQmr9pKLQ8wwDAFwutctEhjVy8tUAYJTU2oliFWffDgAaEeY1zES1rhwAHsXmJuy6FAB8SmMXD4bJ0Ss+DwQAyOV2WbpwN0vVbQcApZLGNZ6sCV98HF5fPg70Ha6fKJwFgAZSpPVU8dxMF12InoiI7ILLMKHwBACP4qjjOXqLLOS8ExHl4cxkLFACQCYOG0+jpotr0HP5QXVoM/crJnHy6OJxxXTRISxOh2tokmLKaDE0HooHLxjDrwAW7ynzCDGYiueizhNVZEeaRk19CiSPRAHNbnolHZUb/4P7yHGH8e0iuQKu8q5FVH/JSw5pUvrqOEo7WVwmbEylP4NgujgMaaBFOb1mEfWeus8gTnyURVIApUI/Ucdj/M56LZV4i7ECoNHErsFT4QnyZIzs0qFVAMa4dfRb4VN8hjJTAzhGrXJkGkogg6+IA+MVowLctGwE7hs91yKlj2p6vVRcfS13Vg0xe5ly9uWRlKQMaaY6vZSp3MjtZcolNgxXDN/QftVL9WqQrnHyZbG0Fm2Hr2ktf2qImU5LpY3OkXZj/gY0U6QWGYjJN6RK4ytiwbnA2ZocGKasXuDIjYVYMb4qGlOhpOwFMF7ZcOXIyeRS+rpo8A6c6zYHeu/UoZyIbwB8pOJVhpI+O43SQ3XYsmTHQrKM3CJmzvX5Gzj6x84flz0Rl06JZuAWMVPSH1LA4J/uc4YZiU8O0dL77qPCse5rwBCTV8W9PtNMfkG2XLjnqHHDC30DZ+LyeqMB4PfzSDOpIVxOvjwumG4gBTfSTA4Hmo/V0ml9u8hwJrIahpZFxIHxVbG5kagGevEHzmdjgyGiX3hf6AESxkc6+jkS0df92yK3EDGDL4sOPRFRVoY/dhlkTO/bxecGIqqBxyHMvYaQufjq+OBGIvoC8Pgxq5PzD2iZxQpQjkSkAMA9cQ/d6w0kjZlaZeEdqzFNuX96ebnZKwgbx6jWgHIgqiF8GJ1a5biByCqInoE59kav8vNORPdacmfi0mWrnMeRiF5v5HZikV0F3DsRER1e7vf7/X7/f9JqeJRjnZQfxMQqaZUzaqwV9/QxElH3eiPwdZw5GulNP3tNby4zqgRrZ3QJZmaQSvCZUyTYMOOaYBeWJZtgLW8gnV4lqzOUJ7j4Z/W2S7CelSPBF5xYV6Q4DcsmmeMXGinOwCqS7MKqE79I8nV+kSd/USV+keTrzCLJ15lFmq+ziyL1i04jxTHsB2kOK0+znlOlWcuWSjLnS3cNya8Lp3tNMsOxTif5jNxBgjN3zRJs7npNcc1cbaKduVJp1nCKf+jXS/KvhnP953/N0qxM/3VgdInWcpWnmePUia4zd3SaGU6BNP8MDNuoJGu56rMkcxzK07w+c3ZpZjh1mqHnTqI1nCzRZ2BcE+3IsInmRuaotFfCr47RJRrOzMkSrWRU6S+d/CKqE19pfpytIs115Ng0cyN38n/mhSH51XA6nebTc6dKs5JDX2k+f9lzn2Ru5Ng0V8Mp0gw9Q6cY/9RlSTbz9JXkwz2l+vBPRKleGoYFoFN8jsz5Bp6T/Nsz5wttnmJu5E5pk1yGQQ9DkgtvxCXNhb/sydJ8ek6dYuxJd7kh7cWeVNfMsYkG1/vnG6nOe+qfgCdPp5J9HsfkHzd4j7dIdp68Yz/T/fju/9wk++dxJC+vyX64+yA/ryrRP+7u5cD9pDvlfr+/e3nRSH7+9d+//vvXf/8exOjU679T39QlvnqitJchSl2FDFPcite8PufjU9wKzmd146P+08LWjTmnODD7o9OLktLXwMx7xq+OD+vJU4ko3BxzNuLfYYamEbHC1bFIlUO4XVnE57iTiBU4TSaBUfY8U8Qas6J3KMudRKwVqHOImYy8WjwxLxrzOPIy8dCQV5+H80vCBodsVuBpx5aMTRepySIAld1M1RAwfV6UBV8ZBMyUmcvEjWLuX2DIgqsMEmYtkxul3GNtHmMuOEq5f6X6KDcK2S/QZ4OjkF0yN8rYJcNRyqaQ2YT8OeSvhRz9R8D610HzHwmhfYnP9gzCbbt+bPfvQ+LtuizLx7096rZdt7u9rtE9btu2bNu9PVKWbtdlWbZHib6uLDLf7W4s89Ed8emYmXn+bXNj1n5uVwaZ70bxjYUvx2l8W5r4xjCzMCvCwCiz+GjxyTKWd3PM3OF/jpX41uLmWPhklMJeHNgQXXCsJH0aXP3Fx9UxMzNqGNgQ7X3drswsrKhFPXtVUS3PyVEXGKeVPreFRWb0lQ3R3shpUtExzl6S0VbVyHp2m1HhpZXTYG9sjEdWxYhb1liN1XzqFZ9UgbU08o2AF0Y25xd6DgpKixrRHWb7xmIo1GkawrHyjFygi467Urxbq3i3NB2aqBUPYE8NB3ADTJBjPXXhE0inLU/dZLBLg+pyxA4EZFVb0DqZi01szJwIyGDArXJA1iO4kyIyWvhCDFkM0nx/PK54VUS2pBZ6VbRTVgcY9mIOAXd7PDZnEUBbIqJPoNKsOrhOiqOHp8WDTWmLcEF8R0REN4OLlJToXdo1FxM2Ug7z9njcrsbDIL0lPrbNQU0RHCqJBAXcd0oTnXyK1nJBh1WqhEn4aCnJFzIDozQys2+JKA5IXdY+dyQzaaI6iS7ggH2n/bgaDjYhMf8mmRU9C8c8d0REFNHfqgQT8FvUYhU8yQSpwW7MzL4lioPlEHQxaUsoI9AiKA2leQf2EoxgyqrgpQJIrhU2MvPcEhFFh3gzcsxzB6qMRrognkRCQfDllxm8tAQyCjs2MPNvSrLCYTcwt6TEokdqicDZFyCCvbXCF0LpBZ9A8SQCP3VmI//GxWtt0pHMpSSr5EE1xgvRKsyqX9KENGb9Tmr6QzyBTCXppecRvfCEgsCdpiWRiNTparB2CnyoLJ7IWpJRao4YhQoiqUXgrqyVzhqjyXShIM0FGKTuiEFoMCc0iifSA8+MwiFtoUwXAye02GDUICuwZ0SHdEgsSJR2I09EFJPa1YpOUA6+DDPBFCRIzyOCRDijUGEzwbiXcAf4Qq1SfcQqzDl4bJTmn0wvNUdMRr2wYzt2AWsZdswVqD2iF3wOFTYV5lmoUeqOGHOqsRXoXmmVqtLB2u1GHmuwALQJ9yMZhPmQIae2ZHWhnOAPcTl1GP0Zg8Wa4x63bdu27fE4n+RyWNJMZo3L5evKWk5pz8I/cMYchjzCwHqMmvOKfCQq/wqfbMmZhCxCwez9we2a8agD/RMVrP0TNf7ZW839aaw5VbkNf+r0OS/btm3b8APbs2g1lrv/pjQ/hv4UIur/KMlPJZQJ7bA/Hv+w5TuLzuYCrrKn5vMgY6DajIgsBqn9MwYuyvzzMhvgS/0zmMvmbXqpw9zZUBb0QsMxo2U/Nc5ifp3dZhD2n0JnNJfMCdXJOak9wsmXnxMqG3lpFEnPqcmiy45FapMotSc3ZDFI7cs0JsEonFitGLFRanILUptKmk19GqNUZVG/TGeySsq+nth+RC9Vua3CTET0Y+klf8Qk7blNgj9CX3qDqXSTNCsGgYmIVsnn1gt7TpfzWSXuDggS5zYKVU6jVJ1GABrMYRFoMxuEJid3ZhWWViAn1ZmxSHtQA8W0p0LADgXNID3zClLSA2poPaMBPGgFOiKiizQfVmGr4I+qoMsZjUCL9EBLRDQdOxxwEZ5GQdqh4YwuwBMZNSF1YF2NBqE5yiNB9FwmYEacJqasq12Ul04IiihxZ9jPJQDcWC7cEBHRAF6T0aRcDAiopehOiRCv78AF8BmNysXCGQ7vsiczoPcrFWSBFeBfuv+bgB1csD0xgNGKu2Pm5GMOSUtxQfg3EVF0jFInIqO0mvVp9a5dLEbAJ+c4MDMPur58K8T373BDFZQDzx0WuDKKTtjTWlwA9i1RSOrPKPKxVKkJjhn+/WSuMfWOd1o1E8MsjpM8z4gG082rIuPcxcevKzM3NqvsLHaLwKY00vNMLqavH9KeopGVLNu2XR0zM7dEk/QUQlq4Yz5BNp20G9TlCiY33crGqPyDiCjeGKQ9YrDwlEuUuADGdQ6SF2iwI6KeUZZlYRFt0qS6WNQWF5tQmHeDHZgTB4ZkDJ7YnFpNO42Cl8YziAY1wKkjYyai0W4nmF5FTrfTC7RlvFHXIZ0UMrLdMf6DbW2Q2aCC1tIEfSekBePtgMHsF+GMQJsKKk8IS8NRTRnoTdNCjWD/5IkoyzdFI8aoTqwVnLRDE1AXIg7ahCokGl4qWPlOMwC1EPQ70UVqhLSqHqiKoH6aO2yXzM8T0VueEoM8BXqH5o6IqJeeqQh46ALsZdBeS5iHKL4Z7EREX+rZ1oD4lPJpbknhUyswQyPgi0FBHH1LqSWJ445wvrSP853SfF0V85309POybY/H47Yt3IF3E/wfTczLsiyLE4d+XrZt27bFcYe4Zbs/Hrft6rijcnK7LsvHnZLEjkSihuhrW8Rt2b4JJd6ui/jycSdLIoFEhMK2LMvHN4lEkunShWQi1JFMfDEA;" parent="1" vertex="1">
                    <mxGeometry x="50" y="70" width="170" height="170" as="geometry"/>
                </mxCell>
                <mxCell id="2" value="" style="shape=image;verticalLabelPosition=bottom;labelBackgroundColor=default;verticalAlign=top;aspect=fixed;imageAspect=0;image=data:image/png,iVBORw0KGgoAAAANSUhEUgAAAyAAAAD0CAYAAABjN0LMAAAABGdBTUEAALGPC/xhBQAAACBjSFJNAAB6JgAAgIQAAPoAAACA6AAAdTAAAOpgAAA6mAAAF3CculE8AAAABmJLR0QAAAAAAAD5Q7t/AAAAB3RJTUUH4gsUDxgXNWe7UwAAWUhJREFUeNrt3XecVNXdx/HPmdlCFZBuwbKAKPYW7MZydlk69hJ7Ho3SrOl5EpOoSUxRY8qTHo0Vd2k7u3M0NhQUpVoAYQAFlN5h69zz/HHvKirglpk798783r72ZQrsnTm3fu/vFIUIpdEVpb2AXwArgF+WDYntlFYRQgghhBBBF5UmCGX46A78DLgaOBGoOfKqfnMWPrGkQVpHCCGEEEJIABGpDh/3AdcD+UAb4FSgTkKIEEIIIYSQACJSHT5+DlzrhY9GbYBTgNojr+o3V0KIEEIIIYSQACJaGz668fnKxxftXgmZLSFECCGEEEJIABEtDR+N3a6u3Uv42D2EnOKFkHkLn1hSL60nhBBCCCEkgIjmhI/Gysd1QEET/kpjJUQGpgshhBBCCAkgolnho/tu4SO/GX9VKiFCCCGEECKQItIEgQ0f3djzgPOm6gx8H7h2dEWpBE0hhBBCCBEI8mAazPCxe+WjoBW/yq2EWDYNuLjfe4ueXpKU1hVCCCGEEBJAxO7ho3HMx7WtDB+N2qMYpPJYP2B43/cWTVwqIUQIIYQQQkgAEXtcZDBV2gOnqUK1XiohQgghhBBCAojY1yKDqQwhg1SUjUde2W/BwieWONLqQgghhBBCAkhuho+vWmQwdSFEMQjYNODSfu8uekoqIUIIIYQQQgJIroWPpi4ymNIQoqJsGDCy33uLnpUQIoQQQgghJIDkSvjwq/Lx5RACp6kC1g8YIQPThRBCCCGEf5Q0QcbCx+5jPgoy9DHWAd8D/l02JCaLFQohhBBCiLSTCkhmwkdj5eO6DIYP8CohWDYeeVm/BQufkoHpQgghhBBCAki2hY/dFxnMD8BHcgemR9g44KJ+7y96RsaECCGEEEIICSDZEj5Svchg6kIInKbyWHfEsL7vLnpuqVRChBBCCCFEWsgYEP/CR+OYj+sIRuVjT9YB37OWx8qHxupkrwkhhBBCiFSTCog/4aPbbuGjIMAf1V2sEDYceUW/dxY+KWNChBBCCCGEBJCwhY/GMR/XBzx8fBZC3MUKNw64pN/7i56WMSFCCCGEEEICSFjCR1gqH3sMISrK+gHDZZ0QIYQQQgghASRM4eMGgjvmY98hBAapQrVeVkwXQgghhBCpIoPQ0xs+riNclY89cRcrtPy7bKgsViiEECJ8tNa+bCe/rWLYz3twy9GPSaMLIQEkI+HjesJZ+dhbCPku8JismC6EECJ0AWSwLiHJOT48U61VBfw9Ps1slVYXYu/ypAlSGj66Az8j2FPttkQP4H7vO0oIEUIIES5JLgDu9GFLC20dEwEJIELsQ0SaIGXho5sXPsIy21VLQ8g3RleUSnAVQggRJn5OK2+luYWQAOJH+AjDIoOpDCHXjK4oLZA9L4QQQgghJID4Hz4aKx/XkZ2Vj72FkKulEiKEEEIIISSA+Bs+Gisf2drt6qtCiFRChBBCCCGEBBCfwsfulY/8HGyCxhBylVRChBBCCCGEBJD0ho9crXzsKYQ8gFRChBBCCCGEBJC0hY/Gyse15GblY08h5D6kEiKEEEIIISSApCV8NFY+CqVFPtUTtxLyjdEVpRLKhBBCCCGEBJAUho/rkMrHnuw+O5a0jxBCCCGEkACSgvCR62M+vkpjJUSm6BVCCCGEEBJAWhk+rkMqH02x+4rp0l5CCCGEEEICSAvCh1Q+mkcqIUIIIYQQQgJIM8NHd3J7nY/WkkqIEEIIIYSQANLE8NEN+ClS+Wit3SshUWkOIYQQQgghAeTL4aOx8nGDhI+UkMUKhRBCCCGEBJC9hI/Gysd1SLerVIeQ+5HFCoUQQgghJIBIE3wufDRWPmSRwdTribti+hVSCRFCCCGEkAAi4UMGnPuhF253rCukEiKEEEIIIQEk18OHVD78cQBuN7eUrZg+ZEJxZMhdxQXDHiyR1hVCCCGEkAASivBxHVL58NPBwL24lZBWt3vB6dGTC8+J/jH/iMip0rRCCCGEEBJAgho+uiKVj0yHkAeAy1oTQkY9Nfgk1Y5HiXADER4aPbX0RGlaIYQQQggJIEELH7uvcC6Vj8zpDfyKFlZCRj41+DjVQf0Jxcne//Q1Ivx+9NTSk6VphRBCCCEkgAQlfOxe+ZDZmDKvlxcGr2rOYoUjnxh8TKS9+u1u4QNAAacR4WGphAghhBBCSAAJQviQykcwHQT8BHdg+leGwpFPDD4m0lE9TIRz9/JHBhHhUamECCGEEEJIAMlk+GisfFyPVD6CqA/uOiGX7muKXi98PESEc3ArHnuivBDy0OippSdJ0wohhBBCSADxO3w0Vj6k21WwHcBnY0K+tJ9GPjX4aK/y8fV9hI/dne6NCZEQIoQQQgghAcS38NFY+bgO6XYVBr2A+70Q8umYkFFPlx4V6aB+51U+mmOQNyZEQogQQgghhASQtIeP3SsfMtVueByIu07I1SMfH5w38qnBR6r2PILifJpW+fgiqYQIIYQQQkgA8SV8SOUjvPoA90c6q7siHdTDKL7eyt/XWAmRgelCCCGEEBJA0hY+pPIRbr1R/KQVlY8vOp0Ij8gUvUIIIYQQEkDSET6uQyof2aAgReGj0SAvhEglRAghhBBCAkirw8fuiwxK5UPszemyWKEQQgghhASQ1oaPxsqHLDIommKQNzBdKiFCCCGEEBJAmh0+GisfNyLrfIimUcBpUgkRQgghhJAA0tzwIZUP0RpSCRFCCCGEkADS5PDRFfgpssK5aLnGSshDUgkRQgghhJAAsq/w0R13kUHpdiVSQRYrFEIIIYSQALJ3tp7zgCuQblcidRrHhEgIEUIIIYSQAPIlLwJPAA2yG0UKNVZCpDuWEEIIIUQa5IX1g5ePjK0fXVH6IyygZAyISKnGxQrHlQ2LzZbmCC+tdcS7NjT+5ANRIrRReeTZJIUkP30RY4lQA9ThUI/7ciMJ1AN1QC3QYIyRhhVCCCFaQYX9C4z4y+BO0d7qPhT/E+ZAJQJpJg5jyobF5khThCJsKKAr0Ac4AEVvLAcCBwA9vJ/OQAegvXf9++I10Ho/tcA272cTsBH4GFgFfAKsAT5S7VjT8dt5NRNPi8kOCN7xAFHIK1LRhhW2gDryURDpphpUG+pQJOsXWPvCLAmUOXI8/BK424dNLQS0MWaVT98rH+jp/XT1fvYjQlsshVgUCgdFLZZaLDXAzt2ub5uB9cAWY0xSjhQhAaQZRj1d2lW15cdEuRkZEyJSawYOUgkJ4gPFhbotUXpg6YNlEHA8cJgXNLoBHUlPN9Pq3W7aa4BFwBwUc7F84t3IpWuon0EDOqDoTITuJOkHFAEHesdBJ6ANEPXuekksDcB2L1yuAVagWA58iGULsDmsD2Ne1a+tF7TbEqU9SXp450MH7yfq3SvrcKt8NcA2FLtUHhtsPdu9/60a2AXUGGOsBJDMBhAvbHRR+fSyDRyN5QRggPeSpTOwn/ezrx4h1tu3u7wgsgPYCmwAVgDvkcdiHFbisAnYaoxx5EojJIDshTcl789xp+SVECJSaSYOt5UNi82Vpsis4ot1od3GAOAU4GvAmcDBn3vA9J/F7a61CXgPmAW8TZSZ0Z5qTeU/46G5eQ/5u6b+afpg6eV9r3Tcc2qBRcaY2pb+kqE/LlH1bzsdbR3HEuEULCdiOdYLoIVe8Iw28R7XuP8avIewRcDbwDwUc6K91PLKf8UDG0b0MA1JOtJAPxRHAkdgOQQ4HOgNdPfuiRE+q/qpL3z/3X+SXjhbh1v1Ww0sA5YDi1QhS1VbdlQ9E65AEtYAMviG4oizzh5g6zgZxWlYvgYM9IJGfhqe4xpwu52uBRYA84AFKp/ZqotaVfV4vCFD+y/qfWffn1sjnaiPHKB2xB6KhzqE70vJlcX5zkbbER+/ocqmBhxdUdody49RfFNCiEjxA+ZMHMaXDYu9Lc3h+42nADgEOA0YCRyH+3a7MMAfexuwFJgJTPJu5OuCPn6keLhWtoYfADeTngk+FLAFuMgYs7QFx0I7oC9Q4v30B3qlKXzuAD709mGF9+91QagEeN0NewDHAGd7QfwwL2y0T9M1cJcXSj7xHkpf9f79MbA96Md2mAKI1jqKojtwEpbBwFm4XUs7Z/B6tsp7wVLpnQsrjDE1Pu6/rsAvgRPS9HJk79cstzr6TRM3m7L2Plusb8Fyk5+5QGVbI3pjQh5AcaOEEJFiM7wxIVIJ8eeG0xa3yjECGOw9eEZD+FV2oHgTmApMiR6oPqr8ezDfqHvdd34NTEjjZnYBw4wxLzYzhJ4OXAlo72HMz/vXTmAWijKiPGdi5pMM7Z883C43w7x2OJnPxjP5rR5Y6T2MVgEvAx8HtbtOGAJIyZXFUWeTPQKHkUAxbqW3bcCaMgl8iOJFoBLLy8CmdAdQrwLyM+A7GQpg1xpjJmXlvXaw7kWS57xrrF+sysbGHPn44C6RTupeItyCDEwXKTxhgDdwGCtjQtJ2kwHY37sQXof75q97lrwsqQU+wK2IPA18YIypD2AAeRC4Pc0PrrcZY/7SxIeOk3ArMqW41Y5M78M5wJ+BKcaYzT7tlwLgROAyL3z0IVgv2HYCCWCKd3y/25oudrkWQLTWhSiOwXI5bpX3kJA8u2wB3kXxBIrnqSNhXkxfhVCX6DNweAo4yPdvqvh99AA1vvIf8awbD6O1vhT4K+44Mb8sjJKFFpUtrRkwqt8sLPupPI6VECJSdgmCg1EcfeQV/eYtfHLJJ9IkqVM8UrennguAe4E7cUvtmXq7mw55uDPVnAWcD3QpKipaUVRUtC2RSATiAxYVFSncN+unpXEzEWBBIpF46Stuit2B24D7gfNwB08HYR8eDFwIHFXUr2hV/7P7rl46N5GWh66Sq4pV0SFFR5DkHuAn3r7Zn+BVAgu8Y/ts3K5xBxUVFa0rKipal0gkbECO7QuBM3zY1AbgsUQisa0pgb+oqOgo+HT/lnj7NyxrtLXxwnAJlnOIsl9Rv6LVfY8u2ppYlPprWr9BfdfZnZyCOwbGb/l2O88nEonNZJHikboD9dyBW23zi0XxbIQsVX5pbCO19mc4zAzi57PWYsna8UzZrnGxQlkxPQX0BTpfl+pBtppHgcdxu1x1yuKvHMHtRvMDYCJwg9a6S44F+cMvnlO614cyrfXJwN+9h7LDA/gd2gOjcXg8ucreprXeL+XnhdadnfX2BlvHRNwucQeFZP/2AcZ5x/aPdLE+TK5ye3jwG6J7A98GyoExXrANqyhwPJaf4fCsreabukT3TPVGqh6P1wLP4lYi/TYQxQnZdhzaGo70Xmz4aQOWJ6LZenKPjpUWqEJ1GYpLCcabs0+DR5c2+9OvyxFUN+yitqEWpRQidA5GMVAqIa16wKKoqKg3inE43Aecg9vfOVdOiAju9JnnA32Lioo+LCoqWpvJN8Y+VUAA1te96kxMfJCo/8IxEQWGAA/jDqwOcvVaAV2843b/ogFF8xNLEttTcF6ooqKio4H7cLvCHUR43oh/sW3OAk4tKiraXlRUtCyRSDRk8NgORAVEX6jzi/oVnY/Dr3C7mfYI4f7dVxA5ALgQy3FFfYvWFR1RtCqxJJGyMW9FfYu2ecfVQRn4btVFRUUViUQia7phFR1eNM675vt5352K4i9ZWQEZXVHaBsv1uKX7nkH6bBaH/dvsz23HjOemgd+if5cjyIvkSTUknM7wKiEnSlM0+yErH0UxbsXjR7h9nnNVe+AK3HEhN+tS3SEHvnNXW/f58RzeAOurgEdxZ3cKSxBtB9xCPQ/pUl3UqvOiWEdRlAKPecdE+5Dv5wjueK4/A/fqYn1wDp/n6GLdDcVdWP6J5UL2vV5HmLUBBmN5nAZ+Ujwkdfu9V1XBKiJU4Q6G9/2erwrok0X34cNxu5P6ea3dgWKyiZsdWRdARleUFgDX4/Yj3z9on68xZrTPb89Zvc9h/PF3c3n/b9C7/YESQsLpNCI8LN2xmnXR2x+4C8vfcPv2yxgt1+HAAzTwgNb6oCz/rp1xJxdoPCYiwOW4L43C+JCaB1xEAw/rkpaFEK11Gyw3Yfkj7qKa2XR/7gLcjuUvWusTvf2da9e9AVgeAn6MWyXIBT2AO20Df9fF+mx9oW71tf7faho4TMGdFthvB9g6zsmi/XMe7sse/yjmqUJeJssucIyuKC0EbsJ9o9oj0B/Wyxq92x3AiMNGM+H4uxh86DC6tu2OYx0JI+FyBhEeGT219ARpiq+4CRfrAcAjwP/iruUhPq8jcAvwf1rrbK6sdf/CQ1gJ7hSbYX4wU0ApDg/qwc0LkFrrDrjdrX5FuMcCfFVIKwb+if99zjNm+FsaXaxPxa0CXUH2Vj32Jh/LBVj+TYQbi0foNin4ne9BRsb3tgPO987XUCseqjsBo/F3Nr0klmfiU8yarAogXvi4HvghmZ+qsVkiKkK/Tkdw7YAbueXoMZzSaxAd8jvi2Kyb7S2bneaFEKmE7PkBK6K1PhvLX3HfdBdKq+xVFHfdk//TWl/gTU2cbdqh3Ot08VA90Asf2dINbyhJfqC17tTEc6MD7mDk7+LvNJiZcgzwsNZ6dC5UQmp+yDlY/ow7Q1guD/g8BMsDtpofeIsKtpgxpg7FM0B1Br7HGbiLfoaaredrpH+s3xctBT5dMCYrTn4vfFzr3cR6hfV7FEQKOLH7yYw/9k5uOOp/OLxTXwqiBVINCQ+phOz5AUvhrl3wR+/iHZFWaZKTgEeJUDrWjsq+b2fpo7XuYuv4NmTV7DJ53v3oRm9cy77OjbbAeOCOHAkfjfoBv0MxOsuvfafg8DBulzrhdr28B/hNq7uZRnkLeDsD3+Fg4NyQH5d5WEZ6+8M/immqDYmsCSC7jfn4OdA1G87Q9vkdOPuAr3PPid/niv7X0Lv9ASilJIiEwyCZovdzF7oC4GrgIeAoaZFm64/Dw4sH7xxy0Wul2fbdDscddD48C/dbG9ypc8/ex7kRBb4J3IXbtSPXHIzlfq11ifeSIqvitda6P/Ab4Fi5jH1Ovnfe/1Zr3bfFv6WBVbhv0/0ejB4BhnovD8IpylHA133e6idYpsanmIasCCBe+LgJd1BXt2w6QyMqQs92vRh66AgmHH83gw8ZSueCzjI+JPgU7johD+d6JcTrXnEN7srah8ih0WJFOPxy+70NX8+y73Uy7noR2brmy8HA97T+8noIwx8sUUQYgbsWTOccPrb7Ar/AXeWdYQ+UZEX4APbD7VJ3ply+9vIIDBcDv9ZaH9qSX2CMAUU5sDIDn//IsAbLwWM0OFwAHOHzpl+hkDe+mOTCGj4KgRtxx3z0zNaztHF8yDeOuIFbj53Aqb1OZ7+CTlgZHxJ0p+VyJcTrenIF7kJyPeRwaLWjgF/qEn1yFn2nQ70H0Gx2JoprSq4o/tyaWzXPO1/D4afsNhNYDjsW+N/iofrAqd+pyorbNvAN7wFb7NsQ4AGt9QEtbOklwH8z8LkPBM67zIZvfF7yA7phuQR/xyNVA8+aqaY29AHEq3xc6z3c9MqFs7QgWsDJPU5lwnF3cs2RN9C3yxHkRfJloHpwNVZCHsrRSkgp8AC5M92kH07G4SctvlkH80Et2wflFmK5wdloj9wtnB+I5cdIl8TdDbb1jNeDdTZMTnEw7svRDrJbv1IUuAT4gdZ6v+b+ZVNp6oDJwHafP3cEOH9zcShfrp2TgWvPLPYwa1noAshus13dTw6+PWqb146vH3gBd53wXS7vfxU92/UiomRMb4CdQYRHc2mxQq316d75eZDs/pQrRvHd4hFaHm7CYwBwjT5fR4pH6bZEuB04X5rlc/Kw3ESSEVnwXdojVd/mPsxfBy0MoBFmAW9l4HOfgmJAyO7N7YGLcLsI+qUOKDPGfBLqADK6ojQfuAG38rF/rp6tCkWPtj0Zftho7jjhOww5bITbLcv7RwRO42KFWR9CiofpvriVD3m7mx5RLNfYGi4f9ssSaY3wGEWU/nYnF+BwHbL45p50AcbrYn24NEXOcWeDc7i0uX/RVJm1QBXQ4PNn7uitZh+mqHcM/s/gtYwI0/aWPMMSPnZfZLCnnK8QVVH6dz6CK/t9g9uOHc9pvc+kXV476ZYVTGd4Y0KytjuW1rqzreWHwFmyu9NqPyx31/7XOVWaIjQOQ3E3irvIktka0+Q0LDd4M4SJ3NIVy/f04BaNc5uM/yujKxQXFA/Xoah26WIdwWE40NvnTU/BYUVoA4g35uM63NWTe8l5+nkF0UJO7vE1vnX0WK498ib6dTmCwrw2EkSCeHN11wnJukqI98BwIzLw0i/9sUzQJbqTNEUoRLFcifV94a+wUbjTdss05rlpAA7f0yW6WzOPmg+BSt8/raW/reGUkLTtgbhjM/20FphmjHFCGUC8ysd1uOt8SOVjHzrkd+SCg4v5zok/5OK+l8n6IcGUnYsVKk7DXVCtnexi34zEYZQ0Q2i0wV0DQezbIShuKh4W4nUWRGse6kuxXD/8tyVNfj41cVNLhKnAZp8/7f7A+VrrMJzXJUB/n7f5PDB3b/9noPuh7rbI4L1I2bqJz4GK/dt0ZcRhF3Fs1+N5ZfVLvLr6JXbUb5fGCY7GSsj4smGx2WH/Mlrr3li+gzv7SxA1AFuArcA64EPgY+8/bwJqgXrct6+F3k9n3EkuegBFuC8/OuEO3gvKzaYtcIvW+mVjzAo5rUQWPYQOtfU8BkyXxsg5hVhuqok7L9Gclc4d3sQdjO733LgXePeHVUFtUF2s98cy3Ltn+GUbUG6M2RG6AOJVPm7AHfMhc6U3U1RF6dupP4d0PJRjuh7Ha2te5e21b1Jdv4uIUmT/7JcBz4luJeTh0VNLx5QNi80NbfgYoiPU8w0I3GC8BmA57vR/81DMI8IilcdmW0M9iiTgGGP2WB7UF2qlCoiqtkRtNXlE6GprORLFQCzHAafgrmGR6TByEnC11vp+Y0xSTi2RJXrjcJXW+g1jTL00RxNj22c/u99rIHwznvbHYbzW+mZjzK6m/AVjzCat9RTcFb79vC73A04Dng3wkXE8cLbPW51HlJf29QcCGUB2m2r3R8iYj1bJjxRwas9BHLn/QI7e/xheXv0iiS1LqHfqUBJCMi38lZB6jge+CRQE4NM4uJWN11FMAuZh+aipN7DP3cyeN9YLMQ24FZKdwEdAvHiIbmcdDibJ8cClwCDcgX2ZOKHygKuJ8hywMIfPpR24awFUAzXesaC8B5F2uGsy7EeIF99N4Tni7PZwGuTB3sW4K04vkFvFl+wENgDrgWXetWkVsBHYxWcV3ba4ldveuNOiH4o7FqAbbvehIO//obgvtiY34+/EcSvcfi5w2gYo0VqXBfElkLco8MX4O/VuA/CEqTSbQxVAvG5X1wA/9U4SkQId8zty4cElnNj9ZF5c9TwvrnqeTTWbaEjWo5QEkQxprIQ8NHpq6diwVUK01u2Am8n8atYWWIn7Bupp1Z53q8pOqVbq52nZWLzC7AIWX3imXhzpxSS7nZOxXOaFkUyMU+tHkou9a2ausN7D1lvAfBTvAKuxrMftB54kjwhJ2mPp7j2A9QeOAc7A7S6Y7TMtNXgPqIuBxSjWYT/tcggQRdEZSw+gj9c2B3gPVEHQB8VwCSCfqgYWeS9Y3gTexbLcCyMObkV3b9dqhSWiOhC11XTDYSBwHHA6cCrui96gnQ+dgRv1YD3dVJpNTbqhtuMjW800LBN8/qynevfBxQE8bo7A/x4K78O+qx+BCyBfGHAuYz5S/rSr6NamO6MOv4RTeg7ixVXP89rqV9hWt1UaJ7NO96boHVs2LDYnRJ/7NMj4wmEbgGdQ/AXLQmNMLYBSJu0bfv41g/cw97oerGdjeRrLrV5fWz8XCowAo7TWTxpjlmb5uVIPvAtM834SwGYT//IsK5d+4E748kz/WOLThzC3GtLHCyGXA18ju1asbgBW4646HAfeQrExsh9bkquoeX6m2dPDaR7QkQjdsAzAMhQ4DziczFaMIljO1yX6b6bqy4uY5QjHe7nyElAGzAfWmLipa84v8bqaJr2fj4GPtdYvAH8lyqE4nANc7HXVCdL5cB4OGniqSS+HJpk6XawrgCvxdzHI/igGBTKAKIZgOcznl0OVwNKv/mjBCR/5uOt8/C9ZPNtV0ibp17k/Pz71PtrnZ/Y8r3NqWbBhHi+vfpG3186iNlkjq6pn1us4hKISorUuBP7uXegzcioBrwG/BuLGNO+GnC4lF+uOzjauBu7yHuD8fDCfYIz5Qyv3awR4ELg9gIfdEuAfRHiy7cXRDyffVNmq6f30YL0/DkOw3IY7pifMFz8LrPAe1MpVG+Z3GJ9X/9z5sWa3UfEoHbW7GAhciuVq4JAMfq8dwMXGmHgKrlm/BO4O0f5cCTyBYmK0p5pf+e942hbaGz11sNr592Q3u4sLsFwPnIm/A5b3pUoVcll8qtnWxP3cAXga/6ecfRL4pjFmZ4Du071wewac6eNm16AYYeJm1lf9wUCU3LzKx43AD8nyMR8WS9c2XTn3wPMpiGa223xU5XFA+4M4ttsJdGnblTqnjs21m0japIwPyYyDURx75BX95i18ckmg3/gVFRWdDdwDtM/A5ncCfwPuBN4OUr/bpe8n6ooOL5pLhDkojsTtb+3HyRQFCvsOLKpMLE7sasV+VbizyARpvYpdwEQvFJWZuNm8eErrCz2JpYnqoqKid3CninSAowhO96Pm2Ar8xwu9zxhjViYWJ5IL/72kZe2yKGETicTaoqKi6cCbuF2hD8vQ80IBsKaoqOi/iUTCtvKadSFu5Svo1qN4kgj3EOUpU2VWLZ2fSOuiXgufXEpiUWLXofmHvxvtruJYlmHpg1tFyPTDQHeSzE0kEk2qLiQSibqivkXtgME+H7NdiDI5sTSxIUD36QuB2/B3UH458LdEIvGVgTnjAWS3RQbvJQcGnAcpgHx6hY8W0K9Tf47tdjwF0QI2125iZ/0OLFaCiL+UF0IGeiFkTRA/pNa6rRc+MrHi+XrgPlXI/abSbEgkEoFrn8SyhE0kEh8WDSh6E4f++FcJ6U6SGYlEosVP5wEMIJuAB4CfGGNWtPYhdA8PKyQSia1FA4pexWE9cAL+DtZsrSXAD1UbHjQx81EikboH1UQi4SQSiZVF/YtextIWOJrMTDYRVfmUlXxwbPVbP1mUzQHEAWYD34t0Uw/Hy81HiSUJX1cTXr5hGYkPEjuPubf/3PoF9iUsebgTAWTyYaUNUF9UVGQSiUSTZkTrO6BoKw4l+DuDahssSxKJxFtBOJiKL9GF1PJ975rmly0oHjDGvNuUP5zRkvNuYz7uw9/+emIPurbpxsVFl3PXid/lwj6D6ViwH0pFZCFD/53pjQkJ6mKFA/B/rnWANV7weSg+de9ziweFqTDvqgLuxO2P74eOWEq9sQ7Z4GMUd5LHr40xW9K8r2pwq2q3486iE3QWeI18ro/2Uf+IT0lftw9TadYAP8DtmleTge96mK3nhEdVeTZf86uBf6lCriSP56qeiFdn8sNMurLSmiqz2Lve3oXbHSyTziPKwCafHPWsACb5/BkLUBQXj9KBeIFht3JSBgL3W0SavnZPxgKIN+bjetyZW2TAeUDkRfI4tOPhXDPgBsYfdzeDep9Bm2gbrJUQ4rPTvXVCTgzSh/IebofjDuT10ybcabn/E5TxHk0Rn2YWeDdwvwaHn4G/Y0/SZSPw/Uh79ZiJ+bO/va585cD3vLAb5PDxClFuNRXm9cq/xq0PbbMd+C3wF9zxV37qgeJEstcW4H7grvhUs8TETGButsaYHSj+SoT/Ad7J4Ec5CIfzBl9XrJpxLhvfz2PLCXYnRwbgPh3FXfncz8WB61FMMZVmY6ADiFf5aBxwLpWPAGqb15YTu5/ELQNv47qjvsnAbscQURGsdaRx/HOmt07I8cFJqHTHnZ/dTztx377+K4yLkhljZuB2I/KjajMAOD7kx/1O3JkQ/1NVFk/6vK+Ske7qGRS/xh17EkSvE2W8qTTv+Nw2W1H8And2Lb8j1/G6WGfTbGWN1uAOjP+lMU2batb361fcJE2VqQK+hX/V3D0dA4OTH9uOTf3jqgOzcMcw+RuU4JwAVKEPAkb6vM0lKCqa8xd8DyC7jfmQRQZDoIO3fsi4Y+9kZNHFHLTfIW4QkW5ZfjnN644VjDeASc7E33U/HOA/RHk0TJWPPXgWmOLHuwPgNG9q1TBycGdX+0umwmbVf+INKP4Pd+B70CwBvm8qTUbWxjBxsxr4Je6id346zlvPJZtsQPHdaG/1z8bpw4PMGPM6Ee4mc+uyHIU7W12TxMvMLtxuWH5fRwaT+XFkF+Cu/+GnSTh8FNgA4lU+rgV+JuEjPBSK7m17cEW/b3DXCd/l/IM17fM6YK0jQcSP5ncXK8x4JaTkYl2Auz5AZx83+zbwa1PZtCkYA3zz3obiD7hrNKTbmSqfjiFtqplE+a0xmR3jY6rMNiI8CLwXoLbZgttVZ3omP4Qq4DUUfwdfL/6H4i4mmS22A/+L5YnKf6Vvet00nBevo7gDd8pnv3UHzmnm33kFd90gPx0NHJupfaSH6M64K5/7OXHAh8CU5s5I6VsA2a3ycR+ywnkoRVSEPh0O4doBNzHhhLs5tdfpFEQKcKRblh8yXglxqjkQ6+t84ltQ/MYY80FWJMk2vInyZWBkkW2gXwibaDOK35pKszwQn8bhHdyB6UF5QHxWFfKst6hcxsSnmSTueiN+hrMCaPog5ICrBR5G8Y9QVnUt/8XtIpmJFYxP0CW6yWOG1X58CFT4HJa7kplJWlz1nAqc7PNWXwGavX6ZLwHECx83Aj+W8BF+bfPaclL3U7j1mHHcMPBmjtx/IBEVkSCS5udX3ErIwxmrhDRwJPg6wK4SSyxbdmB8smkgwnO4A+rTqSO26V0VAqRCtWteH+J0MsYAPEMm+71/ZiEBmv3NxM1CL0z7ddHPAwZmyQxvU1UBD5u4qQ7jh/fOiyeAf+H/hAQnE2n6BCjxicYBYoCf62op4Gyt9QF+75uSS3Uh7hhNP5+zd6B4uiVhOu0BxOt2dQM5sMhgrtmvoBMXHlzChOPvZnTfS+mz36EolHTLSq/TM1EJ0VqD5Sz8K+uuA/7kzb6TPZLM8+GBthDFsSP+VBKmh7V1wN/j5aYmSB/KGLPaCyGZ7KPfADzuhZDgvBHJY6LPD3b9Ij1UNORXgEXA/fFpZl2Yv4QxZpcq5CFa8Na7lbp7L8KaYx4ww+fPeQIR/7thOds5DP8niXkNmNWSv5jWAOJVPq7BXWQwm/pvik+jvqJH255c1vcqJhx/N+cedD7t8ztgvX9EGprcrYQ85HMlpD3wNR+3V4k7/iOrGGM2A6+S7m49lr7VZU6YBu3+VxW07CaW9hMunwogkcEz/n2VzzPGmECVmG09S4GXfdxkT7vV7h/i078axe8jPdRcskB8qlkGPIo7a51foriTbDT52dUYU43iOcDP7m4dcfh66c3F/gbmJMPxd+rdWmCKiZsWrf6etgCy2yKD90PWzV4hvnggqQiHdTycGwfewt0nfo9Teg6iTV5bCSHpcwYRHvVxscL+wCE+bWsrMMkYsysr95ziVdwBxel0GO5UjGGwHZgYn2Z2BvHD2XpWkompZxujpOXZP0/rvzRo7WKM2YniRfwbI9PJ1oa6F8VLWCZWPR7PppviFOAFn7d5vCqgzcVvljbnLJqJ/9WaC5OrrW9r3GmtewOluN0V/bII92Vhy54b0xQ+8nHHfNyLLDKYU9pG23Js1+O59Zhx3HTULQzochSgZHxIOh5jP1us0I8QMgD/ulDOJ8JrWbznlpD+riu9iYTmxc9iCO7+NsY0eA9ZmRh/sQ6oPFT9PpiNY5mLfyvHdyC83bi34XYpXZtNlzJv7ZJ/eS8R/NLLNnDIxK/FmvM5PwSq8G/MEsBhts7XlchPB9/H/k0l0vLzP+UBxKt8fBN3hfOe8pyYmzoVdOa8gy5k3HF3cVHfSzmoYx/vfiUVkRQ70xsTkt4QEqEf0M6H7+MAz5uqlpV0Q8Gh2nvoTqc2OBwWkkBWqToQ7P0d5T38n84TFK+Qx5IAt8wHPgaQ/YCwdsF6EXemoGz0Ev4u+NcVh/4tOJcm4++Ypc4oLiy5ojjt4yaLh+s2wEU+3aMbrSJCualq+ax8KS3V7Dbb1b0hvlCIVL6qaNeLK/p/g0G9Tie2YipvrX2D7fXbUShpnNRprIRMKBsWm53qX6617ojDUT59l10o5mutu5OBhVJ9e5yFj33YTl+tdbS5c7P7bBuKmfEyE+gSad4RalXDQrsQyyAfN1uP4jUTC+4aOMaYnVrrhbjrA6VbO6BLCM/3HcDTxoR7LaN9HANbdLF+Fsu5+NP9pxMt6A6sClloa3gFuNK3xrGc7Wy0fYC0dqG0tRwHnOvzrn8Bp3UTY6TsYPEqHzfiVj4kfIjdXjwoDt+vL98c+C3OPOAcKlZMZv6GeTQk61FKgkiKnEmEW0dXlH6rbEgs1YPtOoJv60oUYnkQd8Bgth4c1qdr5GFAPv5PldkcCRwCv85L7HfxpNZ6LnAV/s0EtxbH1zfLLTUPd7XpfB+21TmE5/t8Illb/Wi8or2GWw3z40VVBEWfIfcURyp+GW/yi4v4FFOjtX4OGIE7qYofjgBOTWcA0VorLMPxt3viRqDMmNZNJZ2SACKVD9GkJ8toG47vdiKHdDyMeRvmEP+ogqWbPyBpk0RURBqodeYC/05D+MC7WB/o0/fIhxaU18We9CZK0KctXUEBK0PSnu/gzvjjVwD5WLVjUeBbJcIHOL4FkE5a60jQZgTbBwd4wVSZT8huS7wg6k+l3HJg/TzbnuaPPXkTmAOc5VO75AFDiofpZ9teEq2fdE1lOrZwOA0U4+8Lu3m4szm28tLR+vCxe+VDBpyLr9SlsAtfP/B8Jhznrh9yYIeDsdZirYwPaXH4sIyrfSn5app+f2/cAaAiXLoT8e1NX4sfXMy00KwGvQx/B9suVB1V8BerU6wD/PqcnXwKOqmykwgvZfuFxhhT7z2Q+nUuH0gLqhjeuj5x/K0Kn2Lr6ZuW8AGQ5GzgOB+/TwOKJ40xWzMaQHarfEi3K9Fsvdr15vJ+VzHh+Ls49+Dz6dymiwxSb77ZWG6vX+S8VvFg2qZ3PAh/p/YTqVFAfaD7zNcA74eoPbcCq3zalgXec9ba+sC3SpJduLN1+aENEKbFCBfhpH3CiWDk0Hze8jGg9wTatuhzFvg+GP0QHM5Jxy/WWnfAcqnP9+f5kJpQ3eIA8oXwIZUP0bIDUEXp26k/tx4znnHH3ckJ3U8mL5In1ZCmmYfl9rKhsVem3lWVzu30DtlNX7gKCfaLoToUH4WoPRt8fNC2wIfGmDC0Sy2wyadtdSRcL0PeBjbnwsXGWy/Hr/Fc+3thtPmfs46l+LuuTwFwntZ6vzT87kHASX7uZhSVJm6WZSyAeN2ubkIqHyJF8lQex3c7kbHH3cHNR4+hX5cjvKNdgshezAHGqQKmp3MjV9mhoOgpASSU8gn2oN0GYH2I2rMe/96cNhAhLGtG1JH+hTV3P6bDMmDQAu8aY2pz4WKjOrATeM+nzbVH0bElf9EYU4O7gKKfs5KdDamdFl1rXQCMwt+Fvj8CJqbqlzX7RPYWGbwBqXyINOjsrR8y/ri7uKz/1RzQ/kAZH/Jl87BMKBsSm/6cjqV1Q/9R08DSDWTe5BAqCHgAqcH69uCaCkncblh+2I7j63iT1raLX2NA8kN0LdoELM+Vi028zOxqzaJ0zX52tXRqcVgqZCaKOT42TzcvhKTSYcCFPu/m51WH1E2M0awAIpUP4ZcD2h/IRUWXMuH4uzn34Avo0mZ/CSGu2VjGJ9daP1eO7ijNHkpR/F2Yqrnq8Hdl4tayuN2N/GqbZEjaxcG/wcd5hKcCshl/xxoE4QxZ5dM5rVAtDyDxqWY9lircKqxf1+JirXWbFP7Oc4DDfdy7W4Hn4s+lrqLX5L6UUvkQvj89eeNDbjl6DO9uXMCU5WUs3ryImobqXJ22dx6WO8uGxl71a4Ml1+iosybwMymJvd2kg911rjqEAcSvB+1dPm4rVW0jPm8bKlRdDFNxFGzE7drUOc1bigCtHVMxBbgFONSn1hlIhGOBWa39RXqIbks9w3y9viteV4WpXZeoSU9xu1U+fibhQ/itIFLACd1P4q4TvsvNx4yhf5cBuRhA5mAZSz6v+rrVBgpQoZr2UnwmDwIdHpPy4LqPMy9c4Ux8+YGtOtJVbc6p7xxhuxee09+6tpXVXcUyoMrH1umDTdH6I/WcCBzv42evxlIen2I2p/Zw+erwsXvlQ7pdiQxdyxUd8jtyao+vcUL3k4iqnBoTPRe4vWxo7LWy4pivD2zOBqJYZJXIsD4OuDNhCZEtwhPKLDucDbYmx/bOdtzptf26vrWYiZtaIkzDXdXbn89rOVtr3bk1v0RrrYDzcafH98tCIOULmeR9Rfgo9MLHzyR8iEyqd+pZtPl9/rvSMHfDbJI2mStffQ6W8Q3LnNcz+BArAUQIEZRQHRY1Obh/6vFn7JKihdPwfiEkvgEsAL7uU/uchqIf8FYrfkcvoMTXKK2YqDrwsW8BxFvnQyofIqMc67B65ypeXv1fXlr1AltqN3tXn5yYlGmON+bjNTkShBAiVKR7YfpDSKuYuNmotS4DzsKf9WW64A4eb00AOQl/Vz5fjuL5+HMm5cdzZB/h40ZkzIfIoG1125i6opxfzbmPSYmJbKnZjPL+yQHzsIwvGxp7OcOXeAfpiy6EECIbRYgDy3zaWh6WC4uHtmxRwuKLdRR37Q//ZjdUPB/to+anpzH2Hj6k8iEyorqhmrfWvYH5qIqlWxbTYN2Z8pTKmaUo5gC35xVFMl75iPRQSWeddeRdXig5+DdtrBB+HdNhkXvjryK0xfFl0hJLqrq4OXyIOxi9v0+tdLSt4zho/iLCdjv9gK/5uEe3YHmm8v/i9WkPIF+ofEj4EL6yWN7f9C7mo0rmrHubHfXbUCqSKxWPRvOwTFg3tHr6a7wUgJ1ia7HUy9EpAUSIQDzihoWiQ6SHys+pc9ChPdDWp62lZKyJMaZOaz0NuBzo4cPnPgDFKS0JIN4sWv193KPTgdlpP5m9AedS+RC+S9okK3d8xOOL/8lv5v6CV1e/xK6GnURUNNfCx2wsE5Jr7GuBCB9A1ePGAXbIURrOU4vcHAgrROZZ2jsbbJcc+9ad8Kd7kANsT1lWbMMbuLNN+nVslOqS5s2GpbXuBJSCb9PiV6MoM8ZsTdcG8rzw0TjVrlQ+hI/noGVr7RZe/2Q6lR9O5ZOdH2OtzdVFBudjucPPRQabYaccraHUgD9z8gshvqwjSboBa3LmGyv2x/qy9pDFXZk7JeJTzHat9XPABfizuN/xWPrTvEUJ+wNn+rgv31X5PJ/OTeSNrihtA1yHVD6Ej2qSNczfMIepyyexdMsS6pK1KKVyaZzH7uZgmUAeQZ3taqMcsaGUlAAiskyYxoB0QtEbeDcXdkzxMK1sLYfgTzc5hwipXuTxJdz1Lo724fN3xlLczAAyAv8mhXKwlMenmdVpDSDAGODbyGxXwo8nIptk+bZlTFsxibfXzqImWY1jnVwNHuBWPm4vGxqbHthPqPgYSwP+TFMoUqeeFHZTECIAwlQe7wocmis7xtbSATjCp801EGFbSg+sTix3thHH+hJAosDZulh3NXHzlS/4dLHuheVs8K1P+iqgwo+T+RRgP4RIs5U7PuTpJf/hwTn38cqqF9nVsBNrba6N89jdHCxjk2vs9EB/SstGZCresAaQLdIMQmREFMuRWutceXHTAX+qBwCbaUjt2MSqZ00SyxRgrU/f4bgmt5fla/i79sdUYHG6N5Jnd9g7VHtVj+Jy/On7JnLMtrptzFz7OlUrpvHh9uVu8lU5v7j2PG+Rwekh+KyrcMcTFPiwrR3ANmQRr9aKACuBDdIUQmTMibiLz63Pge96GHCgT9vaSHpmF5sNvAkM9+E7dMdyhh6qXzXT9r7In9a6ECjGv0LBOmCSMSbts7fllV9WuXpUeeldKo96Ilzp00OGyAF1Th0LNsxj2opJLNz0HnXJOgkerrlYxqtCpofi00ZZRZJq/JndZCJR7kVRB7lbGkuRBpycePARuSNsldiBRDgoRwLIWbhVED+sIg2ToxhjdnqD0Qfjz2xTJSqPP7DvSvWBgPZxP75JPjP82FAeQPmo2JqR/xz8g0hXBRG+gVRCRCskbZJl25Yybflk5q+fw9a6rURURMJHY/gg4GM+vrRD2YE7k4sf48Q6k2SzMWaLHCpCiC8I202kMw7n4ucUrxmgtW6PO0OTX8+OK1FpGt+meB3Lu8AJPnyPI20Nx7DvNUFKgIN8atc64AlTYXb5djJf+t4QJl1XudrZYb+P5UnvQwjRbBtrNlC+7Fl+M/cXzPhkOtvqtknw+Mw8LOPrZiRfDdnn3gEs9WlbR6oCusihIoTIAnmALh6is32c7XE+PbB/GkBM3KTlOXX/x/OWoYj79D32By609ud7DnaDdUfcqYELffo8s8G/2TgjAM8MdAe7T7qi8mO7w96DZSLI6seiGU+o9dt5fmUlv5pzH88ueYq1u9bk+uxWXzQHy+0NCWf6tJ/HQzW+QeWzAx8GpHkOtvUcKYeLEGIPwjg27GRbz2nZukO01hHgfPwb/7EDWJ6uX/5U95jFMgn4xJdncIcziktf6bnH/zfJMcDXfGrXJIqpxphVvgaQ3ZVfXvmJreZOHCaSoqXuRfaqd+qZvf4t/vjOI/zl3T+yePNC6p26XJ7Zak8ap9p9ecr4qtB9+HiFSaJY7NNLibbedINCCJENAaQbMNwbTJyNDgAu8nF7G4EP0n7Phtd9+j4nAUftIdgp4Dyvff3wITDZzwNnj31jyi+JrXG22XskhIi9RmWbJLF1CY8t/gePzP8NMz6ZTtImiaiIhI/PmwOMI59XQ/0tLAn8GUipgLN0ie4th44QoinPLCEwEn+7KPnpEvCxaq1YpzqyLJ2bMMbUEGUS/gxH2A+H84qH6C8e212BYT7uxxj5aQ92TTuZJ11VucrZau/C4TlkDQCxm821m5myvJwH597PtOWT2OYNMhdf4lY+hsReLSuOhfqLqDYsQvlSkgY4FjhHDh8hRJY4APim1rptNn0prfVhwOX4OXuqZQHVPiywmmQG/kweoLBcQOGXptk9CxjgU6uuB54100xDYN4mTLq6cpWzw96Jw7NIJSTn7azfwX9XPc/9s3/CUx88ztpda1DeP+JL5mAZn1xnp2fDl4l0VeuxvO/T5jrgcLkerDvJYSSE+NzjZ3gNxe1Sky3hIwJcA5zs42YdIsw8vaJL2p9HjTHLgTj+vIDva3dy6qdtO1Tn406969fkBa8CC3x/rviqPzDpCqmE5Lp6p44569/i9wt+yz/e/zNLNi+WcR77Nt9bZPCVyTdUZsWCepX/iDveRcqvNyTn4WTPzVoIkfN6ABOKR2RJ91LF6cAN+NstbguKd/5XPe3Xd5yMP12Pu8FuYx/rKMK/XgA7gfJMTH3fpANn0tWVq5ztVgam55jGcR6PL/4Xv1/wO95YM4NdDbtknMe+zcUyljxeybpvFmUWsMmnrXXEMlYXy1gQIcRuj4Thdq6tZlzYB6TrEt0Ty3eAPj5vejbuYGl/WBYBL/u0rbN0qW4ccH4G0N+nb/kuUZ7PxHHU5OQ66crKVc5We6dUQrKfxbK+eh0VK6bw0PwHmbq8nC21myV4fLV5eIsMlpXEbNZ9uySrgFk+bvF04IbiETpPDi0hRBbIA76Jv7NGpTZ8FOtCHG7H39W5G73dI1aw1q+NGWN2Ac8BfizMdwJJjtLFugB30gI/FnW0wESV70uVp+UBBLxKyLZPKyENci3JPtUN1bzy8Yv8Ys7PeHzxP1m1Y6WM82iauVjGNaywr2brFzTGbMJ9G+RXFbQQy1hbQ/HVdogcYUKIbHix0xX4iS7R54YufGidh+Vq4GYg3+fNbwReeVxN83eritdwXy6mW0csF2A5FXdqXj8sIkpVfIrJyHnV7L57k676dGB6GVIJyRr1Tj1zN8zhofkP8rf3/syyLUtJOg0SPJoePu4sGxqbPuW2Spvl3/UVYLWP2+uJ5d51pfUnZ1tDXnCIRpfobrpEy8rvQuSWvlh+VzxUnx6i8BHBfTN/L9A5Ax9hEf5W4AEwcfMJUIk/L97OB64AevoUrv4b6aQWZeqYatHgoUlXfK4SImNCQsyxjjvO44N/8qd3HuHNtTPZWb9DVjBvuvlYxpcNjb2UE9+2gHdx++H66USS/EprPTCbmjJyBEU4/BWH32ktY12EaNIjU7awHGfr+a0erM+88Cwd6O+ltY564eNB/FsY74umFX49siVD254MfOzDdo4GrsKfgf0bgIlVT8Uz1pupxV9y0lWVq+yuT1dMl0pICG2q3cS0FZP43fxfUbF8Cuur1xKR7lbNMRcYj2J6rnxhM83UAGX4s0DT7s4BHtZaHx/2NiwepSO6RJ8F/BkY7t1wfqG1PlhOKSFyiOVUkvxZtWWo1sEc66a1bgNcCzwEHJKhj7EKeHHqd6sy08NAkQBfBmq3Afyafv5VFHMyeWy1KmWVXxZb5Wyxd3vdsaQSEhLVDbuY8cl0fjP3AR5b9A9Wb1+JtY4Ej+aZD4wrGxJ7pWxILNe++6v4s0DT528B7hz6f9XF+kJ9oQ7lypda6852J9/C4V+45XaFO9jwauBBrfVBcmoJsY9H9uxzFPBH4Lbi4bpjkD5Y8Wi9P3AX8Csgk9eml1QB72Rq4yZudqGYBmzLkmNuJ/CsqTLbM/khWn0Tn/SNypUNW5N35am8yXmRPAkhAVbn1PH+5nf5y3t/5A/vPMR7G9/BsQ5KVjFvrjnAOOC1XPzyHe/J+whFOVCfgc2fhOWvKL6ltd4vLG1Wcoku1FqfC/wN+AVw2B4C1kVeCDlETjEhcsqBwM9sDY9orY/1xltkjNZaaa1Psjv5I/A9YP8MfpytQHl8mqnOcPSdjj+D0f16hsn4UgEpOcinXB3/sKE2+e2GhoZJSHeswLFYPt65mscW/YPfzP0lL6/+76freYhmmw9MKBsSezUHKx8APHdBDNxuWMsy9BH6eA/xf9TF+pSSq4oDO01vycW6QJfqE51t/Ap4AhgNtN/LH48ClyDdsYTYm2wu03fAXVn8CRS3aK27ZSh89AAmAP/BcinQNsPtMp08Xsj0zjHGbACmEv7ePg3AZGPMJ5n+ICm7cZeNqlg6elrpd3BQRBiBP3MYi68IHuur1/H2ulmYjyr5aPsK7wouXa1a8dZgAjla+fjcU0A7EnYXT2L5Ef6uhNuoPXAllkHOevuY1vopYIkxJhA3B611F+B4ZxuXAkNwB2425ZoYAS4GCrTWdxtjEnLaCZFTAWsgll8DF2mt/4bb5XW1MembKlVrDdALuAC4HncNpjYBaI8dRHnMxDLbVehTUWIkGUPmxsKkwnIiTA3CB0npm8OyobGlI/85+O5IV+WoiBoNRCxWLikZUJOsYfa6WUxbMZllWxPUJ+tkZqvWmQ/cXjYkNl2aAuLlxtEl+kkso4FjM/hRDgd+hNt9aYou0c+pfBbWzbHVL632b3FXrbXybtiHoCjBcgEwCHfO/+bf5twZZ5Ja63uMMcvliBMCyJ0eFm1wx7wNwp11cIrWOgYsB2pSEUa01ooIhSqPPraOUmAocBrQLkDt8F9sZlbp3qMkCdwpeW8J8bE1FYdA3FNSGkBGV5RSNiS2bMR/iu9us3/bPIfksKSTlEqIn+eHTfLBlkXEPpzKOxvms612K0opCR+t4852JZWPzzFV5gOt9d9xu0MVZvCjKNzpC4/E4Xpbyyv5A1WVHqjnAx94q9mmI3REvIDR3wth5wKDsPQCClLwnUYDeVrrO40xy+SIE4Jc6zfcDjjLCyJjgZnAS1rrd4EPgbXGmCaPxfOm0+0KHEaUo0hyvq3jDNwxKPkB++6bUPyfqTKbA3PPM6ZWaz0Vt6ts1xAeT58AU5tzzIQmgDT2iZ98VXzFqImld6lCHCKMzMGLhu8c67CxZgPPr6zipVUvsKF6vQSP1JiHVD725Wnct/XnBuCzRIHewOW43Zg+BN7XWi8A3gI+wJ37vAaoBRqMMc5X3LAbr5MFWNqoQjraBg7B4WjgRKAvcATQIw3XuQgwAlBeJeQDOdyEyEn5uGPf+ngPv2uBFcBKrfWH3n9eg7taeLV3fYsCHYH9vOvTgUA/73ccTpLeBLur/CSVR+DW11IFzLR1vBOQe15zzSADizn6EkB2V35xLDF6Sul3cLBeCJFKSJpsr9/GjE9eo/LDaaza8RFJJykDzFMXPsYilY+9Msas0Vo/DBxDsN4I5QFF3s8Q76a8A/cN0DLceeU36mK9FssO3IGF9bhdPCJAAYp2WLoA3YCDUBxq6+jj3dDb0voqR5Pud7hdI/J0iR5vqmRMiBA5LuK9aOmN22XKeteuetwBxta7jinvJ4Jboc4nPC+DFwO/j1dkeOarPYhPM5u11uW4lakwPddWo3jSxNPTIyBQAQSgbHhsych/Dr4n0lVZFVWjsTImJJVqkjXMXT+b51dWsnjTQqobqlFKSfhIXfiYUDYkJuHjq1UC/8btphbEgy+CO2i9PdATOP7T/8e9HDleAGm8eSsgH0tQZteKAoNxcHSxvsfEzSI55ESOklk29/ySogB/Xoj4oRb4E8Ge8vYFIIHb/TYs3sIG62Vq2h8WJl1XuSy53bknP5I/VSkl64Sk4gpsHRZufp9/LPwLv5//G+aum011slq6W6XOfGBs2ZDYK9IUX80YUwM8gtvNKYwiuG8H2+L2uW4L5AXwMw7D8hutdT856kSOkrdr2W8K8M90zvqVAn6tjJ4q9cAUY8zanDuZ/3XF2OU1W2rucBxnMvIGo8Ua1/N4LvE0v5v3S57/qJKaZA0RFZGpdVNHBpy3LIQsB34GfCytkVbFwO+01gOkKYQQWWY+8HNjzJaA3+9qUUwG1oekXT8AKoL2oXx5y9dZDQFYNmpS6bdVlAIiDJXzrHl2Nuxk+scvU/XhNFZtX+mtYC6hI8UWAONlwHnLqP2otNv4DfBzMjsrVjaLAKUAWusJxpgl0iRCiCywHsX9Jm7mh+JC3JE3nG0sAM4PwceN4Y6rCdzNzDflI2NLne12Ag5GzrWmqU3W8ubamTw45z7+tfCvfLhtBRYr4SP15gLjAAkfLRSfaJLA34B/4Y6nEOlTAjyqtT5amkLkEOlBkZ3cbryWSWH5wFUTzXbgGdzuTcEOdhEmBbFLm+/9KSddWZlwttrbcJgqF5O9s1iWbl3CX977I39652HmrZ9DbbJWBpinxwLcAeevNE4lLVrGK53fC1RJa6T92n0h8DtdIiFE5NRxL7IvVP4DeMQYUxuyz/4yAawsfI7iBVXAAjmZG0PI1ZVLbZK7sRjc2WdE45loHVbvXM3EpU/xy9k/48VVhq11W2WcR/rMxZ1qVyofqQshq1HcA7wCMu1dmn0dh2t0iS6QphAiEDbjDlIWXy0JPEM+9wV93Mcen+07shT4b4A/4hYUE+NTzA4JILspHxlbbKsZgw30zvPVtrqtvLT6BR6cex9Pf/AfdzFB7x+RFvNxFxl8tWxITB6UUxlC4mYhUcYCr0trpNUrRHjcVJk6aQohAuF94H5gizTFPlncKdy/ayrMqjB+gfhzxgEm4y5wG0QLcHg1qO2X0XJm+SWxRHK1HYsN3uj89Efnz/5jnVPH3PWzeWj+g/z1vT/x4dZlMs4j/RorH69KU6QphFSad1QhE1C8hlRCUi0JVBLhNlNlFkhziBwRhm7bK4GngL8gY+H2tR8rgDuMMStC/l1mAW8E8h6hmGiMCWo4ynx/ysk3V35ga7kLhym58JCiAMdakk4Sxzqs3PERf33/T/xu/q+Yv2EutckalIzzSLfGysd0qXyk18gp3WarPG7FXbhJxnylRi3wOHCrqTILpTlEDgnDzXGd6sBOIvwW9w2/+LwGYBJwezbM4meM2YniuQCGzYWoYE/4FIiTufyi2CKb5Ns0YLL9jYEFIirC+up1lC17hl/M/ikvfFTF9rptWGulu1X6zcOtfMgigz74lnqCeIV5hyi34r4VlDeCrbMRt3tHNrw5FCIbb/Er42UGU2U+Ab5LMN+OZ0ot8FdgnDFmaRbt9ekQqIHeFqiMHM4HEkCaEkJGxhY5O+04b0xI1r6Vbgwff3z3YZ5c/Bgf71wt4zz8OyXfJ8kEr/Ih7eEjU2mWAncADwNbpUVadEOZh+JWFL8wxmySJhEicBwUn45nMMa8B9wTsIfTTFmP+/Lke8aY1Vn23ZbhrowelGfXT4Dyqj8EejX5YJUzJ11Z+YHdbm8li6fwVCi2121j2ZbEp/9d+HZr2GZ3sVEaIkMhxJi1wA9QjAeWSos02U7gCeBaLM+auKmRJhE5exUP+ueLsvYL173puC9fcrm75PvAOAq53xizOQvvbZYIkwjOyuj/BeYEvd0C15+y/IrKZc5aewdJpmbz2SgDzDMgyiDVkd+PmlIq6yZk7kJdjeUx4HpgCm5JXuz9Yet94HZgjDFmQRAXkxIil59ZvmALDXuc/epFYAzwdo7tr2rgWeAa4BkzNYtn63N4h2BM578DRVkY1lQJ5Mk86YbKRVjuweEFud6KFDtHWR4Z9ayEkAyGEMcY8xpRbgB+jFu+Fp+3DngUxaXGmL+EcY58IXLQBmDHHq551hjzInATbg+PXJiQIwH8QBVwizFmtjEmq7+zMWYnUIa7qnvmKGapPGbK24RWKBsRW4RiLFZCiEixPM5V7fj96IrSY6QxMnjBrjQbUfyaCJcB/wZkXIM7PqYMuAq428TNe9IkQnwq6BXADbhdJvf2kDpfFXITikfJ3rFwG4B/E+Xy6EHq4fi0HBqv5k45n8nxPrXAxHiFWSsBpLUhZGhska1mDPCSXHdFip0DEkIyHkLipt5UmbeBb+G+HazELdvnmh3AFBQ3qDZcZ4x5IQwldCHE56xjDxWQ3cWnmtWqDd8FJgDvkj2T7lQDMRT/g+JWU2nervx7PKdmPTRx8xFgyFyFaxk2PFM/B35O7fJLYovtdnuzrJgu0uBs4BEJIQG4cBuzCygHrt4tiGzJ8q9tgY+Ap1BcRpTrTNyUxaeY7XJECLFHQR88uYH8vVdAPg0hk81O8vgXiitxFyxcH+J9sg130PMtwDVYyk3c7MzhY7QcWJuxbeexMiwNlReKvXl55ZKRTw4eF2mnHiGP8+QaLFKosRJyW9mQ2LvSHBkNIeB2w3pCa10BfB24BDgf6E44FiFrihpgMTCNCDEcZpu4VDuEyAKbTIVJNul6FzMWeEdrPR6YCnzTu+Z1DMH3dHDXJHoJmAi8FOQVt32OyIuxvIjbjdZPHxFhqok17fgLgtDc0CddUfk+EcbIwHSRBmcj3bGCFka2GmMmEeV/iFAK/Bx3Qa8tIf1K9V7oeMJ70BgC/NhUmRk53NVKpgLcd9tI+4TreKsDPm7Bta4GmIY7U9S1wHPAmoC24XbvOvxrFMNVO75pjHlWwsdnogepaiJ8lIGj+5VINzU3TG2VF6YPWzYstnDUc6VjVSGPoqQSIlLKrYRMKx1bNjQmi0YFJYhUmp3AHK31PODPwHHevjoPOBz3bWF+AD+6g9sXfA0wA8XLWGZTyAdBnopSFWJtLTtw326ms/92BNiACs9sQKoAbB07cbvLOD60TVj6z1vcAdUbgHS+fVXA5lYcM9tJX9cY5Z3vH7fkL3vV361Audb6eRQnYhkCaKAI6JChQNrgtdsK4CUUrxHlrWgP9XHlP+O5MJNXsyVX2l7AhT5vdgeWZ6sej4fqZVZe2HZu+UWxRaOeGnyL6qj+jFuuFCJVzsZyY/EIfUd8cnjKmDkRRNwpHFcDq7XWBugMHAGcCZwA9Pdu1Ptl8GNuBz7EXWTxHWAmMA/YjKXGe8gItLZXRe2ufyd/TwNPkN7BsUoVUq06qNDMkDNkag9bMWzdY7aOeNrbpoBa1YFQrBat2lNtq/k5Do/4cMzsUp3Vthb95Q780e7k6TR9QoUiSV7LAsgXrnU7gFf1BXqmasevbR2n4nCe9/KlP9Arzc9u64HluNOjzwdmEGFRpJPaUvV0PHvX8WilYQ+UMPU7VeB2GfZ7mv83vftNqIS2xDvyX4OPinRRjxCVSohImZk4jCsbFntbmiI8tNZtgIOAPsBhwFHeDeAQ3DeH7YA2QAEQbcWmHNxpDmtxZ3zZ4QWO972fJbhvQFd5DxFCCNFqpb/SNLxAdyyHojgUy0CgH9AX6OFd3wq9YBLFrQrv/nxncatTDbjdQRtwu4xV41ZplwHLiPABsBJYTZI15nlTLa3fdMUj9H62mn8Co3zcbB0wzhjzZwkgPho9pfQoFA8R4QI59EUrzcAypmxobK40RegDSR6KApVPG1tHby+Y9Aa6At2ATkB776cdbpeXPD4bE9fg3azrge0odgHbsGwEPsHtavKhymcVeVRjqXO2Uv/8K0YaXwiR/gfdITqiOqo2ttrmYelka+gJ9AQ6omiHZT8+P8Y3iTv5xTYU27BsI8JG1Yb1die7gIZIT1Xf8TtR++zRMSst3MJ7T7G+EMsT3n3GL/NRjDJxs1wCiM9GTS49UkV5BMX5cviLFrC4g+rGlA2JzZHmyImAonCrIYXev5UXQNRuN2vH+3d19FBVX/l/uTWfvRBCiGaFjwIsvwVu9fn55ed55/DD2PfD9wIsK2bZGPV06RGqA38CzpXTQDSTVD6EEEII0fIAovVAoAK3669f1gClxphQPr9kxbz6u55rWIzDOGTFdNG8NwczcBgv4UMIIYQQrXAR7lhEP1UQYXFYGywrAkj8GcO6YdXvkmQC8LKcB6IJ3sAyRgacCyGEEKKldKk+GCihdZOcNNdmFFNMldklASTDOv+owO58puEdkoxHKiFi32bgME4qH0IIIYRolSTnAif5vNU5RHklzM2WNQFk2r1x8vso3h++eQGOVELEXr2Bw1ipfAghhBCiNbTW7bFcijuhiV8agCdNzGyVABKUEHJf3BbdtR/VZQ3vemNCUhlC6kjfKqrCHzO88CGzXQkhhBCitc4ETvN5mwuAF8PecNFsOxKWzEiwdF7C9qk/bEPBsZG5RBgAHNrKX1uL5S+2gUdVlL5KqQPknAudN0gytmx4bLY0hRBCCCFaQ2tdCNwBnOXjZh3gb8DkRCIR6jVbItl6YBSeFnE2XV+7wBsT8nIrflU98Gdbx49XjFxfnpfMn5AfKZCxA2FiecvuYryEDyGEEEKkRB5Hgu8LYa9EMdkY44S9+bI2gEy5s4r2/5Nntz1Q/443O1ZLBqbXAn+ytfxs67frNs3lLbvuR9tn1NbVTgCkG084vEmSceWXxGZJUwghhBCitUou04okpcDhPm/6RfJ5JxvaMJLNB0jF/XHanB+1G4bXLMBhPDRrxoA64P9sNfeWj56xvsOYPLfUtVI5u/7RMB3LWEAqIUFmmWl3Mr5sROwNaQwhhBBCpIKzmV5YLvJ5s1uBp800UycBJASm/bSKV3nR1r6afK8ZA9PrcLtd/bT84tiGYb8YxJTxVQC8vPG/xMuNRTEDGANIt54gRg+YY+u4s/zS2JsjHyiVFhFCCCFEqpQCA3ze5nQUWTODp8qFo2TYAyXknxBhZfEODp7S4ViiPAyc8xXh48flo2Kbvup3j64oPQ34A3C8nI+ZlxfJw3GcN5J1ybHloyplql0hhBBCpIzWugvwT2C4j5utQTHBxM2fs6UdI7lwsEz9ThVlxTF6/rAtu55reMfW77USUmfr+EPDcvu/TQkfnjeA25BKSCA4jvOWqoncKeFDCCGEECmXxynA133e6gcoYtnUjCoXj53+nK6Ontz5WPJ4iM8qIXUk+T2Wn5aNiG1p7u8cXVF6OvAoUgnJpFm2zo4vH1UpYz6EEEIIkVKDby7OT66wj2L5ps+b/jHw02yY/apRJBcPoA+YYTffXfeOrf10it46HB4lys9aEj48M4FbkUpIJljgbVvL7RI+hBBCCJEOyRX2aCzn+7zZZcC0bAofkKMVkN2NKis9kQgnOZ/YZyZ/q7LVy9qPrig9A3gEOEFOVd/ix5u2lrHlF8XeksYQQgghRKpprRXwfeAn+PsC/6/AbcZkx+xXjfJy+WA6na+z9Qd1c7fb+rk7F9anakXJ13HHhPweOFFO2bSHj7dsNePLL5HwIYQQQoj0UPkcbOsZ4XP42ILiGRPPrvCR8wFkBi/B+6R0KfuyITGAmaMrSscBD0sISdOFQCmstbNsA+PLL4m9KS0ihBBCiHSxSS4EjvV5s68TISsXUo7IIZUeZUNir+OuEyKLFaYhfOSrgjfsLsaXj5RFBoUQQgiRPlrrjjiMBgp83Gwt8JypNFuzsU0lgKTXTGAsMEeaImWstXZu7Y6aO8ovSUj4EEIIIUS6nQGc6vM23wFeytYGVXJMpZ8sVpjK+MFs28C3ykfKmA8hhBBCpJfWui3u5EI3+rhZB/iJMebebG1XqYD4YyZudyyZorc10cPyJg5jJHwIIYQQwg+qgH7AYJ83u4ooZdncrhJAfFA2JNY4JmQcME9apEXx4027i/HvD98q3a6EEEIIkXY32OHK1jMS6OnzpitJslQCiEiVmbhT9EolpDnRA2bbOu4svzT2Zv/fdZQWEUIIIUTarSqp6YNlCBD1cbPrgCnGmBoJICIlyobEbNmQ2AxgPFIJ+Up5kTyiKjrLqbXfKh8dmwEwZUKVNIwQQggh0s9yHnCcz1t9A3gt25tWAkhmzMCthMjsWPvgOM5b7FJ3TBpdKWM+hBBCCOGb4uG6M3AFUOjjZutQTDTGbJMAIlJut0qIjAnZu7eS9cnxz148ZYY0hRBCCCH8ZOs4Df+n3l1ANHun3pUAEhyvA7cilZAvhQ9by4TykZUzpSmEEEII4afiEboNDpcBnXzcbJIIz3X5e/5qCSAirbzZsWbijgmRFdMBLLNsDWMax3wIIYQQQvj6KFLNQOBsnze7HIg93avCSgARfgWR13DHhOR2CLG8basZV35RbJYcFUIIIYTwm9Y6AgwDDvN508/j8H6utLMEkOCYiTsmJOe6Y0VUBGAWScaVXxJ7Uw4FIYQQQmSCasMBwMU+b3Yz8KwxpkECiPCV1x3rNWAsOTQwXaHIU/lv2l2MLxsRkzEfQgghhMgYW8tQoMjnzb6Eyq1eMBJAgmcGMIbcqIRYi51bs7PmjvJLYrLCuRBCCCEyRhfrblhGAG183OwOYIqJmy0SQETGeJWQ13ErIfOzO34w19Zx86SLK2XAuRBCCCEy/VxyKjDI562+B+TcKssSQIJrJtm7WKHF8iYOY8pHxWSRQSGEEEJklNa6ELgM6OzjZh1gYqQTayWAiEDwFit8nWxcrNAyy+5i/Orhu6TblRBCCCGC4BjgXJ+3uZwIpupZk3ONLQEk+GaQPZUQC8y2ddxZfmnszV5/amtl9wohhBAikwbfWBxBMQI42NcNK2LRHmphLra5ksMuHEZXlJ4JPAIcH8bPH43kgWVWfXX9mEkXVUq3KyGEEEIEgtb6cKAcONbHza4HLjbGvJqLbS4VkPAI9WKFjpN82+7idgkfQgghhAhaBgGOysBz3excbXCpgISMVwl5GDghRB/7bVvPuPKRss6HEEIIIQKUPLTeH3gOf8d/VAPXG2OeztV2z5NDL1zKhsReG11ROgZ4lHB0x3rL1nJ7+WgJH0IIIYQImCg9SLIUdzVyP8amRoDlKKbncrNLAAmnGbjrhAS7EmKZZWsZV35R7E3ZZUIIIYQI3INwf7UkucKOsbvwr19QHk7kIBpyud2lC1aIja4oPR34A3BcAMPHbFvNbeWXSPgQQgghhBCfkUHo4TYDGEOApuiNqIgFZuEwVsKHEEIIIYT4IqmAZIHRFaVn4I4JyXglpCBSOKtuR934sksqZJFBIYQQQgjxJVIByQ5BWKzQAnNqdtbcIeFDCCGEEELsjVRAskhGKyGWebaem8tHxWbJnhBCCCGEEHsjFZDskplKiOVNHG6V8CGEEEIIIb6KVECykLdY4SP4sU6I5S27i3EfX7rrzTd52UrrCyGEEEKIfZEKSHZ6DbcSMjfN23nb1nF7+aWxN3o/1lbChxBCCCGE+EpSAcliaa2EWBbYOm4uHx2TAedCCCGEEKLJpAKS3RorIfNSHD7m2xrGSPgQQgghhBASQMSnyobEwB2YPhZITViwvGNrGVd+cWy6tLAQQgghhGgu6YKVI0ZXlJ4OPAyc2OL97lY+xkr4EEIIIYQQLSUVkNwxExhHS6fotbxj66TyIYQQQgghWkcqIDlmdEXpabiVkJObET4W2BrGSPgQQgghhBCtJRWQ3PMGMAG3ItK08FEn3a6EEEIIIURqSAUkR3lT9P4WOGmvx4FUPoQQQgghRIpJBSR3vc6+xoRYFshsV0IIIYQQItWkApLjPpsdS52kAIt1B5zXcJuEDyGEEEIIkWpSAREzLXZcXiT6RiQSBcs8WyvdroQQQgghRHpIBUQAMLqi9EJggq3hd+UXxZ6XFhFCCCGEEOnw/x5JklkyVG5qAAAAJXRFWHRkYXRlOmNyZWF0ZQAyMDE4LTExLTIwVDE1OjI0OjIyKzAwOjAwoZ4PnAAAACV0RVh0ZGF0ZTptb2RpZnkAMjAxOC0xMS0yMFQxNToyNDoyMiswMDowMNDDtyAAAAAASUVORK5CYII=;" vertex="1" parent="1">
                    <mxGeometry x="80" y="365" width="229.5" height="70" as="geometry"/>
                </mxCell>
                <mxCell id="3" value="pi-hole" style="shape=image;verticalLabelPosition=bottom;labelBackgroundColor=default;verticalAlign=top;aspect=fixed;imageAspect=0;image=data:image/png,iVBORw0KGgoAAAANSUhEUgAAAK4AAAEACAYAAAAqbU3EAAAABGdBTUEAALGPC/xhBQAAACBjSFJNAAB6JgAAgIQAAPoAAACA6AAAdTAAAOpgAAA6mAAAF3CculE8AAAAB3RJTUUH5gwGBRshD8b5zQAAAAZiS0dEAAAAAAAA+UO7fwAALD9JREFUeNrtnQl8VNW9x//nzr5lkrghLgiKu0XUYvtardVWW7faVmuf9tW+urTP2moX22drW7q+WlsXFLKwI7uKGNaI7DsESAiQBUhIgLAECNnIMpO573fm3gmTkHUyy517z+Hzc/qpAjPnfvOf3++sRJ1a+sfpXK+m56TL6Qughely2sI0roa0RWn70xanrYfmeZd6x6UuTf2dN9f7Q+h+7yfekd5l3mugodBl3k+9F3mWe7zuVW4LiSZarFvax2mUlpP2XBDaBQq06YvwugjwLla1BFqqKldR6iepMoCtg/ZCGwFujne59x3vCu+P8fo1vN7mWekZYl9rd1ABMdHTokUX3JwguN8MgdtecTuDq8Kbmpuq6BNVy6BPVS0HzMu9MqA9AW3zrvTOS1mZ8u+UVSk/9azyfN2z2jMEEJtEr4s24OZY5KDUBalf6A3c1CWp/QFX0UpFALc+ZXVKKbTcs8bzL/da90PWNVav6H3RIm+5wap7E+TvbBXSF6f3aBWC0IaBy6FNXZEahDb4qoLrXRWEVwa4csqalCboiGetZ2fK2pQ3U9al3OdZ5xEQixaRXRgOVZ1TcRd1UXGXnltx4XG7r7gqtN7V3hC4MoBVtC5FBrSBlPUpNdCHng2e+9wb3IPcG9028VRE67Wl56QPhXb3N5z1VHHDrUKninsOvIBW9qz3cPkA7lKA+z/QSNdml4v2iucjWvcjC5ei4q6LYjg7B9wOFXdNGLQquEF4NwDejUE1QVvcm9z/cG923+ve7raLpyRaV1ZhEJQTw3DWX3AVbfK0At5iz2bPGNcm1whaKYbVROtoFdIB7YRYh7MgvD1YhZQNneDdBG32yKi6zZ4tnl14/blriytVPDHRlIq7IM0BaP83QeFMqbjh0G44Cy4qbghe2b3FHYAKXVtd/+nKc13gKHSIMWFDN3wFA9b/BLi+RIazHiouh1bRVrcMaH3QB85tzvshMZRmaLuwIP1e6IhGwtlZcEPwhoEbVJ474NrmKoP+5Mh3XEFFwv8a1S58FtqusXB21iqcC67s3obqu81V69ruWuja4fq8eIrGDGhXoeIu1mg4kxHOzoKbdxbcILzbXX6Au9ex3fE4ySSJp2msipsGZWs8nHWouPC5Crzbg/DKgLfeucP5rmun63LnTqcA2CABzQRg/wT5tR7Ouqi4snuHm4Mru/Jdrc585/vwvbdCYtTBIFX3RwD3VJKEs3ZwwyouB1cGuG3OAucKVN67xVM1QEtdkHovoC2JQjhrho7EI5x1BW5QBQC4AMZhp/MB8WR13rw53iGAdlUUwllryvKULSkrUvLjFM7CrUI7uKi4AYC7x1XoelQ8XX2DSwA3G/JFIZz5oFX4tQXQtsQpnJ2FV6m4HF4Z8B5xFDp+4tjjcIqnrF+78Bwqbk0Uw9mmlJUp29RdEPEIZ+EVl0MrOwuDOgz9EABbxVPWI7gLU0ei4lZGOZzlA9zFALcqHuGsHdwQvIUqvLucFY7dju+Kp6zD5lnkcQDcvCjPnAVgFbYB3IWA9nAcw1lncLlK7Lvtd4gnrcOWvjB9TAxmzvwAtxjQzoYOximchVsFBdzdzjZolbPYebV40nqzC4tS74vhzNkuzxrP3wBtEaANxCmchVdcDq8fVfcjW5FtCFUZ8AHLxKiNbOQjJwUgOSgHZE7u0YWFXjegPRHDmbMSz9ogvFsBry9O4SwEbVCOPY5G+x77X23FNq+OAbXQGbqUNbObqZnuoBa6n7WyR6BHyU+/ALivAuBXWYC9CoB/Cz0DPYjfNzgpPy88Ll+fOznGM2eHAe/bqLifANyWOIWzdngBLlelvcj+qLXIatZLJZVapPOlM9LtrIk9KTVLf4TmQJtZCyuH6gFtgPmYHJRfVRuTAawimU5D30rKz4/8T6mLUx8CtP5YLmsEtBXute638PoxwG2OUzgLB1cGuHn2EvuwJIbVRI10tdQgPQUs35QapYUAdzt0VGqS/ABYBrgyoFXUqqozuG3t4NZBSTphs5I4uMMAbX6MlzW2AdoD0B/c690fwiq0xiGcKdqjyFHkaHMUOyYm3TOqJzOrY3dI9dJ7gLYYqjY1mpoBrgxoZUCrqFlVC9QqnYXW1xFa1OEQuPXQY8k8nst97l8BbiAOyxpPANhfQJkAtiEO4Ux27FYqLsDlakTl/T6k7dVktWQxnTZdxE6zb5pqTStNdSafqd4UALyyqcEkA165HVwV3t4qLrxu54rbCH0n2UcXvg5wj8dpWWMtqu7PAO3rgPZ4rMNZWMWVncVObhkK7MX2kRqtrkyqlQYD2iegZYC22VxnlgGuDHCD4tCi4p4DboeK29JFxfWfU3GboMeTHdxrAG5uHJc1VkMvuTe6RwPcg3EIZ6GKK8MuNDlKHGMdpY50TT2ERnKYakyPANgZ5tPmarzKAFeBNgzcYMVtlLoFt0PF7Tmc6aDiLky1A9w/AdqmOO45K4deBrC/gapiHc7CwOWqRFB7jMo1cBQqQpf5lPmzppOmd02nTGXmGlRYDm0I3NouwI3AKnQRzqqhh5N/MmJJ6p0Ad1cc95wFVHifB7QvAdraGIezoFUIglviCEA50BUJ7fQackqnpGcB7i6omUMb1GlFHNperUKE4Qz/zz6Am/wL8L1LvAxV9x0A3BLnPWfVqLhPA96nAW814A3EMJyFwA3Cay+1P+PY6zAnoMqS6YTpMvMJ8zjzSbMfkgGujIor91RxoxrOArQV//ysLsa1UXG/CGAPJmDP2XHXZteT0GOAdhfUFuOKq6jUsdW+zz44zlXWZK42jwS0CyE5CK0KbkQVN/Jwthy6Xhfgehd6rai8cxK05+yAc7Pzm4D3625+fuPWMHijG87CwZXte+1Px62Dq8kCaO+F1kNt3YHboeLGLpzNgy7XzbR3ytKUOxN0IEgANmEHwH0IwH4V2gEFYhLOwsEttefTAXLHvGOPk9V03PSI+bh5m6Xa4gO4cmdwe7MKUQ1nAcrAP926Ade91G2DXViboANB/LzaAt67Aeyd0IEYWwUZHrfRVmqL7aLzo2QyHTM9DGj3Wo5b2ji0lhMWOWZWofdwxofCfhNcPaYbcJe5mTfX+wDgbUzQgSA8nG13bXF9ybXNdQvALUY488cgnIUqLg9pKy37LbEZ1z1BZsD6uPmYuRavclDVgDaCihvFcFaO10dIbw3AngdNgPwJPBBkC+D9vDPP+VkAvArgtsSo4nKfW+XY53gi6h15iiywBw9ZjlqO4ZccAjfmFbf3cJYHfG/UHbgIaRIq7j0AtzjBB4KsBrgjHNsdHN7FALcl2uFMhddn32efZN1njd5h0lUkocreB+0CtIFwcLuruCF4YxzO+K/FuvK3HeDN9XoA7j8AbVMCT2tsg1X42JHnuAnw3gp4l6kH30UznClVd599N3RXtPrPetQ6EpV2OeQLQtsHcOMUzpqgv5OeG4C9GcpL8GmNLbAJs53bnFfat9uvBbgbYmAVOLit0Cu2MtuAL1AxHzEPshyxTAC8LQBXth6zynG1Cj2Hs2OouHfqG9xlqcz7ifcngLcmwac1tqHaTkHVvdS6zTrYud25FvD6ohTOQhWXawU0fCB9BlDt0MsA18ehba+2Uai4UQpna4OL0vXe7MvsKQA2RwOnNXJ/+w/bNlsqr7zOHc7FALc5ihWXq8623/Z18z5zxEeXmqvMX7IesZ6EZFRcOSEVt4dwBr1ARmkA91aAW5no0xoBbj30c2RiyZHvuNmZ7/wY4DZHIZyFwJUB7hvW/VZHRNW2ypIOLefQouIGoe1QdRMfzmphE4YaBlzAyryfen8CNSbqKP2wcdwqWIXHaDfg3en4DGzCIsgXhXAWUql9v/28CBbOMED7MtQUKbixDmewCzNQcS3GqbhrvQRoLwC0WbEOZ33YARGAv81Htb0D8DL7TvtVsAlro2QVZEDrt5RZ+j26YDlkGWU9bC2wVlkDkKw1qwBo6wDtXXg11uUvsArcMtwIgJeh4rYl+Ch9Du9KVNoRjkKHZC20DsL/Xg14fQMMZxxc2VZmy+hP35iOmNIthy2TAKwPFVfuUHE1EM4AawDwTgS455NRG4D9BrQXlTaQ4KP0/ai6M+0F9iuoBJW30H4NwF0EcJsHWHG59lnL++ZzUWnN0HdRbQ9BcrDaaqziAtwq6Bu6WpvQ71GGXLsjZXnKi4D3lAaO0j+DSvs6KqqbikkCvCMB7gKA2xJpOFPBrUXV7dMia+B6CTQ7CO3hs9BGLZzVDjic+QDtVFTbi8noLWVlSgrgHQ14AwkIZ52nfGscBY7ngm9sP+Ddbb8F0C6D/BGFMwXcJoD7Ym/9YDtokwDt/dDJELjnWIXEh7NigHuPoattePMs96QB3EkJCGddLbKphNcdFYLXtst2PaDNi9gqlNn9eJ3dq004aHFbD1pnAVy5Q8XVjlVopFYaTT6yCWLPel0O7+CUFSkzAG1rnMNZ52WNAWizY6djONwco92AqtgyFMFsO+SPoOJyePOsFdYedwiYD5k/bztka2sHt6qLipvAcEYttAIWwSNo7co2rEi5HuAugJrjHM46r1Vohr+dBFAH8feFKssA7G3QBsjfz4rLVWYrt93X7Qc/RSZU3BmouLJGK+5RWIQvCEJ7hvc2gLsI4LbGM5x1sayxGnoR8LqCQbLIbga0d0ObgmeH9T2ccXBrAG63PheQ3ghoj6PingturMNZQ6/hrBYW4WXILOjsqeURA6wjUG2XJOies/Ap3yLoS3x8NxigimxWAPs1QLwbr4F+WAU/wH0X1qPLmSZrpfWPALe5M7gaCGet+DUO/vYCvg1etN6nPAngDoNWJSCchS+yaYNyAW5ae4gqsVjse+wPwCrU9MMqyPZy+3zbAdsl50BbZT3PVmlbZTtoC2jNKgDcXFTa68QoQn9GGlZ6yL3aPcSz2vM+oG1OwD1noSnfNscux+uwDO3VEuBKqLoPAtxT7fD2XHFlVNwt1gPWUZ1/QBHaHgO0hzi0HSpuYsNZGz/YmZrpP8gnoI0M4NWeqwDuJKg2ARU3ON0LaBugb3SolCVWs63Y9iTAPdCXimsrs1Vay6wdztcyV5rttgrbO6i4PsAra6jibsfrVwR9A2zute7LPGs9owHtkQTcc8YVALirEcw6LOMDtC5A+zx0uJdwxsFtQtV9lsrPVjBLheU6+NsVAFfm4GoknBVSE31VUBel5lrv8sAifBfw7k/APWd8yrfOvtv+B8c+R4ftOPYSezr0N0B7uherwPUHS7nFHmYTvg1wj3Jwz7EKiQlnBQD3YUgSxEWxWTZbzID2S9DqBN26U4DKe84eK3ux/XzA+15wh2/34YyDmwGfe566oMYFYP8MtYUqboKtwhZ2ht2LV3H9a0zGedenMPcGWIf1njGAtlo9YlSO01H6AeceZ7ajyHFB5/dlKjel2UptuYC3rYeKm2Mttw4JeuQK61AAuyQc2gSFswbWwGYC2iupkUSljbnvXe+2Q98DvOsBbWs8Km5wncIexynoEfuec+9+AKBDUXE39VBxt9oO2K6n40QIZbdDVUFwE1dxj6Li/h3AiqncuAO80X0TKnAm4K2K0z1nfJ3CAnuR/ZxL+ixlFsm2z3a3eq5CVxW3EroNocyEivsDgCuHgxvHcNaKirsR+hEkZsQS0jag0m2wpwPc7wPcjYDWF4ej9M8A3Pu7ejsA1QFon4YOdgFuM3QHoHVAGeHgxjGcnQCsb8Me3EYNJPxswsd7N3iszo3O6wDtnwBvdaxv3XEUO5Z2N6Nk229LAbB/h+rDrULQLlTYHgS0adDWzhU3DlZhJ6B9CBYhXcyGaaltInJtcpltW2yXAdhxrs2uKry2xugo/Tp7aTfHLPHj7StMKai6kwGvL6ziygD2WViFq/Dqawc3tuGsBdov1UqvIoyliQCm8ebId5hdW12jAO4EQFsCtUb5fFwfqm42VXR/kgs878WAdlOHinvA9nvrAesTeJVjXHH9UAmgfVeqk27AD5MANpmabZPNBXjvBsSvAdyNgLYhikfp59v22q7o8e8vQ1grs1e1V9xy61hA+3oQ2tiEM36BSTEqboapxnQPKqxdUJDEzbzLbAW4twDaZ13bXLOg4wA3MMDTGg/aS+w93hpuLbNaoVcAbUsQ3gO2edCCzuBGIZy1QttMJ02jAe7drIaliKeuJwuxzWFxbnMOcmx33O7c4fwzwC0dwGmNDQD39z3+hYdQdcttV0KL1LHcjfYD9pJoWgUAu8J0wvQ0dLV0UnJRtQhe+m3FRADX4sx3eqF7oPEAdy8q7mnA6+vHaY0Tpcqep0lhFRigfRjQHsCvI5CvQ8Xtezjjhzo3Bs8kP2bZYD5m/rXpuOlqgOsAtCbxUA3aXLtcgxw7Hf8FaCcB2lXQTkB7CDrTwy7fjywllkG9/dmwCymA9y1A22SvCIa0vlZcH8CtQsXdYT5qzkHFfcV0zHQrHRVbaUTr3AqIWQut6fZC+2cduxyPOwodv0O1HY9quyC4YbIIuBY5Tqh3+a6wFduu61NQLLfdwheUA9pAV+EM0PJdvjWAthTAbkDF/QDQvgZ9DxV2BCqsCFqi9aPtJWYuMXtsRbah9j32kYD2y6i43wK0zwHh79tKbX27UfI4mawHrP8NcDdbK6xroIXWSusMgJuBavs3QPsj6FHLIcvd5sPmkeYq8yV0SlRW0aId9PY5GGS177f32V+aK8wuwDsc0A6zHLBcZqm0DAK05wFUNyAVY62iiSaaaBE3mYhBbugC6HJoOHQ9NAK61Uc0qo1oZIDoxlqoguiGQqKrthFdNJsMdHCyaAkHlcsF3QR9C/o59E9oPPQhtAxaD+2AigDtfkBbiP+9qYVocx3RhlNEuYB4ciPRbw8RPbOZ0T3zic7PIjE+K1psoOWwvgRNgdZCh6A2SI5EADoAeOtPA/AaotkljF7LJbpvrKjEokUB1lTo29AsaA9UMxBYuxMqc1szUfMZovKjqMgbGf0WVuIS8QRE6w+sFugi6FkoH2qKBaw9VWI//s5DjA6vI3p9DaPLM0ksphGte2DN0BDov6Et8QK1JwFgPyzE4dVEv3ofoS+bxPm1onUMXOdBT0DzoXotQBtegRHozuwgWvcR0Y+zGV06QQQ50QDHVdBkNWzJWlUTAC4lOjyHaB6sgzjP1uDQfgnaCLVqGdow69B2GAFxBqOCTImefIPElLGRYOWTBl51DPYgFEgGaMMUqCE6gcpbmcXon6i+gzOEdTAEtIOh16C6JAO2A7wn8f4/huB53wO814oJDH2DezGUATUmMbQhtR0japjHqAGV931U3evEE9YntHw9QTbUogNoQ/LB856ayaglk1EO4L1BPGn9QZsJndERtKHhMt9eoiPjpSC8CwDv9eKJ68PTXgZNVGfAZD0K8LZ9isCWKZEf8C4FvDdDYv1vEkM7FJqQLMNdA1Ej0ekZjOoBr6zCe5sYbUjeIDbZCNCqC3X8xbAMEyTyqfB+AnBvFCQkn6fNMgq0ITXADuUyqguCq8C7UHje5IH2Qh0NefXb6+5n1PAeD2oKvD51tEEMlWnc016q7kZoMhq0IbUS1S/jY7uhqqsEtiWZIrBpFtorVGhbjQptSPC69VNCXvesbeCB7VYR2LQF7iB1yKvF6NCqK8lqP2DU2gFcBd5cMUmhvcmFVgHt2bUM6wEv7EKgC3jFJIUGoD0fGmfEINabThAdmiBR2zngSsFK/LEIbIkNYtl6nMaN1gjDzK4q7tnAxivvjSKwxQ9aUg/fyBb2oGetJTrdDbhcgQwF3hEisMVvnFZ42j6oguh4D+CG4OWTFNcIsmILLd/U+I4YPeibatFP2T2DG4J3HuC9WhAWG2jTobe1tgtXyzpDFJjJ4Gd7h5cHNr4JU1TeKAcxvmBmrBg96J9aiPxLGZ3sA7jB6WFUXj7acIMIbNEJYpepaw+EPej/rmDfJkZH+ghuyDbwtQ2fEYFt4OO0AtrIlzr6ChhV9QPc8NEG4XkH6GkFtJGP5fqLWa8jC93B+4GANzJo3xJBbMDy72d0KgJwuVoylN3DwwWRfQtig9QhLxHEogBuOQvuRZMjFF/PO5+vbRCBrecgxqdx3xX2IKrgHh8AuO2BDQDfJA4d6T6I8QUzzQK46J27UMbo0ADBDYkHtqsEqed62jdFpY26mvcx2h0lcPmSyDmZRFcKYjtCK4JY9HWmmNGGqIErUTPgnQV4h4kgJoJYLIfD6gsYLYoiuMr0MKO5gPfqTKMFNjWIXSIWzMR8AqJmNaOJUQY3ZBs+ArjXZxopsKFT09S1ByKIxVA+opOzGb0bE3D5InUWXJgzzCjQpqqX2olKG2M1ExVlSTQtRuCG4J2pe3jVk8A5tLUCrNirnmgq4FoZQ3CDM2zQrCw9wqsGMb4b999i9CB+4leuZvZvddhAAhsfKhuuG8+rBrGL1SEv4Wnjp1M5jO6PA7ThtuEDgHudLuBVPe1bRj4WKUEaP4nRy3EENzywDdUDtP8QlTbuaoDuD1bA+IIbGiqbPo5oSDIHsddEEEuIlh4luiaz/4vIozbDlsFoKuC9PNmCGF8w87oIYgmrtk9PJHoAAJ1JELih9bzTM4iu1Pw2oLAg9m/haRNzZhiU6ye6FuC8k9n5xMbE2Ia5/NyGcSKICfWgE9BPZxFdBmDyEg6tojZU3jmatQ2qp/0/EcQSt2gcWsBvzgS0jwGYwxoBN7QYfYrmAlsYtKcFQAnTSeirU4isAGWsJmxCRzVB72VoAd6wIPbPnu7G5ScHwnf5W+DBzsBG1BEdOUa0t4xoTwGjwjWMdi3AV9t0iT6eLdHUHEYZK2A58hDwKoheqyca00z0Af6MrfjzjqkjFfyUxjYBrLLTAfoNZAYYIwHIRo1BGx7Y3kPlHTYuUYFNDWKD1CDW2R4EAFkLgGsGoIG9jE6sZXR4DlJudgQeKZNvP+EHVTD66VxGdx0ieriN6CX8PfOgXWq1MSq0/PC/WZA9G+Cin15AnzVoFNyQbZgJcIePS6A9eKNzEENlrK1kdCaP0emFjE5N7vpw4YGoHA8nGx/+qemMRp0i+jz+3p9AM6DtSX4reiTQLoWu4d9+WYwu4QteNAxteGCbDXAvSwS0fw+vtI1ExwuI6nMZ1eIrvykr1lOLEtVA69ABb2Yp8PL3xF9/BE2HjhsgjC2HbodMfKwUffEV9MmRJAA3VHknxS2wqYD8LRTE+PVEhUTV8xjVT5S6uDAjDr4J2oVO+F22Yl3M6ljyF9WhuXIdQsu9/Uboc/zz8ueCPnBBb2V2fwq5FtWE5zY5pkNl8tmNjUFoedhCcDr8PqPG8dG3A5GmVr4x8H4A7NyoBEenenr509B6NdT5dWAPlqjXY7Xv+YJ9GgJVJxG04Uec8tGGK6J+bkM4tHwDXg2C1ypGxzTaEafxAP/V1TZqvP97oGlQkTo1mmyzYkfVsydSOn82fOY/JSG04TNsUwHu5VlRBtcK/Ra2oLoMCX4evp6ztN8R8/E6anKnnajqZ7kN+ov6dZsMR/LzLLEBeqZLaFFU8FlLkxpc5bindyYQuaMJ7jMc2nxGJ95L7MKN/g2jIbyhM+6fhvDSxWeyQbeo459rNXx7T426CP9WyNLV88mQ6HuqVZKTXPzcht+g6tqjAe3D0L5tjE5OPnu5cbKIHyOfh874yphu/JMKMB9O+g40V2PLMDep/X9ed89nPHx8hnJ2QpsOwJWDoyKMXniji2LTn1mxEQhha1Bpj49P3o7h73s7OuNzqEysh89rgjzQUOhFaJ06Jtyq+st4zYDxpaA71fdwqdzDoRujIVi2B/H5KnQCbWioswR6aFwkB47wxRqwB1MK8VU1SerTBRha12bAe20/Pr9F9cJ8ZjBPnWr2xQhWHrry1dPXvyz38avyXSIXn4zR4LqEaGgpwL12TH9GGtBxDh/RC/uIqmboqVNYcBv1eRH8EF8N/QAaAy2CCtQJjkgrMT9TogJao44SPAUNk/s5HASLcAc+V4EOoVXWNUj0V8jT56GvACxCFVHhh4mZUIjtZAWjV6apg/YRAGxRx4XvgB6HfqmCt0QdYutuSSevqNvUtRX/gl5QveuNvEhE8l5QjRx80kUnoaw7VWUxeqBPQ2SotOw00eSVjFqz9NkZfNjoviiNtpjUSwN5tRwJ3aUC+T3of6Bn+aZFdSr6RhX6FDkKh8UB2mvwOVbpGNqg8Dk3Q6wv4I7YC187Xr+dwcPa/KwYTTOqodakVmezHIPle1l8bQKjx6BWvYMbfF5ET8ztqUNQae3H8LU3Tf+d0QDL8MsMIlsy7qAGuN6EbT1PTDbZmk10frcdcoLooY1MU1s+YtkZW6ARWUkILt73DfgMpwwDrkQ1+Hb5yRtdWawKorQDRLNn6WPoq29TjBL9DqnVnnTgSvRLA0EbWr+7GIH00nM64yDRtxHIKiYaqEPQGaXQBUl20Apfd7vZYOByleFzP9yhM3bB7JcR/WE+0+VAdm/bgr6fTODCl9+C911rQHD5IpzX4HVd7Z1RSPSZ1YzWTzNeZ3Cvu3YCkTWJbMLoTMkQowldPatNmUQ3t3fGHqIHFzOqyzJiZ0hU36EzNNzGKgtqPk2yXQ5RXWuNz//IBD7EuIDIvproVx8xw3YG3zL9mySyCUUGfU6hqvtKFp9t3Mjo4qWMcicbtzP4ma5LxiSBXcD7/AHe7zFDgysFx68vJFTb4QuMMnbbvYpgF27ReLVlAPf1zORbEx3tinsAupLmMfrCB8zQ0MpqFXtK4+Cm4T3OMfhz4uDybe2fp2mMnp0uGR7cM+iQP8vanua93giLavoI7xM0S6JxE0RncJ87lW9r17C/vRPvs1CAGwT39zRTGV4RnSHR0iwNX7qBr8dv4j0eEs8pqCyarJ0DgBOtrVkSjdJwxX1a44fZxVNzKZvRTtERQe3np+BoGNznDTtj1nmNCb4daSqjfaIzgjqJr+MnNQzuTw08Y9bZ427gVuGA6Iz2ZY7Pa3iNwoviGbWDW0BZLLiHXXSGcuzlzzRccV/INM5a6d7BxcPaLjqj/SLl5zUM7veDB/qJ58TBXc87ZK3oDHWVGKMfahjch3V2Yk3Eyma0jHunXNEZQR3Ft893NOxx7+IHWIvnRPJkiZbwDpktOiOokgyJvqrZKV9GN+E9im9HaA6jj7jH/T/RGcrZYuiL27QKbjbRBXiPH4rnRPJCRmM5uE+JzghqYVa8b4HpRxtPJMHnvq3TA+76pUV8kQ0/flN0RvB0m8zJkZ7JGt/Zs5NGflYTGDVO4qduouIOg7crMzi4deiH/02CjZJ3qVPThn1WsxlV5vCF5HhgFwLceQYHtxL98JDWwR3PF5MzWmfkqV/420/yiC7mK+ud6Iw/GBzcfH5dURIcBsKr7r+Nau2y8bnnMXqpkp/5pu5l+hb+RaNR/S2q7bxxUTj6M05beL5i1OWNsyQ6/QmjB9t3qsAqjMhULrczIrhNWt9vFt7GKBdNFxjtOWXBHsHbLjtIdF34fiYPOuMNg34FHc0kuoSSqOE9v2S05zQFjmAJo1fOuTILX5ePG3RryEeUZA1FZjjet5GOFAjMZbTnAHWx0B+dcSngXWa41fSMvp1s4OI986OY/mWUZzQJTmAd0SxU27Sutj9L8Lo/NdLSOTz8vdDgpANXCdS34zPsMUQow3OqVS5Q7PpagglEqRn8RDzjLBz/S0aEt94kuo0jsvMzz/Q+GpQtUWsp0ezuroOlsBGGpzL1c71mT6rCg7/zjRhcLhLHkMaP1F+m4+fl/5TRsQDRXX2ZnXHhga42ALgzM6NkE/hdZeolfndDT6jXmfKTcf4OvQr9HPoh9A3oP6DhchQuThnL7Z2ySOqoHp/RR4xOHidaEOjLvXRj+dcQo6/hN9boGFp+GcZzmZFf1Jem3l32HPQutBjaDBVDh6HT6h3AfqhJvdiaX6laDu1S/9vF6q3o/C606+UI30uGcgPPNL3tR5uKH8Z9RIUtyhWxvbfRin9KQWf8U8dfQasB7Q39AJXfW+aGvg5NhUpVEGvV600jvRq1Wf0zjkC56g/CJeqN7lJfzzJDoRmcqewd1MUahvESndrOqLSV6Ndy+NH5ffpJluha/CGLdbiztBHV9o99gJVftOdSLcAvoJI43aDOb09fCD0D3QSl9nGHxDX4XPnJXmwAbe0mRsV+oglyJOujRyu3u9yHn+TdulqNxKgIX6+39gKtTfWiv1dvNffFCdrO2qfe3v6Aep2qqQfLwG+bvAefb1uywpslUd1GPB+f8u1zR8TmfyKRFR3xjI4WL/vxcMeP62FoRfWbPFhtV32qnGAFVN88T638N3d3F3CW8rwezFQqbyDJoK1Zz6jcp2SAb0Xq+cPHC93oiJ9n6OOOiMZMfihw18A6oSehVdAZDQDblU6rP1BjoC/IXRz/j+dlw2d8IJm+KQFt9RZAiyBWoz6D6FxVm6lcMf/PZPe7+AzLszr9JKte9mLobVnpuDaNQhuuFjXQLVGH2DrcyJ6prCC7Dp93vcafWdskRpW7ECxRaevwGX4rR/suDoS186BxSbwWlJ9U83AXowUjodVJAGtPVmKLrEyJXiGHzQTiM3ugN/lki8YADiCE1S1mVFJHtFtWoOX2LCU2c+QSXYG/dGLw1JfkC2V8+/n5nQLYfdCOJIY2XNyPr4Rehr4IpQevT1XuRnuUH1ythelh2ILGOYyOb2dU2KYAW6OOZ8d2zQjgvUqF90wyhTKA+2KW+jWkQvu4OhnQphNww20E/1yT1MmNG48T2TOV4c1fQwUJArZlFqMieNmyaticNmWkpgF6Q47XsQCA93K8mclJBO4uvOfbxp61Bw/oFNrOqobyoIncCxejCqMfRqE//grF61zkxhmM8ooYldYQHfMrsIbe31vQoHgv8OCd8FESjBkGgj6PkVcNYrfLiq/SO7SdbcQJaFuA6JeoeKPwdX0TfOarmcoxs83q7peBjkK0obL6+abGyYwOf8po01GiqibAGlC+CULvx6/+MHkTsy5UogvVyqvlpXWVeDiPqBZhKFRgIGC7k19dNzGdLwAqIPpZDqNp+CrfOUWiQ9nK7opqNYj7z7FdAB2ANuC/q50g0Wn8nlr83pr58K0biT49SbSzhzHwOrXSpid6ad1QDQc2fg3Uwkx4KHXIaLqAtkvxb59KaEUt0dwSog/hRVetBojLGFUtZVSN6tm0glFgJaMzaxgd3cBofx7+/S6i/ENEhc3KD0JTH8ahObTa2OOnBrZJ6o5ZrZ15+/tNRGZ01o/VdQAC1L4PszWoPrkKahzgn9egjh5o63w2wDsEmqoxcPfymTJ01gho0wBWcQkNXHz558Xa3AulTFLM10hgC96KXqAsR/yrhqdxjeCnZ3a50VFj8F6oVt5EBzYeIH7EVxnJSlgQEMVf3B6Mhc5Ljl2oEg1TRxsSGdhOLyG6Ua22fgFR3MUXyGfw5ZjJtYVaCh5aMTlhgY3RVnUh9h4BUdzFg9w4WcN3I/clsE1P0M0sfCrxeVFtE6JsOcmOteoKXn53wcfxDmzTGT2a5Ku+knU8eFbSeNo+wHsRNC1egS2DUXM+0Z1i+CvuQSwLuoD01NTANiUugY3RvmNELwmY4iY+jZsJDSE9NjWwTYlDYFtZL6Z346UzaqUdRnpufDE6NCOmaz8ZTWqJ33ZyoyuybeRJCi9fVZYTq8A2l9EbfmUZnwArtkGM7zw+n4zUAO/F0KxY7KRYy2hKQFmJJACL3Tgt32FxERmxqZ53erQ3YOYzygmIlWCxPGlnYtJOLkQRXr4Xaoa6Cj8q4BYzWi8W1cRETWqlvYpEU4bKoLnR2hi5X9lP1ixAi7qm6XbIawDwDoJyB7zviZGvjGi/Ro5P0lMQ+wi6UJDaNbyDodkDDWxlLHjWlk8AF7UgNtmwQayfgW3GQKaH9zM6JMAVQSxRgY1X3pZIwC1lVBkQViEaQYxX2uGCyH40ADg8Q1lV1m9w9whwo6HpIohF0Pgx8tkSXQJ4V/Q3sO1gVN4mwB3I7t75wtMOHN5LAeOH/VmYs5pRmU+AG2kQmxL3Y5H0Cq96YNucvga2HEaHW0Q4iySIcU97paAuup6XX0Y3ty+BbRqqc6OxzgYbqJpFEIth5c1SAltOH460lGuITgog+6wZ/FBoQVlsPe9lmYzW9RbY9is31ggoew9iOZo9YUZPbTQFr70fAnhzelqYs4wF70gQcPa8c2GagDbO8ALcG9TRhi6nh6cy8rWJpY09bWycLjxt4mbYbspUDpdu7eKGwrYTytWlAtRzj9rn0F4rCEqsbbgW1XdpFwEtsJ4FL8YQsHbUbN1vbEwieK/IVO706hDY3md0ppnoqIC1PYgtifntNqJFAK/UMbBNkqipUAG3TQSx4FGflwhatDtJMT98engRo9NNxh7T5dO474kgpv3KOxK2YUEosE2WqKFUqbqtBg1iM0QQS4I2l4jxoTJ+b2+o6i5kdLS+4/1aRtEHYu1BcsHLx3mvBLxbgkeOSuQrYlTS6a4tvQexXOhSQUMyel5lhm0RX5gzidHJk8Y43aZJPepTBLEkr7wjAC73vM2LGR3y6Xs2rVH1tFeLp68Pz3sLwF0Iy9Cyg+hYYOB3dmk1iM0UQUxn8MLvXg94l05j1FKqnCvm1+GMmAhiOh3nvSJLok/nMGo6pJ+gFlDXHghPq+eWQXQRrEPGLEbHKmAZAsl73D5/33xi5S+av/xOtKjBeyHg/R0qbxHgbQkkn23gU9jF0AuQVzxRA7WxRE7A+zjg3VIC3+tPrpm1FdADkE08SQO2LCIpi9HnAO97+USnmrQPb616SchnICaeoJEDGwDIhnWYyegHKxntrlFCW0CD1mA7xO9uSxfQitahjSMaPJ3RW/uJ9pwham5LPMB8vJnv4vgjB1Y8IdG6baNRzSYQjVrN6O0qorW1RDX++K7n5X/XMfVWTH6B9k3iqYjWHwthmcdoRAGjHx8hmlhNVNESWw/MLQq/OPtd6Cl+XD1kFk9CtIjbXKIL8hl9GQA/W0H0ASrxgQaiuiiMAfOdCVugMdB/QbdAqbLoctGi1d6A5qMKr2d0YRHRlTuJvriJ6Fd7iGYA6FyAvLWVaC988eGAkv596uL1U1A5VAB9qu5G+Af0HDSKX27Hx2IhkwC27+3/Ad2Lf5vFPjX9AAAAJXRFWHRkYXRlOmNyZWF0ZQAyMDIyLTEyLTA2VDA1OjI3OjMzKzAwOjAweHb39AAAACV0RVh0ZGF0ZTptb2RpZnkAMjAyMi0xMi0wNlQwNToyNzozMyswMDowMAkrT0gAAAAASUVORK5CYII=;fontColor=#999999;fontSize=15;" vertex="1" parent="1">
                    <mxGeometry x="364" y="260" width="61.17" height="90" as="geometry"/>
                </mxCell>
                <mxCell id="4" value="uptime kuma" style="shape=image;verticalLabelPosition=bottom;labelBackgroundColor=default;verticalAlign=top;aspect=fixed;imageAspect=0;image=data:image/png,iVBORw0KGgoAAAANSUhEUgAAAQAAAADrCAYAAACGhkiTAAAABGdBTUEAALGPC/xhBQAAACBjSFJNAAB6JgAAgIQAAPoAAACA6AAAdTAAAOpgAAA6mAAAF3CculE8AAAAB3RJTUUH5gwGBSM75Tu8TAAAAAZiS0dEAAAAAAAA+UO7fwAAQyNJREFUeNrtfQl8VOXVflgU3JfaRWtbbavW2v7bWltrW5evre1Xv692sfsnVkBkVXBFtCpad2XfBFkEVCRAgABhJxvZQxYIgRCSyWSSmblztwlZABXu/5w7dyZ37tx1luTeyfv+fscbDCQzd+5zluc873kzMshyzOrs7Mw4ceLE0I6OjnPhOjwYDF4AX18E10vgz5fD9UtwvR7+3/fAfshx3K3w/34K/+52+P93gf0K7Dfw/+7BK/ydX4H9F3z/DrCf4d/nef4W+N734c/fYln2y/Dnz8HfuVT6Pfj7zoPvD4PvDRUEYRD5VMgiK8nrzJkzQwGA5yPwAGyfh+uX4XotXG8A+4kE3N8DIP8J1zFgj4H9G+zlZBv8jhfg+jjYWPj6frj+EV7LryXHchNcvw7/72qwL4BdBoZOAp0D+SDJIstoIVAAROcCaK4A+waA62YpWv8v/PlvcB0F10fApoG9lAqQJ2AvwWt/Dq6TwR4C+wfYvZhVgP0Ivnc9ZBBfDAQCw71eL/mwySILl8vlGgIA+RwA5EYA+B3w9R/A/gX2aKoieT/Y82BT4D2OArsPvv4FvNfvSGXKueQpIGtArbq6unOgxv4qAh5S579jSi2l1s/ZMLKnyiE8ATYBbARkBnfD9bpPPvlkOHk6yEqb1dXVhWTdIHi4B7W3tw8DwH8dSTf480SwqVKEHwiA1y0dJIfwDNyrKeAM/gD36Sb4+kK4V4Px3rW2tpKHiSznLJZlB8MDfAE8yF8E+xHWw3B9ZoAD3aqhcxwNdgdkS1dLDoEQimTZl8CDiD8MHlisa78L9meMagTIiRvcyxfAsOtwK9hXsAUJRtqOZPX/oml6EEQobHndBPZrbMXBw/o8AW5K7EWpC4Jtzx+Cw/0iON7B5Ckkq18iPgD/8yicgYdxhERqTScg7TObJrVF0eleg2Ik8lSS1RfAH4S1vfTgjZWYewLI/rMXpJbpn+Bz+WZ3dzdxBGQldyGTDzYUHq6rINr/QYr2LxDw2cow+5oGn89IyMywizAUHMIgQhqSFfeCByrM5n8TpbZwfZEAzTGtxQnwef0YPr/LaZoempmZSR5osswtqCcH8TyPbadvwUP0lzRS5A1E0vBh+Cx/DFnBFfn5+aRzQJb+On36NGrxb5RS/ScJiNJDUwCf5wPgBH4I14vIU06WGrk3GCLFNdhiQt06UeilpaEu42/gBL6Lmg3y1JMlLuzjw0Pxa4lNJq289CcLn4TP+09Q6l3l8XhIWTAQV09PD269ReXed6RNKYTVH3iO4Al4Bn4ONpwoCwcW+LFFdBU8AH+ViCICiIEtNcb5BdeiIyDdgvSu8wfBh3w5fOC3SttvCQCIhe1psLt5nr8SAsQQgpY0W9KknRvg+g/S1iOmoyocBQHiFpZlL3C5XAQ4aRD1cXgmztTDYZiPEJKPmAl7CuzP3d3dnycIcviClO5SKepPIw82MSskYWdnJ+71uI6gyIFRH4dHAPivhw9xMon6xBKQFGM2cBeUBOfD80Q6BQ7o6eNuvUvAAfyKRH1iSeQGsGP05fb2dkIQ2ri9hzPkrsT6TZozRx5eYknLBiCw4L6C/xcIBMgkY7ut7u7uQV1dXd+ED+lfpLdPLIWG+0PuhNKSTDC2y5o+fTpO3v0+gH8i0fAT6wN7FhzAb6HMvJigr/8JvyGQlt1Bdu4R64epxffheYkEhf2wcBgnfAAXg/2OjOUi1o/7CfC0o69CRjCYTB/qu94+DuzAgzL/Qup9YjYwFJjdSFEU6RCkeuFJMTh7H/d1k/4+MTuRg5AJfB/sHILSFC5ItfC0nRGE7CNmRwkxOIDb4Pkkw0ZSseDm4hbeB+EGE/ATs7MT+Bk59Tj5qf+XkXAhaT8xJ2wtBifwE7iSciDR1dXVNRjsq9LQBhL5iTlGKwDP7G1wHcbzPAFyPIthmMFwE78CNpI8UMQcqhX4CSEG46v3cXoP6vpHkJqfmIPtOTygpLu7m0iHLfb6L4Ob9y8CfmJpYFNxIA0YIQZN1v0XAvD/Th4cYmk2ZejWQCBADi/VWzi+C+xPZEw3sTQcLvI4PNvfw0NoCNIVC8cxg3fE2X33EvBbs2BH8D9skHstEGTe8AUD77Tx/pke3jfbzXvnNHGehfVc84pq5lhmBXtkUwlTt20/fXBnIV27Ny9QXbAvcKAkl64uLKBrc+H/7yqhD+WUM0c2VzENmXVs08rjvGcR/hz8efhzvfDzqSDzJtPBvYa/l9x/yyPIn+zs7PwOwzBDpk+fToAfXgD+4VD330Wm+BgbHWTfaOV9cxq51sWH2eYVANa1COq9gQNlW6nSxo3+/dR6X8GJtb68Tz/25QqJ2lpf7mfr/PldWb799BaqpGl3oPJAIVO7p4ptWAe/f2UD516CToIK0m/yxCmYsSksy15HURQZMSaJfIaC/QBPaiEPR6xhZEew17KNH5Uyh7fk0dUF26myw5v8+30AzG4A6dlkAD0ey/TlnwKHE8ihyo7sC1QVFzN1OeAY1h7lWpZitkA+P00bB5kAmTqM7T64GXgo50TyUMhBz75xhGtZVkQf2r6Lqqja4i9u2eAv5JIV1VNl8Po+W+8vOLGZKmrbQZUfgsxk9yH2+GovH5hBPteYcuCvPT09Fwx0B3AxzlojD0THyyzU1Uf5lqX5UI9vo0qPYSq/zpff058RPvEMIe9Ulr+QgdLBBSVKaS1zbA0b5F4ln7doz8Pz/980TQ/M9qAgCJj6/32gS3zbg9QMjPRbqGIXRk8AzWkng14nO/h0vS+/C0uXgkDNvia+bWGQOIGpPM/flpubO3ig1f3nQuS/dyAO9OA6+FfaeWpGLXtsTQ5VetTuaX3yHEDY8sQrOLrPsqnitnKmfrOb987FTsYAdQJPdHZ2fg/wMDAGipw8eRJP5/1xR+hAxgEF/OOcZ1EZfXjzVqrkeKZfjPTCwAK/3AmEDBzB2c3+Im8xfWgnkp2BIPPmAOQDxoITuAawMTjd034c330tvOHxA6lP7+Lb55fQdduy/cUt2FYbKMBXdwB5MZYpOQLICLwFdG1+A9eylO3gXxtADuAlcAB/DwaDl3g8nrRW+l0uyXwHxL5+FOZAirtpG1XaAA/4yYEI/I/NgT9i63z5n26hSjz76YN73UHv3AEkOHoBHMDdYIPTte4fBnZXxwA4npvvCL5SxzatyqHK6pHYS0dSzzr4cw3BH7J80Tb4Ck9CqdRaTtdv4YL8QOkcoBDu+rQDP6Q3eGbfN8CeSfd039sReGd34EA5RLIueOjPDDTgR4M/T63mVwF/fhT416H5Q9cN/sKTO6iKhgbOvWwgZAOAlYlgl6bVmHGo+y9NZ6Uf38G/0sb7ZxXTddsh4gcHIuj1Wf88005gXdgByM0vOoJT+wJVFcc5z+I07xhgefwP3BiXLmKf4fBm/pzG2vzXa9hja6DObxwoLT0TPX/TNX9U5Pergx+v4FjFazZVTJcydTu8QSqd1YXTADe3O36aUG5uLk72uSVdT+9BvXshfXA3qt0I8K0TfjFpvwb48breH3ICaJANfLKPrsZs4N00dgITIXB+HTtnjnUALMviIR4Pp6Par4X3ztsZqKiCh/MkAb4c/Faif74pBxACfq8DCFnhme1U+fFa9vjHXEdakoRYCvwJnMAlTk39z4U38BvUPKfbh3OIbVq1hSppHog9fSuE31oThF+mItJHrrrgD2cCBWegJGBKmLqdVJB5Kx2nCwOOboZAOtRppB+y/jfCG3gsrTbsBLlXy5kjGyHlpwdiay+5aX+eeuSX8QDhul8EvK9AywkIG/2Fp/LpmmJvkJqZhk5gMmDp86dOnXKM2g/bflfAi74/vep96p0CunavtEOPAD+ZhJ9frebXjfyRa8gKRYOS7Fgz37Yo3dqFgKW/gDmDEMQXCi/6Z+k02gs3q+wJHCiDh/oTAvrEW32Zpgg/48ivdABoOVRZez3XvDKdeAHA1HSwbzuB9MOR3ldD3TI5fci+9nk7AuUHCeAta/tVyT4j8PfW/doWDfxoBwDl2dltVIm/hj22jkkvvcA4cAJX2NoBFBYWDoEX+td0uem4e28HVV43UBV9iWv7dQg/02y/ucgvgT9sZ7dSJfQBpmEzE2RfT5e9AlBa/w4l9XbW+38rXVj/Bq7lPZzMQ8Q95qN/XIRfBPzG0X+DcfSPcgJbqJJgBXN0Gx3k0sUJPAnZ9fdtCf5PP/10OHiocemg56/nXMuzqWI3ifzJaPXlabf6fKZafVYiv8z2CxvBNvmLTpcwdXuZ9HACL0EZ8Leenp6L7Ej+/dDpij8R/KxrOTw07QT4fUf49bb68i1H/ixdCzkBsLNlTP0OnLuYJhOEbrKVQrC9vX04vLD/c7riDw/S2OIvbiaAT06fX6/el6f+CRB+qqDH68Ze8Iu2mSo6fYBtyGY60iIT+B9wAufZqfa/Dg88cHqrD+ftE8D3gchH2epLjPDTi/xRhpxAmjiBSWBfscWWYXgRQyD9v9vJ5F9b0D9rJ1VRQ2r+vtL2JwZ+q9FfZme3UaVMDde43uE6gReDweBPOY7rf3EQnnACL+hBJ5+8sy9QVSSN4yagT0jhl5eotj8lkX8jJRGClEgKnt0eKPc2cC0rHJ4FPASB9+J+BT94oEHSsV6OPNMPo0AxU7cdHsxuAn4tJ5BMbX+qCD/DyA/ADzuBIrSzuwIVzS18+wIn7xbE/TYQgPvVAVwIqcgfnTqmG0/BhQeHI6BPVNsfmuSTqavtz7es7U8o5adk4KdCDkAEf68TEPbR1Qd9QeceWwYO4IFTp071z3kChw8fRtnv18ABTHFiu6+Bc7+X7S92E9Cbj/zJ0fbn9wnhJ4/8auAPZwIlzOE8zqEjyMEBvAgZwBf7S/d/DoD/Z05s/fmD9FuE8U/izj7DNl/80T/RtD86+keBH1uD2BnoqWGPZUFQcGopcE9/CX8uAhvlxJtWQNfuw5NsCeDj3dyTF0v4ac3xS1mrTz/13xQT/YuU0V90AGBndwTKvce41uVOnRcAgfjSvgY/2jVO3PKL8/qlWf0k6icEfkXdn3ptvzH4Ywg/ReovcwKb/REHgINGP9tHVx9qD1KzHOgAnoMy4LY+dQCtra3I/t/ntJvl4trmwwffRqb5JGF0t4G2f13KWn2FJlp9MuD7oyO+LPJLViw5gZJPium6AjrIvuHAswRGnj59+vy+dADnQ9rhqBN+8JiunYGKapL6GxN+RnW/rrzXZKtvfQLa/iwzkV9O+Pl7r5spNSvGLEDYRpWeqGEbsxwoEsJdgt+bPn16n5UA33PULD/4QEuZw1tI6h9v5DdP+q1Lura/N+pnWWX7/ao1v0oGEHIAaLsCFZ4mvm1xsKPDSWPFcILw7ymKSv2sgMzMTBz4+U9n7e13LyEtP3M1v6XIb3GaT3zyXnM1v0nCTzXyK+xsAV1bxTpvv8BYsKtT7gACgcAVTjrmC1t+ewNVxST1j5fwy1cn/BIe5ZUUbb8K+PfHAF8r9c9WRP+wbaVKTtdwjRudRgZCGfBjj8czONXp/61O2fePgp9a9vgHmWSSbxyR37y2PxWRf6MJld8mSsn2myP8NCJ/xLZQJcKOQBnrCfrnOswJ3AdOIHX7A7q7u3Hi7/1OEf9A9H8bHpDAQAP7R759wge+PcIq727hfe8uYX7bZmFmW5bwTtt64a22dcLrno+FVz1rhJdbPxRe8XwkvOFZK7ztWSfMgO/Phr83v32zsMK7U/jAu0f8WfgzY9h/n3nCL7G63yADoCSmX5n++/VrfhNO4GwuU3WEcVBXAIIzDgu5NmX7A8C7YO//EafckArmyKaBAPg1AFIE+5L2HGEugPc1APg09wphkmuhMLJ5pvBA0zvCA80zQtemGcK/mkP2IHwvfA3byOZZ4r8Z3TxbmNSySPw5+PPmtm8Slnq3C6t9u8Xfaa3mL4x3ko8m6Dfqpfw6kd8I+OEMYAtcc6iyzlq2McthWcCdYMnfJowjiMDD3OGU9B83+2z1lzSlM+gxui9ozxbe9GQKz7nfFya4FoggHyFZ+OsHmkPAf6C5F/yiNSnB3+sERikMHcLEloXCc63vi78Pfy/+/nWmIn9B0kQ+MZE/HPVNRn6z4MfrVqrkTD5dU0sH2Tcd5ADGMAxzSdJbgvCDLwL7u4OY//fS9RQfBB6m8k+7lwnjXfNFcN/f9DaA/e0I+HuBH47+0eCXA18Z/aPBPzvkAFyzRSeA14ea54jOYKp7OZQTa4Xl3h0x7b9UKPw2amn7/b3AT07077WdgQoKnqVVThofzvP8deAEkj7441rIACY55UbsS0PmfxWk329B9J3S8q4IRgR92ETwN/dG/rD9SwX8YQcwUhb5R4Yjv2tWjAMYLdlDrjmRa9jGuuYJT7jfE15pWyMskxxBsub4Kbf1bvRrgN9Eq2+zJuDVgR+2rVTpp2VMfS4bdM6OQcDpHwCvg5KdAdzilLFfHt43e3MaTfbFdH9O+0ZhMgAfQSoHfq8DeEd0AnLwh+v+cLofifyy1H+kzEaJGYAC/LLIrwT/mMh1rjAOHMGj8PqQVPzQtzd1hJ+W0MefEOGn6QSgDBD20lU4PGSRk04V9nq9w5MJ/gvB/uCUG1DC1G+FSNSdDsBf5t0uPN+6UgSrOvBlkV+e8isivx7hFwV6V2/KP0oj8o+RQC+/PgzXsD3WslhY5N0qZIrZQOLa/o1q2n7NyF9sCvxbVGp+NfDjdRtkATVs42a+I/iKY2ZeBIM/SKYDuBJsvENm/L25gyo/5PQNPx9AFJ3TtlF4pGWRKvCja/63Ywm/phlRkd8K4RdV98sjv3Qdo3ACD4vXsAOYJ17HtywQyULsGiAnkFDkV2zqSWKrTzf9DzsBtDy6ut7rrN2C/xQEYXAyan9k/7/tlPS/jm1aCQ8N5WTwr/TuFl5tXRNT56ul/CO0Uv5mbdJPXvOPbNao+V3Rtb8y9VeL/GFDXgBtfMt8sWuwxLtN3B5sVeW3UU3b77em7TfD9huBHy0nUNaDZKCD9gigJuBzyVD+DZPGftv+TfMd/Cv76YO7nDzhFxn+F1tXa6b8qmx/kzbbrwd+9civX/P3gl8J/HlR4Ecb1xJyAk+5l4klgdwJmGr1WSb8ikxHfiPbGmWlohXRh8odtFMQ2/U/Tob4B9t/Y5xC/knpvyPBj+q7590rhZFN2uCPIfyataO/WPfHEH6zNAi/WdqEX3M04Rd2Aqrgb+kF/zjxOl90Ao+3vCcsbM8WywFr4DdL+FkBf7Fu3R8D/kDIAWwPlHd6g7RThojiDsG/QRkwNG7wu1wunP13pVMm/9SxzSuzfIWsM9P+XcK/3e+LgNWN/DLCb4RGq8+Q8HNJ4JcIP3nkjyb8tGv+SLrfMi9y7Y388yPgDzsA5AQmu98VFni3GBN+piN/salWX7YFwk8EvQj4kgjw0bbB19vgimSgg3iACRDAr4rbAfA8jxnAXY7Y8x/kXsP036k1P0pu9aN+dN0fIfxUWn1GhN9IjT6/PPKPlhF+oQzAqOYPOQF55B8n8QCiueYLE8AJoKGKUKsMiBB+Sdf2F5sm/HrT/pAT2BbodQJ7Agc8vHPKADyv46dxHyQK/xhHf412wptthfQfPrDjTgM/9sxfav1ABLZ+yq+I/Eptf5Nx5I+QfspWn5Ltd802T/jJUn7xGhP5Q9F/gswea1kiLPHmRJyApra/Dwi/rWrgD0f+MPBlGcD2QNmpRr7VSacK/bm7u/u8eB0AnvrriNFfR1jXcqdJf3GnHSr7DNN+mQNQ1fY3qct7lWz/SFNsv3Har2T7x0aivhr450eBP2zPtK4Qlvl29DoBv4a2n0o88m+xHPkVwA/0fp0TKPusmKkr63BON2Ac2FfjJQCvdcrGnwK6dq+zRD654hbdhyG9vt9C9Fdl+8WvjaO/lrZf2e5Tsv1qDmCsIvrLI/84A/DjPoJJYM+3rhJW+nbLon9RUtt9W0xE/60aDkAOeuXXe+gD3jbeMbMCnjtx4sSP4tIEwD90RP3PBNnXpWm/jnEAuEd/omuhCGwjwk/e7osi/ExE/ljCb5Ys3Tdq9UWz/RHCz2VM+IXBr0z/J7oXig4A7RH3u8JLng+FNf5cS62+7GRG/jDhR5Wqg1/uBEIZgLAjUNFVwzZmO6gM+D3YBZZn/0MG4IiDP5p4zwInHe2Nm2aebFmqCf771Qg/RauvNwOIbfU9qCn00dL2Kwm/OSqtvrmqff6xOoSfMgMIAX9BxAFMkpwA7mxEyXDytP1GG3w0CD8qmvCLzQDKwk7gbCF98CAT5JwyLARVvFdCFmCp/r8cxw074Q0WBpyT/uOknhDppwP+ZhXCLybymyX8FD1+HfCbbfWNa4lN+5U1/3gl8KXIPylyXSQ6ABw68ig4gSW+HBMpf1HqWn0B48iPDiBHMigDAg2ce7VDHMCLYN/u6uoaZMUBfMcJx37jBg2nTPzFzT1z2zZpSnxVCb+maG3/AyZafbqEn0arb4zLTOSf20v4qUV+RfofHfkXRkX+SZITeER0BIuEqa3LhY+hFDBD+G1OdqsvTPhppv+RyB+x7YHyTyrZo3sctEHobsjoh1lxAL9xggAI0v+FTmH/Mfo/415uKuUfoabua4pP2z9Kh+1/yDT45So/iexzxQJ/vE7KrwQ/Ah83O6ETwCzgjbZMIYvar3Fyj37qb43tL40xNbIvDHwl+MNWwBysaw9Ssx2yO3A0qnrNsv/nwj8a4YThn8X0oR2ZvrxPnOAAcHLOqKZZhmz/CBPDPNQcQITw05X3agHfTM2vTfiNVyP81CK/lPoj6MPgD9vTrcvErkDKCD+1Vp9Kuq90AGrgR9tFV3LHePdKp3QDoAT4kikegGXZz0v9Q9u/sRyq7IhTtv7iNN64dvY1yYQ+Gtr+kRra/lFq4IevYwm/Oergb1Ej/GTR36WX9iuivwz8k+Tgl3iAKe4lwjvtG1SjvzH4zQp9osEf5QQoVcJP07YHys5Uscd2cB3OmBYEgf0WMFMZwA3wD6bY/Q21cN55m/z7/U4hAHFopyHhp9rqm6ma9j+ojPyuWTHDPDTZ/ni1/S4LrT63uciP4EfDvQLPe1YJH/r3mtb2Zyeo7dcm/AzBL1oBU3vEKXMCANf/8Hg8g8y0AG/DsUJ2f0OVzJENTjnv7932LZHhnVZbfWoDPA0JP0Xkj9X266f94atmq6/FXOSfJLOoyC9eQ8B/tKXXCTwBWcC89s1iNyA7wa29WoSfvhMoU2X9leAPX3fSFSeb+LalDpkV+O/6+vpzjci/IeAp7pG2E9r6DeXR1YVOqf9xj3+49WdW268f+WPBP9qlMcnHpS720dP2j1Vq+2MIv9hWX+gqA787mu2XR/4Q4BdFIn/oulj8+tW2NcJaf37ikV9L2x/Qqv3NR/7tgfKIVbINjukGdHV1XWsU/R0x/hvP/NtOldU7ZasvAkLNAUS1+mK0/TOsR/4otn+2JvgNCT+5tt81XyXyKwk/bbb/kRbttF+e/occwGKxJbjctzOJkV8l6msQf+bAH+0AcpnqVqccJgr4/pWRA7jKCQNAcO4/pIeOkP/icVvh3v8I1YM7YrX9SsLPqN0XFf2bY+f4WRnlFaPtjyH8Flgi/KIcQMuiGODLo/8UuD4GZcDs9o1CFlWY4M4+GfhNEH7bdMCvFf3RdgQqPm3lfQsd0g0YpdsJAAeABOBj9q//jzqm/n/evUoEuJq2/wFNbb96u2+UQuGn3epTJ/wsaftd4XafEeG3QJPwm6RD+Ckj/5TWxaIDQHvBs1rcI2B5gKcG4bc1AcJPD/whB1AuVHONOQ5xAI/TNH2x5gAQ+As/kqSDtt79lx+oyXNC+w/HfE1pWWxB2y9T+TXNNBznpYz8D8W0/OLX9o9rMW71TVASflHgXxjT6pMTfpMVkX+yO+wAlohZwFLf9qg2oPk5fqUx47w0tf2UvhOITfvLYsCP13y6ttEhDuAZsBu0HAAKgH5p9zfRzlMzd1IVNU6I/rNwyy8AzVjbHyv0USX8XIr5/c1GhJ9Kyq9s9cVM8lHT9s9XqfcXRGn8Vdl+t37KHxX5W5eESgC4oiEZiOPCrEd+nZafxVZfjmbaH227ApXd3iDthHYgTvf+hVb/3xEHgBznWt+FOrDFCQM/8AhuBHjMBF+NWX5GhN9I2WGd0Wy//tZe3VafQts/zrDVt0C91eeWSXzd0TJfLcJvisIek6I/2pOtS6EM2Bd/qy+QrH5/uaED2BmoOH2Qa9rkAAfwEpT5f4dgP0RrB+D9Dpj9v2qDvyDohPT/KWnbr1Llp6ftj5H4qp3Wq8P2jzEY4a2n7Y+V+M5XHeihru1fqBL5F6mAX90BiJHfvSSSAeDXeNx5PODXZ/vLTNb85VYcwJlitq466Iwy4GGO4y535AlAwY7gfyqYI1lOOPgTh19i/TyiyWB0txHhp6PtH61K+MWn7R8Xj8gnDHwdws9M5J/iXhLjAB5vfU94wbNK2Bwo1kj7Tch7Lfb5cywCP2QVouUyNe2+YGCmAxwAqnyvU3MAXwN7yuZHf72RT9fkO6H+f8ezPpL+q2n7o4Z5NM1QafXN1G31ybX9D2lo+8eYIvzMaftjor9bRearQfg9qkP4xUR/uD7uDjmAp1qXibsoEyf8SiOEn3m2X53wiwV/6LqHPhA8wrnWOGRa8G1R4M/JycmAtOAGu+8AbOP9M3McIABa7d0tvNC6SvOUXm3CT6XVp0H4jTah7X9YQ9uvJe/VneQjJ/xMtPoe1Wv1SYSfPPIj4MPXJ8DwijzAzPYN6pE/YGKSj2WFn9nI3wv8nXQoA9hFV56uYI/kO4EH6Ozs/N8zZ84MlZ8BOPTEiRO32v3Fu/j2eRup/T7bj/1q3y5Mdr2r3erTPKpbpdXXHJv2q53cE4+2Pybtd0X3+ycqnMAklbo/hvBTbfUtVkR+lbRfAn/Ywk7gec9qYQNVGKe2v9Sw1WdU92tH/l7bKVkRc6iO6bD/qDDA+j+7u7svjToDUBoCYvMOgGdRpgMGgCxq3yKCVC3ya2v7tY/qVpvko6btH2Og7beysUdP2z9JpdUX2/KTtfrcKq0+tzr4n4iypcI0T2iEuNqhHfra/lILrb5yTdOK/BHw05IDgGseXdPawrcvdkAWgGrfL8vr//PB/mL3F36YbV5pfwHQPuGdtvUh8Jse6KFC+KmM8hodp7Z/rMHBHerafp2a350kws/dS/hpOQDkAWaIZUBxTJtvq+Ywj9KkKPx2mIz8YQewl67ij/CutQ4hAq9XagAetPn8v/+UMfXZTuj/Y/0fM8rLYI5fotr+MVZHebnU232G4NfR9qsRflN0CD953f+4Oxb8aMgD/KftI2GdP189+lPqqX+i4DeK/krw7wzxAJ9Ws8d2YbfK5g4AD/y5We4ALgabYHcJcG6gutCuwF8rWp7wgXePKP+V7+c3jPwu/VbfaBPa/odb5pmX95ok/Ca2JIHwU4n8vcBXS/17gR+2f3tWiTsE+7fVVx4h/CJpv6IEwGspW18RCDJv250IBLuD47gh4RLgUru3ANkg96pdOwBh8OMV59qNlEAfre03R/hZOapbrdUXO85LTdsffWCnGuFnptX3iEltv2qrL5z2S5E/dF2q6gCwDJjn3SxsCZSYavXpOYFEWn1akb83A6jAKUEud9C7yAFlwL2RA0N4nr/8xIkTtp4CzAS51zb593vtCf5eJ7CgfUvc2v5RzUaE39xYhV9Uq0+6Wp7ksyAubf+jGtr+ySra/nDEV2P7eyP/e9HA9yyLXF9vWyuWAYkQftt1CL8duhZL+MWCv1J0AHuZqo5GvnW1AzoBI8A+JzoAhmGusvsLpoPs6+t99toCrAQ/2pt44KdJwm+k1kAPDW3/QyZafWpKv/Et2ht8Jio3+CSg7Z+s1upz67f6tMAvj/5oOC9wtW+PLvjNR36z4Ncg/AKxkT/kAEQ7U8c1ZzmAB5iE8z/CbcDr7e4AoK56004S4LUaDuB590rD2f0jtWb3qwBfd2efFuFnMvpPVNvcYzjKSy36xwJfyfY/btDue0ID+Bj98TrVs1xY7M0RBUHJjP5GkV8L9LHRv9eq2IZ9ULLafUrQs4D7r4sDQuCLm+3uANy8d44da/4w8NEywR5rWWy+1eeKPbhjtKa233iSz1hNbf98S6O7Y9h+y5F/sYq2Xx38T6qAP+wAnpbAj1c8N2CmN0vcItwnhJ9RzU/HRP6IlbCHq6kg844DiMDvQvk/GEnA2+3uAI7yLcvsF/2VTiBXBOWDTern9o0yOKo7Xm1/zFHdUuQfZ4rwW2iZ8FPW/UaEn7LV19vyU0/9n5Lq/mgnsDzSDrSi7c9JEeEXifyRa68DKGBqW7xBao4DeICfdHd3D8UM4Nd2f7FV7LF1do38YcMWIIJZt9UnRX0twk+/1Rc7ziue0d0TlGO8NEd3L9JP+VtjW35G8l458J/QIPzkoH86fAV7xrNC+JDaZ2l0t9W0f2fAuNUXJvzUoj/aPqaqszXoW+QAB3B3Z2fnuegA7rH7iy1j6rfYi/CLTf+Xtm+POAA9wm+UCW2/FuH3sGqrb5464eeKJfwmqBF+Gv1+7VafBuFnpO13RzsBLcJPGfmnymyRd2tk2Ec8rT7L6T+tS/hFRX65NfKeVQ5oBf4RsH9ehtQTtPc5gExdjp3Yfjnww7ZQ2gNgVts/2mCSzxgt8LfMi5niO17jqG6tgR6a2n7p0A49bb9S7PNY65Jexj8K/EvMs/3yel+q+UMZQLQDeLt9vZAdKLGc8puV+BqTfdqRX24HuaZtQfufF3C/qAWA//zJ7g5gP3Nwlz1qfm0HMEscAT7L+KRelYEeZgi/h1XZ/nmGhJ/hNB/TbL/BNB+3PuGnG/ljHEA08EO2Qpje9oF4YlByRD7lxjV/QJ/w07JK9uh+ux8YEgwGx4qnBkMaYPuNQAV07V47gx/t7bb1UgYwUwX8sdr+0SYJv17Sb2502i+r+9WGeZob5RUd/c2Df4nmKK8Q4bdEpdX3XgzwY6J/a8imxkT/FSIHMM3zvrCeKuib6E8ron/AjBM4EO4E1HId/Kt2HxOOKmB0AP+w/VFgoVHgfQx+9VpfDfxob3kyQ3Jel3J0t9owD3ORX4/wG2eR8LOq7Y/a2NNq0Opzm2/1RQi/qMjfS/jJQT9VIv/kDmClf3dS5L1mCL+dpiN/CPi74YpWyB5qdsDJwaj+vRxLgBH2dwB9uxHIiPCLdQL54hHgYQ5Aq9WnNrc/dJ2rGvn1jupWa/Xp9ftVh3m41Qk/M2m/3AlEwC9FfuNWnzbhF4n8rdFOIGzzvdlJivwmCT+VVp+ahcGPlsdUc044Mqy7u/tqnAhkeweQT9fm9Tfhpx758yP2Vls4A1DT9hsRfhon97Sob+wZZzDMY4KGtn+S1im9qtN7ZRt7ZISfOtsfPc5LV9sfBf7lmoSfPPKHbVrb+8Jb7evjnuCrNczDaqtPK/KHbS9d9QkdZN90QCvwm5gB2L4EKKQP7rFbza90AO+0bRCFPErwW2f71Qd56mn7rdT80ZF/kcb4brPa/uh23+M68l61yC/v80+NSf8V4If0HycEvdz2YZyz/MpNaft3WiT8lOAPW3swYHsxEAT/G3EegO1JwCL60A67tPvUwL8ObHbbRjGdjx3lZc0BKBV+CY3yatEf5fWomVFeGmy/vtBnqTrhJwe/QuijjP6x4A8ZbgzCrcGpbfdVxh39w+bivUsdkAH8P3QAtj8RqIQ+vK2vCT+z4A87ANQBoAOI1fZrE35aNf+4KLZfnfAbbzi620jbb2J0d+sSQ22/3AHoaftj2X6p5pcRflOjCL/oyI/XZ6EEwAEh2AlIqrzXMvi1gR82J2wL5jjuFnQA/2P3F1rB1G+yE+EndwLrJHvfu0sE8Gi13X1RhJ/67j61Vt9YE9p+LcJvYtza/nd1CT95q+9xE4SfMvI/JYv6sYRfbOQPX5+VMoB/t60STw+Oh/CLR9sfjwPYA3aUb8m0O654nr8N24B32/2FVjMNa/ta268X+XFTSvgadgD49QQAZwzbr5Lyj0mw1TdeS9uvS/jFTvBVneRjQdv/uIa2/0mDVh8C/+mYVt/y6MjfJkX+tvcjDuDZtpWQAawUPvDvtSbyMdT2J57yy8GPdph32f68QAj+dyAJ+F+23w3IupfaNfKvkzmCZ+DBVh3m0axP+um1+sabOKrbsra/Re28vuj0X7PVpxjnZZbwi4r8Hv1WnzLyh8H/rJQBrPTvStrWXjPafrNp/x6ZHeSOb3fAfoBfYgnwc7u/0DbeP6svmH7tVl+eOvj9siwArigHlh/VPcalnfKHgK+u7Vc7qnu8nrZfnvKrHNqhFPtM1mP7w8DXaPUpSb8nDQZ66Gn7leCfpqj5w3W/3AlMb/tQWC1lADuMTu5RA75ldZ+5lF9pNVzjXgc4gP/GDOAnThgJBsA71X+tPp3IL3MAq3y7RSCaOak3JvJHHEBsq099fr85bb/65p53TWv7H0u01Sdp+7XafVpsfy/o3xeeg7T/lfY1wjxftrDKv0fIDhTH3+qLi/Cz6gCqhGruWJ4DSoB7Mrq6ur5n9xfKgAPI8u+n+xP86zTSfvnXa/15wqueNSrgn6M7xy9Rbf9EtWO6wzv7WvTBP1mL8GtVIfxUtP29TkCl1deqFf1XxAh9eiP/Chnht1J427teWO7fKWRS+eJOwIT7/CmI/rtlwA9fHZIB/BpLgGvs/kLZIPfaFqqkqe9bfXm9hJ8vOtrLM4D1ohWI9qFvr/BmW6YIvId1CL8YhZ/LGuGnO8nH4MiuKW5jbf9jCm2/ZqvPhLb/6RiF33LVyC+2+aDGf6M9U1jsyxHWSaDfJrX8TLX6kqLtt5r6V8muIXMCB9DZ2XknlgCXg023+cEgr+4NVJXYifALXyPg94WvIUeApwTNbNsgPOl+TwTnOJf+4R3jW6wd1a3Z6nMrIr90VSP8NFt9rXqtvqWxG3z0CD9lq68VwR9K619oWy28BDU9An6hd4vwQSS919/gkxDhF4e23zjyR4MfrY5r3uyANuBPwgeDPGH/o8EOZ8cD/I/jTPvX+dRbfdHgL9C1DWBr4HfPb88WXoHS4JnWFSLAEMRR2n7XfJWTe9S0/YpxXpYIP/WjulVbfTEtP5Uev4a2/ymVlB9T+hc8q4WX2z4SXm9fK8xszxLe9W0TVgPgs6j9CR7VrRL51dR9KSH8qlTBj3aEd61zQAnwAywBLsLhAHZ/sfWca4XV0eDWa/48c5FfkfZrgV9u4azg3fZt4gGiL3s+Eqa1vi8eJTZBdk7feBMin0makX+RNcLPrZ32WyX85CO8MbK/0rZGnOAzx7tJBPsK305RwJMlTfbVHujRv9r+XRZafVrgRzvGt37oAAdwEzqAC8D+afcX28y1LdjgL+T7ivDTa/cZRf9o8BfKriHLAkPCcKV3t7AYHMKc9o3Ca20fizr3qe5lAMbFkXR/gq62f6HK/P5Fpgm/eA/uQKBjVH/J8yG87rXCO+0bhLnezSLQl/m2i5H9Y3h/CPYtgRLd+f3bTTgAywd3xMn2Jyv6o7UEve85YjcggH842O/s/mI9vG/2Vqr0eCoJv6jI71dn+7Ui/waNyK8EfqztF7+Hr+1DyBDwBByUFS/z7hCHYM4G54CkIo7FfgEcBJYRCMIwyWdE+E02oe1XHtqBPx9JuRc9H0Ak/zgSyRf6tgpLfTvE1/iRfx84sXxRl49A30wVRYG9d35/P4/uplPV66/SNQccEvpyV1fXV5EDOMcJakA8HcjMCcFrLU/0yY+p/bXS/kjkVxB+ZiJ/loET2KhiWRHnUSC9hgIhE7sSEF0xg0AQ4oGk73m3C0u824R3wWEgmbbAmy0eqDm3fRM4kCyouTeIhs5kbvtmcagG/j38+4vh370HUXsZAPt9/y4xTV8vvW78/XgYxyYANwI8myoWT+cJHdVdGn1Ud0B5VHdZUk7u2W5G26+R9u+0rO2vjIvwU1oeU8M7YSAIwzBfRAcwBM8Ld0C98nI1c+xjAOppc9p+8+A3R/iZTfsLTUd+EWAa4A/bprABAHuvRRFQhq+xVixato4hmPVsa9hEoMuAn8Kjus1q+3foaPtVR3gnLO+tMgV+tCK2rtHuI8Eg/Z/e2dl5eUZmZmYGx3HfhP/5b7s7gAauZQk83G1WW31mWX/T4PcZpf+FpiO/nhPoBb/MCShMBLtfDfxFuuA3cgBbY6xUO/IrzeTJPQnN8tOM/BWx2v5A36T9YavgjpbxHUG7DwWdBk7gMvGAUPgDnhA8ye4OwMtTM3ZRFdX6rT7r47yMyb58U0y/ucivn/ZHOQBKAX6/CvhVor65yG/FAciArxv5raT8ZZa282rW/XHv7rMq8a0ybXV801YHnBA8Eexi0QF0dXVdBt7A9p0AvoN/BacDAYBPmd3cs9ZMq8+v4QCSTvj1miHwoxyARuRXRHwz4Lce+UsioA87gG060T/H1JFdZlp9FTFs/w5Dtr9/CD+57aOrTzfzbcscsA/g/7ADGHYA54ED+K0TeIB6tvl9AITPiPCzMs5LS9sfRfj5rRF+RuDP0kn7o5yAMvr79Wv+RKL/VqPoTymJPrkzKEvBUd0Vpo7qTh3hV2XZARSyB9vag9RcB7QA7+ns7BwmOoCTJ08OknYFTrf7C8edgTupiloA/NmE5b1+A7bfb6bWN1/z6wF/o7LWV9T8m/sq8gdiI/823Zq/zGTkL48r8usRfr0in4qUa/tN1//s0bJAB/uWY04HDi9IB260uyRYPiIMgNiZCsLPTKsvXsLPiO3fqEf4SZF/U0KEn9nIb4Lwo1JP+O0wQfjFRP5A37T61GwvXfVZPefKckD9Px0cwPWCIETwj6PBroZvPOwEB9DK++Zk+4vb4qr5/fGp+xKP/IXmSD/ThF9RUgg/dba/JBb8cbT6EtX2G4l9rEX9ypRGfrR85iDVzLcvdwCGngK8fy1DvqAeuMQJZwT0HhZSUwCA/tQy4aej8bcm7421uNl+M62+OMAfcgDFqWn1BaxGfjM1f7npyJ8aeW/84Ac7C+l/eSDIvu0A/IwD+1KUAwCPMASJASfwAGgtQe88AFgwLsLPp0H4JaDtz0og+m+i1IU+qWz3bdVzAAEtoi850T+xUV7Ji/57khj98+ia4BGuZb1DAih2/C7LUC5wAKgIfNoJbwLrrDy6ujARwg/BnSj4NyTQ6tsoJ/z81gi/pINfSfgl1OqLh/BTRP4+0/ZXJRr5RStm6xr8QXqmQxzA7yItQIUD+KKUHjiiDGgL+mcCIDtNE36+RAg/6+A33+8vUm31JUL4ZVtu9ZUYaPtLU6rt32Go7be2t3+3zhjvZBB+it5/9yGuaZtTcAPgv5Om6aExDkAQhEGdnZ1/dUoZwHXwr+ynD+0BIH+mS/j5EiH8Ymv/rGRo/JUpvz8Z2v742f5UaftNTfIxRfiZ1/bv6gPCT177FzF1jXQH85ZDHMAz4pFgWgv+wq1gzznFm7l53xx4YJstRf4EtP2JpP1m2X6tyG/OASQg8ukHbb85ws/8/H6jzT3JjPxouRD9G50x/CNsY8ABfFnTAfA8j2XAU055Q5gFVLEN6wF8HYYTfOOO/knU9/utEn6pbPeZE/qYA3+cx3QH9EZ5VSS15t+dROCHrYytr+E7gq84BC8vAfjvQ+WvpgOA2mAI1AijHOTRXvYGAzP2Bg5UAMA/i5H1ymr9/if8FNp+vzltf9I391jQ9m9Lmra/3BzhlyJtf7Ijf4j5r+Vaed9CB2HlOSjx78BSP0NvQRZwp5McQLCj4z8NnHspPOht63QO7zDS9q9PZavPnzptf7blnX0yJ5Cgtj8nJdr+5BF+ie7s00z9meqeI3zLegeo/uQ2BRWAGUbLCaPC1dqCNeyxtQAoTlPe28eEX0yrj7IW+bOTvbHHgrZ/W9JafTr7+ftA2787uYRfiPVnqk8d5Jty2A7+dSdhBGwUZAAXGjoAyAAGgd3vsDcnWilTtx1A2RND+JnW9pvf3bfRbM2vYPvNtPqsRf5iy5E/Eu0p9XFeOSmb5VdujvAzsbuvrwk/qeV36gDbUOCEmX8KexGi/+8yzCyapnFK0HeclgVIZwi8kk/XFAPQP+ut+/Mtk33JH+dlluwz7vMbSXy39Jm233wGsDOQPG2/1aO6kxj5eyrZhiJfMDDLgcERJwB915QDwDFh4ATwwJAJTswCJFKwCkD+WbzTfJIW+Q0Jv3h6/XFM86EUhB9lnfE32txjeX6/XN6bpLQ/VTX/Pqamu5Y7vpvqYN5xIibAHu/q6rokw+ySpgXf5dA3+7Kb987dEzhQDcA+o0z9ExnlZZrwS4m2vzhFo7xSsbNPJ/onqO3ve8KvpruOb97CdHBvOBUPEP3/asj+K2TBg8CuhX/8pBPfMJKCLq59wW6qsi7iBBIa3R2ntt9vLu3fnCLCT3OST1yR37q810jbvzNlrb7kgH8/c9DdyLs/sPuUXyPr7u7+RobV1dnZeRE4gT86+Y2389TMvXT1AQDw6UQJP9OtPovafjORPy7Cj0qOtj9HJ+XXS/tVI79avz/prb7E5b0Q9Tuq2GN5VJCegW1mJ2MgGAyOg/R/sGUHkJubi90A3CH4rJNvgD9Iv51P15QASHuSPbpbT9ufDMLPmrxXYz9/zO6+sjj286fq5B57EX65dE1nEVN3rJFv/cDpwJdN/7kZgnlGXAt+wBfAHnT6jWA62DeK6UN7AEy0FcIvK55WXx9o+w0JP72Un7Ka9pdZjvy64E8Z4ZdIe6+mGzf11HFN2YEg+1YaAD9sk2iavgyCeXwOgOM4PDnodqdnAeEW4SH2+JpdgcqjANxPNiQwvVc3+idF228c/beajf4WzutL7KRecw7ATmz/Prq6p4Q5XH+Ia9qK03zTJOqHib+XkMiHLP7cjERWd3f35ZBCjEmHm4JOoJX3zS2mD+8BoAXjGt1NxdvqS9Ho7oAi8vdTq08t0sce2WUPwm8vXfVJKXu47gjXkonAd9CGHisOAKW/XwsEAoMScgDYPoAf9FMnbRM2LAmC7OtH+ZYV8FA2AuDPWK37N8W0/FS0/X61tD9U929OEeGXXG1/Eo7qDqSa8LMm9UUZbylbf7CZb1tBBZl3gmkIfJkDuBeC9wUZyVg+n28Y/NCx6XaT0PNXMg3ZABQ/gPcUgPpsVoLa/k1UX4zuVmn1BdQifzyn9JYlp9VHW438B5I+uhsi/RlM8wuYWqqKaygIpfnB/6Qr6GXgfwKy9ht7enoykracKg82Y1SQfruSObIFMwIA4QkA+hn9+f1mtf1FSW31bdFr9SWs7S+Le4OP0ck95iJ/0s7rO4tjugqYg/5Srr4WMr1MB2r3E9L9g/0eav/zM5K5mpqahuJEkXS+ed4gNbOabdiYG6iu2UaVMBup/WfNsP16tX92Us/sM0j54x7dHQ/4TaT8SRrfbWacF57LB6D3ljH1NQfZ4zlu3rtkIER7FXsU7JsZyV6QAeBOwZvSiQvQ1g4wb9exTR8V0rVFAAwvAPlTIweQeOSPo9WXtJN6kwT+ONn+eOW9e+nqTxD05Wx9VR3XnA21/XI6yLw1AEEfthfAcLz/OUl3ANhLZBjmfPjh9w6UGwqp45tNvGdxNXsMsoKqg9n+4m7VVp/OBN/NCUT++Hb29c7x2xbnzj5L2v4EW31WwY81fRFT13SAPZZ/lGtZC5F+MdVBzxjAoI9i/iFIfz4jVSsYDKI68KtwnTCQbiyShagoxBZiBXskZ3egsgnAe3oTlYz9/NYJv60pivyGo7tpA21/ksAvJ/z2MVUn97MHXQfYo/sbePcaJPJQost2cG8M0BRfzwHc7vF4BmWkcgmCMBh+2S24x3gg32wKUs1D7PGP8+naSgBSAIDaBaD+BMB/Njup/X6T2n6qF/zmZvklqO0PxK/tV0p8AehnILqfhpS+GyJ8cD976HgN17jHxbe/xzp8I04fgn9ScXHx0Iy+WBzHXQy/9D6JcRzwN58Osm8c4VpWl9B1eXvpqgYAgxdAxgIguwHsZ+In/Mxo+0sdpO2vPAtg/wTuUWcuXcPkM7Vt+5lDx0vZ+upq7ti+I5xrHUT4OSSyW7apYDeAZfTZgl/2dbBHyM1X7jvgXm/m2949zDV9VMke3VZEHyrOo2sO7gkcaAKg+AGMnQD0s1YJP/0JvlZafeWJafsD5mb57aYrMap35zLVgQLmYEsxU1dXxtaXV7HH9tVxzZuOca0feIL+BayD99nbhfiD6P+rzs7OYRl9uViWHSINDfk3+RD0pxajzqCF9y5s4NwroWxYd4Bp2AaAKILy4eDeQNXxXYFKH4DwBAD/jDVtf3JO6t0eT49fugLQP4OIfiKXqfEXMgebS9jDNeD4Cmu54zmHueb1jXzrKjfvfRfPzuM7+FfJM5H01P//APxXQGme0ecLp4zCCxhJPoh4Ogzsm5DuzmrlffMhY1gMQFl+FMqIGu74xnLmyN4i5lA5ZA5HIXNoAwdBA9iCO+jyLgDr6ZxA6Rlr8l6zkT+K8PsMwN0N4GbgdbQV0LXH4TUdKmUPV1SyRwqr2cYdh9nmDY1c6+om3rMcHNxiT9A33wdAZ0SCroOk8am3yYC/G7u7uwdn9MdCr3Py5MkvwIuYRj6M5HUc2CD3Gg0Oggoyb/uCgRneYGCmF5wFOIzZWCO38f65bt63oIlvWwKOY8VR3v3BYc619hDXlFXDHttSxTXsqGQb9paxRwoAsMUQlUvlVsocLi1j6osq2KN5B9iG3TXcsRzITLLroQaH1Hw1ROxF+Hvgd87GIZgQvWegdj4QZN7C1wVp++s4JSedtfQOMMy8MfU/J6M/F7YGwW5Khy3DxIg5ZdAHAP9vEHjPz7DDAgcwHF7U3WDPkw+HGLGU20PgAL6QYZeFpQC8oM+BR/pHum4YIkbMJqTfYzzPX5thtyXNDcBJwuPJB0WMWErsaci2v4+nd2XYccGLGwr2Y3yh5MMiRiyp9ixg66d+v/9cPLzHtgudAGQC/yPtTCIfHDFiidvzgKtfQeQ/z+PxZNh+QTkwVJIKEz6AGLEEz/XDdl9XV9fwDCctjuPOB6/1ALz4l8iHSIxYfOCHbPoXYM4CPy7wWNgZ+BK8+AdIJkCMmHWhD2DnTgiiwzKcuk6ePDkYnMDV8EbuJ06AGDHThlO37kx4pr8dFsuyg8EBXImbFogTIEbMVKvvNsDNcJqmM9JiQRaAGoHLwf5JZggQI6ZqyJVNAozcBDbU6/VmpN3CUcV4VjlxAsSIRe/phyCJZfJVGem+pO7An8nmIWLEQmQf4AHn+F+aMRAWpjZQ21wEb/iX8OafIA8AsQGq6ceUfzKA/xco8MkYSGv69OnoBM6Dm/BDHGZItALEBpqyDzfOgV2P0t7KysqMAbm6u7vPwdmCcCPGEidAbIBE/ifh+nOo+S/pt0k+dloMwww6derUxXBj/kzmCRBLZ6IP7F8A/C9C2j+kX2b42XnBzUG9wI/BHiVdAmJpBvxH4Ln+6f79+4cQpOvrBdAJfA1u2N9Jl4CY08d2gT0G9jswVMOSdN/sdCG4WZehFFK6gYQbIOY0m4y7YXmevxGe5fMIquObKzAM7Dq4kf+Em0gkxMScQPBNAcPZmNfAs3sxdrvISmA1NjYOgpt5CdiP4IY+Rh4yYjYFPupZfgkl7FXd3d3DwAh4k7Xg5mI2MJjjuMvh+lu40U+STUXEbELuPY5bduF6KdgQcAAEsKlcubm5eAbB1WB/lPgB4giI9TWxNxV1KzioA4LShQSV/UMU4pyB6+BDuI8QhcT6IMXHaD8B7E9gP4QU/1Kcgk2Q2M/dAvggzpO2T/4R7CniCIgl2Z7BiVYQbG6HrPOanp4ewujb0BEMgg/ooq6urhvgw/pf+KCmkgeXWIL78qeA3QN2I568++mnnxIBjxMcATiB82iaxulDvyY7DYlZBT48Nw/xPH8LfH0F2HAcZEOQ5bBVU1MjKgrBLgC7GWw0pnJEXkxMQebh6bpYNuLx9rezLPt5PNOC47hBRKefRsvj8eBpRdeC4WEl4zpCpxaR7sHAsxelzx7JvL+htiQQCFxRWVlJJLoDYcEHjqKiy8AR3AzX34ONlaavEnCkL3s/XarncTT9PfDZ/wAi/BfWrFlDQD+QF9R5w3BcOVx/BA/GvcQZpFUdP036PLFFfDvYDWCXQ4pPiDyyoldmZiYKiy6AB+RKsG+B3YV7tslORMeBHjff/Bm33KI+RPo8L3K5XCTSk2U6K8AS4Vx8cMA+B47hhyj8wPkEZDOS/Q7OgM8HHfWdAPhrwLC0w4nTQ4lAh6ykLHig0CHgeQaDIX28GP78bXjQfgPXh6X9CNOkCUZEfJT8PvwLUhY2VbrXKL39A9it4Kiv9ng85+L+EPx8enp6MghrT1ZfZwqXgTP4trQD7B9wfQgPdZC0B9NIy9HaWGypHfcI2MN4ghTYb3FgLNzbr/l8vgtxDwh58siy5cJ9CQzDXISkIkSlm+Ahvg3sN7hPAWyE1Hp8QnrQB2q28LwM5GMkVv6vcL/uldL478HXX4P7dQlGdvJUkeXoJe1aHN7V1YVbmL+KklJpBPqdUtcBT4GZKAmU0qXH/gzObID3iCXS/bg/Ax0h2M+QT0HnCPYNsC8jxwLfv6Curo6AnayBs8AhDIUS4gIAATqGq1CgxHHcjdifhih4Gx4SAeBAwdJ98PX9YOHS4ikATJ9PTIbf/7yUvUyAr0eCYbmDtTgC+3a43gKvG7MeZN6vhff2FZx6i2033J8B12Hwd0j6ThZZWqukpGQQOIHBPT09Q1mWRXJrOM6Rw/Yk2EU4WgoHTgCg8HDVK7q7u3Gvw1cQcHC9DrkIsO8C+G6Gn4NTlX8KjuYO+P4vpD0Rv4WfcY9UV+O4qrvg7/4c/t9PcGsrpt/w97+Nh1RIZzR8Bb53JfydK9BR4e/G1wB2ITLt8Ofz4N/guLZz4DXjeGsinXXo+v+FzPjuTCuczQAAACV0RVh0ZGF0ZTpjcmVhdGUAMjAyMi0xMi0wNlQwNTozNTo1OSswMDowMN8SrsAAAAAldEVYdGRhdGU6bW9kaWZ5ADIwMjItMTItMDZUMDU6MzU6NTkrMDA6MDCuTxZ8AAAAAElFTkSuQmCC;fontColor=#999999;fontSize=15;" vertex="1" parent="1">
                    <mxGeometry x="490" y="210.5" width="97.5" height="89.5" as="geometry"/>
                </mxCell>
                <mxCell id="5" value="prowlarr" style="shape=image;verticalLabelPosition=bottom;labelBackgroundColor=default;verticalAlign=top;aspect=fixed;imageAspect=0;image=data:image/png,iVBORw0KGgoAAAANSUhEUgAAAQAAAAEACAYAAABccqhmAAAABGdBTUEAALGPC/xhBQAAACBjSFJNAAB6JgAAgIQAAPoAAACA6AAAdTAAAOpgAAA6mAAAF3CculE8AAAAB3RJTUUH5gwGBRw2w1TqzQAAAAZiS0dEAAAAAAAA+UO7fwAAabFJREFUeNrsXQV4k+faDrNztjPff842qOLu7jCc4TashuvQwRgbMKw4xX24u7sWK0XbUqTU3d3T+3+eN/UkbZomXwvku67napt+Sb58ee/7ffyRyQzHW3X4D5eV8LeU/cvfSvaVn5XsexJT+rt8oEWJpvRzMMl4+t8MkoX0+2qSHfT7UZKLJHf8LGVO9BxP+j3c36pEskJk4emPOfE56eceFc/l1+DXUrwmv/agQMsSTfg9SUwCFNfA1/Ivnz6yEoZvyHAYDh0c6COThQyS/TvAUvY/Al15kvokbQmwfUgmkNgR6E6QPCYghtHfchJIJPRe/J703lay4/T3yvRr6kPX0lZcKxEEkcP/gokYMNvwfRoOw6EJ6D/wHyx29Ha0U4/xtyyxiEC1neQCyROSgPRdG8VUktOvka/1fPq12xIhjE7/TKYYLvvA8E0bDsORscsPlH3pbyFrTOAYS7KFAHOV5CVJFElaMQa7ppKW/lleKD6bbLOC3GSNSTv4ggjBcBiO92uXDxwsMyMADCQgbCN5RsDwIYkgSXkHAJ+fpKR/VvrMsqf0+bfSvRgQbG3QDgzHu+aws5J9RIv7u0ALWUXa5S3p9+204N3eE6BrQQyy1yTbAqxkgwOtZBUC6N4FWcs+Mqwkw/F2Ad9a9gUt4tq0mK1oYe8m4Ae9I+q8hGaDLJB+7qSfTJy1/KxknxtWluEotkdwH9mHfhZCtWdP+ApavI4kcQYwF1r4Hjoo7qmsdwCZCmRCGUwFw1FMgD9M9gktzpYkC/0tS1xOt+cNu71+nIneJJfoXs8n86B5cF/ZJ4YVaDiK5AiykX1D9rwlyRValL4k8QbgS0YErBX40L2/zMlP/F0YVqTh0L9tbyn7nNTQKiQz6XdPA+CLCSGI74K+E/puAqxk/zGsVMOh0yPQQvYV7TYNaLHNJXEzgK7YymuS2UQEDQLoOzOsXMOh9cHpqwE2si8I+O3Jtl9GC8vZsOO/FcIp0U4kS4gI2gUNkX1hSEU2HAUD/zjZR7R4OpPsSM/KSzIA662TJEX2oWy7n4WsA4bLPjSsbMOR5xFiI/uYdvxWtGgO0+LxMyTsvBPC9Ql+flayA/S9Ng8cbEgsMhy5nXtWss/9rWXN0ivbEgygeWcl3t9SdoRIvonBWWg4ZGEDZZ/QzlCNFsY8kmADQN4b4SzDOUQGVUIGyT42IOF9s/GtZCWCrEQzizG0EG5JXEtvkOLiLLQscZ1IYFSglcwY4wzNTN4PdV/RTacnyQlaBKEGz/57n1QUQmvhGEk3Mg0MmYXvuK1fMt2zzypgqgEABkmXVEUjE9E+raQBKe8S6K1lH3MBCX2x02n3DzTs+FrKkI8RMPwzIf42H7/LWYX+tFZ+I/PQ1M/C4B94u8E/WPYFfZl9SW4W81ZaxVQ+QODY/0PovCaI2GqD6MMzSP5AxBYrhM5vgsBx/4W/9QfvZOiQzAH2D/SlzeNLA5LeTvB/T18ge/f9DUDWTkJm1Ubc5TVICXwFyFORechTxGNx1zYgdEGzd1kj8FdUecpKGRD1tnj4Z8tKkPpWj7603ekVegYwayFhS9sh6eVNIDUFag8ihRTvJ3Ru+3f5XnBeyCFaU80wztCHoFgfQUNln3DTCPrCHhpUfu0leHp5JL24DqTJocmR4u+KwMkm73ofQxdaWzZ+NrLPDEgrhoeflcyEviBuox37/jrp/oPA0d8gaNz/EDThR5JSCJpkjKDJpgieYobg38oi5I+qCJ1TH2ELmyOcdm4W/p0f4/8FT6+AuBtb8t75cx90btz1TQgY+q/3odCINEtZhcgBBm2geADfWnTkqUdfzNn3AegMssAx3yJ4kgkBtgpC/66PcNuWiFzXFzH7JiHhwjIk3d2NlKenkepyCfJXt5Dm8QDwfQr4u+Qrqe6OSA31RUGPlIAXCPm7wXtCuDLHAAtZ2wBr2b8NCCzCI8BS9o2i8abs6Tsb3rP+gHbykgib1xiR6/shZu+viDs5F4nX1iPZ8TBSX1xFmvdjjcCtiaQFvkZaQkyBCUAeE4a4S6uJiPqJa+VrfkcjBBnhwtckQw19B4rC0Tec7H2eiWdVYml61d47Bf6AEZ8j9K+aiNzQH3EnZiPx5haxo6d53CeQOusM7Eri+wxpIZ7Q5khLiEWqFz3f/b64Vr7muOOzxWfgzxIw/PN3kQR8SHhm4v8ZUCnlzq8YiHnunbH3rT9E0EQjRKz4GfEn/0bKwyNIfU7q+5u7ApR6A3zu3d/rMVL9XmpPAN5OSoTCn4E/C2sr/NkiVnQWvol3SDuIJAJYF2joSyiJvf+hn6Wsgp+V7PlbvevbfITAUV8heGppRG22QrLDAYUa70cA8nOWDPC5Re75CCnertoRQHw0Ut48zPs9+LPRZ0zzeoTk+/vps1uKe8D3gu/J2+0clN2idWkWamFoPKKXI3iQ7GPa9VsQATx4O8H/AQJGfomQ3yshwq4L4k8vgNztdpGBXTUBPEaKzwutCEAeG4GUF3cK/p5u9og7PR8RK7uIexMw8gtxr95Sk+AOaacteSKyAbG6zOrjCj5LWWcSh7euiIfV+8mmYoHHHpmJ5AcHaQd8WKyArwsCSGMCeHmnEObHQ6EJxR75Q9yroEkm4t69hZoAj0zv7WdhyBfQjdpvKXb+7v6KIZryt0nN55h6zJ5xSLLfBvmrG8US9LokgNRCEECO63h5A4m3tiFm9zhxD98y84A1gZcklqQNGMKEOgj19SDbyuttUvuDJpsg7vDvSH12Bmmejvr13L/lJoB6cRb3ju9h3OHpIqHprdIGROWpbIgBwdru/KRCEfAH0U2MfxvU/EC27/+sjrhjfylA7/d2gF6ZALRzAsrjopDy2kE/18aOQ7qncUf/RMjM6sKX8paYB0mkwY6iTczQf7BANr+V7Dti0IkkIcX9Sw4c9z+E2bZE3Mm/IX9t/9aBXjkK4KKdCZCSBHnQG8DXSb/X+PoW4k7MEfdclCMXfxIIo3U8lcfEG5CtWYz/OyKAGelde4pvss7wzxC+qBXiz9q+Ffa9Ro44n2eQB3tA20MeEQC5xyNpyIruefyZhQhb2AIBwz4t/k1ILWW/k3xrQHje4P80vVFnQHFOzQ2eVhaxB39DqvOFt1LVz5MEgtyQlhCnnRaQFI/416RFSEQCfO9Tnc4h9sAUBP9WprgnF3FvgbFkEnxqQLp6h18v2v2DinMhTuTqniKrrbiG8gorqZ5PkBoeqLUWkBQdgbB7ZyH3fiJhBuND8Z1E2HWl7+iT4lxEFEQE0MeAdGXgfxRoLWtDNyemuKr7wTMqI8n+H0lTc4uEAF7fR2qwV8F3f7kcsaHBuL5mMVa1qALHJZMR73JTmBWSXT99N4k3NiGEvquAYZ8VSxIQa9xC1tYwoSgrvfcjUo3aEDu+LnbAH/KxUC2jd46G/OX1dxr4OfL3Q7yQVoB+AKlJSfByvItjv43GovplML96KSysaYRDv7TAi90rEXrrKJkF0mlMqS+uIXrHKARPLSP6JBRDTeA1bXpt/d93EvC1ELn9zYkA7ha3JB+uyItc00vs+rost30bJPbZTSRHhubv9EtJQdBLF9zeshqbev0kgJ9bltUzxZ6ejXFt7q8IOrQCSfeIDFyuinoAvZoF9J1xMlHEqu70Xf6nOGYM3qV139z3fa0d8B8uK+FnJatJcqW4te/ijjpxx/4UGWnvE/AzJInMgPhAb6SpaQnGwPd3eoxrdguxw7J75q6fl2xuWAovBldG4NTWCJ7VDaG2AxG2chiidvyBmMOLEX9hM5LuHELKk/NI83DUoTZwXeQPcHfjYtdmzFJ2mTbAmmQOvH9TiYIGy34kFjxf3MDPteuJN7a8d7t+bgm6fZZU+8QcwI+PCIfz2WM4OM4Kazs2wuL6ZTG/hlG+4F9brxQcuhrDq78JvLPLADP4WJaH75Aq8BtRE/5j6sF/fCMETGqBwOntEEIkEbFhApxsx+DFxlkIvLBTe23gxib6bmsUv/bjVrJzRAA/vl9Ov0Gyb4n9Lhaf9N4PEDj6a0RtGoxU16vvXGhPK9DQPYh444I3t6/DfpMd9o7oj2VNK2NhLVMs0AD0wg9QoxS2NDLCw27GOYGvJKbwHVQavhbl4WdZAb4kPhbl4DO4LHzo8R3NTGBb2xi2dUywrL45NreqiOMDW8JhIZkV1w8j5ulVJL26i7S8kpA4ZOh6BVEbB4rvuhhVHBIGZBf8B74n/QS4ewrJpuKU289dcEUK7zsa2tNWvI6ux3ICnCZgzy22BP7dTY3g1DM/8OcUBryvZUX4DakGv2E14Te8NvZ3KI0VTYywrEEpLKlnhEV16PVrlcKCmqWwqJYRtv5UGRd/7QvXPSsReHk/Utwc8gwZ8ncdPK18sSogIlNgQ4D1O54tSB/wU1J5ptIHjigecf1PREfcpFvbDLu+CmHP/dVpllhcy7hA4F9CwDzSshSe9yoY+HMQwQBToQH4WlXCvnZmWN3cGGtaKmR1CyPYEbksJ+1iaX0FITAZLCYy2Na+Bl6tmICEG3sUzVDVaANJt7YibEEzBAwpNnkD4QFWsonB72oFof9w2QfEcl1p939VHHZ/ofJvthT96wzgV682RzqcxYlhXYQ6rwn419UvhSsdjOHW10Rr8GcXz19M8A/t/osJ5MsaloJdMyOsaZFFBiz82IrGRlhCZLC4dinc7WqGgAlNEL56FBJv7UOaz1OVn42/ezb7REei4mEKuAZYyjrB6h1sOU4frhJ9yEvFoaEHe4RjD05T9NzzN4A/T1+A7zNSq/dhd7+WeQJ/Ee3A+5sb4XF3YwFaXYCfxZW0iI0NFO+xgEhoIan+S+qWwsrGpXKQgEIzMMZakuf9y8JnoBlpEGXgP7ouItaNg/z1HZUlx/I3dxB7YCqtie+Ky5Ti8zx34F3L9CO7v8T64hDr504zCRdWKPrvGQCusSbwct8q2HWoi5lVfsTf1UpiHtv5BPrltOPuaVoKT3QM/AxhB+KaemqcjDVLCq1gFWkAq9O1gs2tTeA/og78h9UUTkWONHgTGXBkIf7iFtX5B75OYp5CMek5wBjZwBWx7wT4WZ0hAvi16MN9H4jJOImczmsAtVbie34X7H5uiL8JeCvrlsQ+ssU5vPemn+6BnyHXOxoLkskz2kDXs5RMj5VkKhzrZK4gACG14WtTlbQBc/FaHGqM2j0L8leqG5dwqJCblBaH8CARwFj0eQfyAwKsZM3pAxVtgY/1hwidVZvswa0Ge7+wJHB2Oxz+ssLVHhVwqZMprv9sirvdTPC4hwmcepngRR8TuPXTnf1/rJWRxv6HRbVKwrFXafgNrQH/4XUyicBvSBYJ+FhXRMSGX8kkuKuy8Uji9Y0I+atmcagsDPC3lDV52/P8zdPt/qJz+tl8hLB5jcS4LE3HYxkkn+jAC3v47ZoHh2FNcbmzGS4SEbBc6WyKG0QI9l1Nca+bKR50N8XTniZw6a0ghtd9TYS24KWhqeBC9v8/jY00jj6sI1PhVR8OJZaBr3VlIoFaqknAqoLwC/AcBOWeCE+RdHsHQnnMWdF2HWLMXPS3kJm/rTv/56TG2KWPVy66nZ/An/Lo2DtfxSd59yCypeMfX4Tn2sm43rN8Jglkl0vppHCV5NrPCm2B5WaXLLlLROEgyMIET3oqtIgMwrjQjkOKJTUmgDNtjOCRoX1wGJETi4bVzDQHcpMApyCrK4hKfnikOJAAYUe2MmzgW9ZSzM9S9omflbD7w4tu5/8Q4YvbpLfpMqj9+owSpLy+B7dFQ3HHqgGu9a6Eyz+bqySE/ORSNjne1hhza/6ACRW+xySSKRW/x/RK32Nm5R8wu2pJzGVHZLUs8NvVKaUy45ATi/yGVM8iAetKIsdA+ARG1RE1CKrbmDlD/uqmWENFTAKhZAqMCx74lswaoIv9kKQ9XfiLolT7eecvboM33nnT4NUdhBxeBte/LeAw+ifc7FcNV7qWEYAuCBGc72CC1Q1K4lcCvjqZRIQwrdIPIioxh8jgYItSeN1HTVLRQDPhDPQfXlsIpxpz+jH/L+iPTkh+fC7PHoShcxsWNQk8J02gbaDlW1A5GGgl+54u9kRRqv08nTbl0VHDzl+EEu94GkGHlsFz0wy8XDoGz6b3xl3LerhJGsLVrqVxqbN6AvinaSlMrvh9ngSQXWZW/QEnSP13JvPB4xd1mYVEAtZVFCRAZgHnCGSYApHbpkPu7qC2PXmWOVCUjkHZ8SDC1tugAYygCy6yVt6hs2qlO/wMNn+xMRM8HyHx6WVEXtmFkNMbEXRsDfyPrILnlj/xYp4Vnk3tBoehTXB7QA2c6FgGM6v9oDH42URYVOdHnGlvInwNHJF42TcPErCqJEiAaw0yHvcfW19kDKqNENFaSrq9HSF/Fmk1YTxha3hx9/p/lz7Eo2iKen4rI8ZSG7z9b48jMeXlbSQ5X0P8owuIfXAG4XdOwOfaUbw8sR3nfh+G7b+0xuLmlfA72fsTVWgF06r8gF3NjXJoEByJcOqpJtpA9r+vjUITYCdhxmPhq8eQFvAgj47JT5B4bT2Cp5gXpRbgHjJI9nXx9PpbyD6mC1xbVCE/zuIS4DfE+d+Z7EO5z1Okej1BCmkQyR6PEON8E45rZ2O3ZScsblsHf9Qtg6X1jHBBhRlxmbSBxz1MVWYn+nD5sU1V+A2rIZyEGaZA8v3j+Q4oSbi6BkETShbl2LFVgZayT4pXtt9wWYkAS1lHukC/IsntH/Mt4s8vMYDmPRNOT37452DctmqoMvLAIcinajSBDBJgk8A7PSoQsXmyRu8bd2o+Akd/U1Qk4BdgJevEmCtOuf7G7KQoikIfBn/s/sl6n0hjkOJqRjxG+MXtePJbD1zpWlaJBNgv8EJtdMAcfkQAGVoAdyPSqB2Z7zPE7J1YVCRAGJMdIxIwKi52P8f8x4oRSFLX8w/7DNHbhyPtzT0DGN5ziXt4Dq5zLXFZBQnc7mqqNvuQswYzIwKD2Ye0VzPieXMX0duGFtVUohAigVEhg2QfF4cy3xokd6S3/T9A+NL2SH1+2QAAgwhJdr2F+zaNlROMSAvgDEN17chE6TCbAfQzYuMEzRuOulxE+JK2RdFejLF2i3BXrWhj/payL/wtS9hKXuZr/YGYEpvscMAQ6zdIDom5cwxXu5ZRIgFOO9akXNl/6k8FmGrkjKT7e2ktVi2KHAF5gFWJRYFWsi+LMt+/bVG09+KJvPHnFhsWvEFU+ASewPmPvsq+gJ9N8bxP/sVHN/rVQtDZgpWMx5+xLaq24xGEwTZFAv4IK9kn/payq0UxnDNm1xjAxxDrN4jq8GHYxR0iBTl3WJCLjVQB/yURw61ORtjRxAgrGpTGkxXTCvaePk8QvX1EEWUKyi6E2BSBL4DeuL0YbiDxB+YmnoYcf4PkuSM/PAeHoY2V8wKyEYB7P2M4djXGubZG2NWkFFbULoUF3NC0jglu/z1ai3HltxA2v0lRaAFJhMWfJAW/Tx/Zx35WslOSZ/pNNkXSvT0Gu98geU82cr2Fh38OxJHWRply7CcjnGtnhPME+EMtSok+g3Z1S2FxTQXws88yuPCbjRbv6yxS0IMnmxWFFnCMMSll3L+n6Fgiabz/O4Xdb8jxL2bDRJ1En700dwekvboDuetNpD46g5Sr/yDpyGIkbP0NccutETOnB6JndEDU1FaImtAYkWPqInJYVUQOrYKIkbXhO7wenljUxeVetbC/Q1Xs6VQDB3s1wtmhnXBrhjWc1syEz5kdiHpyDTHPriPhuT2S3RxUDwMhM+DeliWiYjBDuLjozyo/CoAvyKevwMlJVloPVo0/uyh98IikJOBPmOwiVbHPl7T775Uy6Sdg6L8RtcUKcndDvL/oxRlpb+5D/vQCUm4fRNKZNUjYMQOxS60R/Xt7RI6ogQiLMogYXFprCRhgjgddzHCslQm2NDTC8tpGmaBdVNMI65uWxcGeDXFjyiC82rcaARf2IOreKaS63c9MBb+3dZlS0dAflX/QqLGI1gSQnh8QtdmC1uy/pJ4zuCtA3xEBzBa2f1d6Q3cp4/0hf1RND/kZAFhkI8NdbyDl1j4kHl2K+PXjETOrGyJH1So02POS8EGl4dnXHHfIfj/CXX/rGint3rZECBublcOR/i1hP2c0nm9diODLe2G/dq4SAUzlhiLpXY31RQAiH+H+foTMqCy1FvDan2cK6LnTz7f0RmukdP7xmG7u225Q/Ysmzdb3yDo4zhuD+5N64fGQZnDpVxFv+pgjkHbpAgHasiwircoj0qYiIodUEqq/kGEkw6uplmHp59D5gRYV4Ny7LK50MMe2RsaiJXlu4PLcALsG5tjZozF29mmOxbV+xLTKOUuLJwoi+EFoA+qIoLAEwBEqTk+XeCx5sr9lCTt/Cz3NGGRmoRdvRm/kJiWzcYdWudsdAyAlDKPF3j+FJ7bjcGBAG6xrXQ3L65piGanhK+sYYRXtwmvrGWEzqeb7mxvjcnsTOHU3Q1B2QmCwW1dQgHdEddIUagptIXI0S22y/1nqKGQsS101UifrPH4OPTd0ZC1421SH66AqONO+NBbWVD+YdHH63IItjUrh9yo/KGkEUypyR6EfMK96yRwaxaXfhxaePN1uI/SvWkWhBTTVV7nvlwGWJZZJmfLLtn/y/X0GUOq7YQftWPHON+F5YBVODmqNVY3LwraWSb7OMt5xeSfmsV12RAhbWhjheEczPB5QEb7DaiJoZG2Ej8kL4CoAn0PyPj9sdB24Dq6CA+3NsbapMRbXLaUghGxtxBekzyo80doY25uUwl/VfsDkSjmJ4LdKij6D89LDgPZzRukmGnFvr1jDEqcILyIS+EIfcf/aknr+rT9E1IYBBtVfnyq+5yNE3juFF/8sxsEe9TXqvy9AX6tU1qy+pkZK47l4eOfqZqQhtDXDnT5kMlhXR/DwmohgTWAkSw0liSBNIWJYVZIq2aSqeDzzPKFJpGsTGVoEEQGTzHOLKjjZtQw2tTTB0galxMDQ7NoBE9X+Zsaw72SCvc1LYU51ZdOAzYLljcvBdeNsnflOItf3kzpByIsIoLo+CGCJtCO7KyDl8XEDUPWi5jshmoD/dNUMHO7fUux6+QGfZ/LxDssTeFY0VkzhYeGhnDyldxlpAEsbGGFJvVJCGIAsTBSbG5vgdFtzPOhWGj79tXQKsrPRspxCrMojwqYSIoam+w9G1BCkEEYmxqMBlXGiSxmsIyISA0PrZREBawPb6Frv/2yK251NsK5BSfyWzUfwG2kG2zvXQsgV3WmdKQ+PInhaWUlNAT9L2TzdOv8sZD9KufsLx9+RGUjzfmQAq653/Ze38WLNDBwa1BYr65tpFBZbULMkbGsrwJwBbNYCmBR4LPcCDSf3rKhjhD2kql/rYAqPPubCy1/oaIEghrLppFBRaA1+NlVwr29F7G3PY8UVRMVEkHGd7MPga3DvY4bzbY2xqt6PogvxTjr3zsifIPd4qDvzyusRYg9NR8DwzyRtGhI4WPY/3RGAlWyUlLZ/+KLWotTSAFjdOvdCzmzFmaGdsZps/AUaDtvQtQibvBaPETfCydYmggh0Gj5MJ4Qw0hS8B5XH+S7mWN+KzJLmCo3ANn3O4DK6hottTUQ0w72vGR51N8WVn83xZukond/7VOcLCLNtJakvgLSAEToBf5iF7F/0Yrcly/gb/73IpjL09tPRDkTqfuyji7g/dzTWNilHu6BR1qhttufThcd7L04XBmh24cf4HE13ek2F359f/9RPJrQbmyNkoO5zCcJIy3DuaYqtPDqcdni7ZlnaAH+uUzxNuL85nWcOz4HlkcR9AXU9OZrWcvyZhQgc918pzQD70ME6GCbC5YaS9frjnv62LcVEFgN4dWB/ujvC5+QWnOzXWIzY3kg2+vbGxkINP0g74rGWZJsTAM63McHldia4Tmrx7U6muNfZVNjJLHfpd378LJ1zmEC0q4kx/mmkCAOuIVWaAawLMrAj84B35Fe9zBA6SPdEwCC/QJ9xA5kDdk2MhKOQfQNMfCdamcDnF3OhPcTM6ooU+/2Axj0BNDS9XlwXhWwSDhjxJey2LhT4g/vIPiT131aqPv+BI79E3PHZBvDqQu18fgOB22bBvkdl3OxoisddTeHW2wxBAwuvcrPazBl6z7qb4QaRw3EC0A4iFru6mk/yVWcebCKSYsLh19c1CbCG8ZDuAzsCl9RVODVZE1hUg0nAGAH9FSQQPa0Nks6uR5rnQ51+J3HHZyFg5BeSzREgLWCBTx/ZB4Up+jGlF7oslf3PKb88iskA4MJ5+FMdjiN2xRAE2lTTy26qCliswj8lQrjW3hS7ScNYUlN7IuBdeTdpGo5dzHRuFoSTvCAtYy9d44JsZg2/5xkyRRSOyTKImtAEiQcWiKEmOtMCXt1AyO+VJGwhXuKS/2CZSWFSf3uJuKJEdkvckT8MAC4k+Dlfn4tyIqwr6B34qiSUAMvqtEsPM6EZrKitvTbAZgGbKD79dK8NeNNrcn1B9vdkc4ajAxnnRI6oiYR/puvUHxV7aJqUzkBPfytZD+36/VnIPvO3lC2Vqt8fD1tI83hgAHEh8s+Tzm9E5Ej9FugUiAy4mIeAdoFse/YX2NbQzlG4vr4RnIlQwnSszbApc6WdiYgIZLwfpzwzCWRqTkSkcWvHIO31Xd04ZT3uI2j895L1DeT8nUAb2WfalP1Wpxe4LZXzL/bgb7r3vr43s/ceIun0GpEUUxyAr0rYpj9LKjaDeZEW5sFSAuntzqbCmadr84V9JDxePLtDkp2hGeZH5JDKiFs3TvQ60IWWFrtvkpTOwIJ3Dw6wln1IT/qFnhwtzUy/skh5etoAZm3A7/4ASceWIWpsfUTSzh8pqu7KIcq6vJBImwqIElIRUUMqpv9eAZH0P06eCadzOWYealEWQYPKwJcAxuox//QfoAjN6cqPkGF/c0SBiSAvhyHb5gx63p0zzuO/OXJhT+B07GoqXusNEUuGsLbhJ0J6BScBBnx2ElhHGsvjbllaR+Swaojf8CvkLwrvo0p5cgLBUyWbMRgZYCnrEzyoAKPFCfxf0xPXSmWrRO8cRbuYQf0vkNCuL79/DIm7/kDM5GaIHlYZMcOrIGZEVcSMJBlVDbGjqtPP6vSzBmJHZxPxeDVEj6yGqBFcelsVESRhQ6sg0LoS/CwqwmdQebj3LwPX3uZw7mlGP83g1sdc2PfBhXTM8fMzfAS5y3rZTFheuyQW1ywpbPKl2Qgg+zkrCaybGhphTzMjXGpvjDs/m8CBSIETelyIGDi5J6QAEQ8mOQ5/Ls1mDmxuYASPbNEIQQKbp4juR4UzAx6IgTaS+QIsS6wijf4rzQlgsKy0n6VMkqYfQb/+iMTrG4tdnz9uNRVmfwz3F4zD2dE9cdCyA3b1b4cTw7ri/Lg+eLJyOqIenJU0YSnt1W2kXNiIxM0TET+/F+L/aIfYCQ1ygjuXeFtVxYVOZbGnpTmOtCmNuz0rIGho1Tyfw4QRPbI6IogcQogU/K0q4U3/snjc3QyO3RhkZnhGAH5FpMA7bri2nX/6lxadf7jEOMMJx+BnE0HTcCKft6puKRxsYYSbnU1wt4upECaDpz1M4f2L5tfHJMCaQEZuAzsi9zUzFklCmSRA9y5h+4xCJwYlXt9Aa/8HqZKCXpKYFcT+t5Yq9Cem+7heKR558t5PkfDiDpzWz8bmttWwpH4Z2NY2oUVmlBku4ky6hTXJjq1NC6VBWRwZ2Bqv965E4qv7qvvTFaKSjHca+bNLSD6yCPG2vyBuUmPEjq+L2LG18gQwV9C9GlQZRwnwS2sbZfbBU5TvGmE5J90QKfhaV0UkAT1PMkgX1iSi6NwQm8pEBuWIBLi4xwz3CWhMCi+IDNhsYHW6ICp4eLp/4EI7Y+xtbpRjBy6os5AbfV7tmEUCLPfo+l73yd+BGJ7NHLhDJLCiTrYmoW1Ncjyfm5okHrIV7cC1z9O4nD5VSJqQYICVbFBBCOCIJEU/wz9D7IEpxSLtN/nNA7zcsxJ7ezeDbS3jAi0+rqY7PaIbQq8dELX1hboWr8eQPz6LlDOrkbDcCnG/1tcIoAqQ1sCbwVVwun0Z4c3O77pX1zfG1S7l4GlZBdGjamj8PiysIQTZVMLLX8rhSc/SRARmuNdFoYK/6qPQDBhM4Rr2AOQBno7djbG5YalC1SmsJm3gMpkE2UmAxbWX+pwCBjeHGoMGZNMEyBxgzYJfkxuhcE5C9uIlbk6SdGo10uj70tYZGMNdg6QqErKU7dcs/DdY9hGd7C+J829aOSTd2Vn04Hd3hMPS30T3G20X3nqyFx+NbYuYq7u0i2Z4PYLc4TiS9s1B/Jyu+e7yuSWE7NN7pN5vbmxasHg77XBbm5jiTo/yZBpUK9B7KqQ6wodVhcegCnjet4zQCjJUcIUtbi66BakjAs5MZPA791bI2bbaRQlyZBM2NMK1XJoAaypssqhzaLIWwqnPQQOz8hnY2bgsfV4Apz+79c7pU4ie0gLJV7dr3bMi6fYO4QCXiAC8YaWBIzDQSlZZEvXf+kOEL/6J1Nz7RU4Ad+aPFxNhtF107Mg61NJIzKJ3m9AKcfYHCzRVJvX+USTtmI74v7shdkzBgB89SqHuH2urUPe1/QxLahnh8E+l8XxAJaHqF5wIaghHop9lRbzsV1YALgN4T3soHIi5+wjyjurW1zQT/CyPehhjff2s61rboSFOzhiPG2uW4OGBHbi+ehEOjbfGylY1ML+G6s/LTsJdTY1wq3NOEnhApopnPzO1ZciP6FovtTMhjSTLHOAaiYxMwYzCoeyVhzGzuyOVNDbtIjj3BQYkCgnKAy1l5TWJAIySpub/C8Qe/r3Iwf+G7PcVjcoWqpCFVcWbnY0zF/GbSW2QRLZ7vgvgxS0kbpmIOHbmsW1fQMDxrs8q/PqGJmqdZqzms73/pG9F4QDc28Jc7bn8+NoGJrjycznx2tqQADsQObLA0YTnfcrk2IHZPHjdJyuK4NffDC7ZwJ8hF0mFX9qoAi7Y/km36SliQ4ORHB+HtLQ0JMfFISrQDz6PHXCCiEFt7wHauc+0UTYF2Hmprh6CAX+ylTHOtTHJ1ASYtDIyBjkkyaZADn+CVXnErRqBtDcOWmcGcv8LiQaIDM1P/S9BJx2SxPs/ybjIa/7D75zElq6NVS8i2l0WNyiHTT1a4cKCGXhx5Szc79yA68VTOPv3b1jfpRkW1SstQLOnWSk4ZV/EZAN7/f0L5KrCRX7OInEn5fJWxP3epsCqvmLXrwF3iyrYRqq7quw6VutX1DUW3n8GchSH/dKfx04/V9rlWe3nHvvqdtCNjWhn7l9JOBS1IoJ0PwETgVNvhY9AOOVIHnZTNON42cdUCfwsz61rwvf2JaQmJUHtQWSQFBeLm+uXYXF91QS+vUnOyEDG+3v0NVNrknDHYy4WutreNJOovPqZiwpK/q65NTlfe86Ox+WQuG+uGJJSYGeg0zkETTSSJhpgJdtHZkAJ9bu/hew7shVeSHExEXZdi9zpd2HKYLUOv40EfMf925EUG6Ny/UUF+OHmuqXY1qkO7nczVlrEL4bUQuTJNTkdnKTuyx+eQuKm8YidUF8rUIUSoB37VMDKusZqVfl9LcmuHlg5T8de6PBquNG1HDbkoT3YEgmyQ5HJJnJk4YjAe3AFPO1VWgCQgejYzQROvVSAf1AlhF/cDU2PxOgoXLNbiEV1lU047gjMJcC5tQAuWlLnC+DdnecQcOoy+wAyzntF9v8/jRQFRAebmyg9n6ccpdhrN7sifHknqfwAz0Ot82gbTie04zFDUlxM4o2NRUoA3qe2YXPHuqoderS7826vyeF1Zi9eDKurvJPRLuG7yAopLxWDTFlFTDllh/h5PbTe9dlbf7ZDWbUe/tX1TXCNTILAIdU0fk0mCrb9F9dSbxawY/FujwramwXpEj60Cl79UpbsfDMSE5W7v/eS4UiNi0JBDn/nJ9g2oLNKTehYa2PcyUUA7KAMymOuge8vpPa3NBatw573MMsMEzJxcAYj+3y4rDjn88qIYSly54KHtBOvrZesVViePQL8LGXTpUj/5c4oaR4ORUoAD9fPxeLays0wV7aqCafTR5Eml2u0+NKSEhB8cAVc+pVRWsyvRjdC7PU9YoxW4qYJiJvSVCvgsFPuQe8K+KeparWdQbq7hRmcfqmk1U4dQIRxu3t5oQ2o7+dnjGNty4jcgcKQAGcfBlhVIiIwV7L/+R5G3jpO9z61QASQnBCPS0tmw7a2co/DnWQG2Hc2VdICRAOQPEKTrj3NsKE+N1AxynResnbAkQL2BbA24J2rSpFrBuK3TKW17VjgAiGefSkBAUSRiT8lr/Dfbimq/8IXtynSdt+xz67h9Ni+Khf6mTlTER8RVqAFmODpCvcZ3ZXVWVogIQv6i6y92LG1tVb5T5EavkKNys+e//MdFUk9MYUAZtTIGng9uDIOtS6ttmqPTQL2HTz7pWKh3ovzFThi4DWoHFyyhQBfjmyI+FePoM3hfPYYVrWpo3TN6+qXUvIDsLzubZZvKzFuTMKJSWcz+wRkRQa4nRj/zP28qHENkXxhU8FyWwgLYQtbSFUduCtY1SRhP2tZRamq/+KOzCjS5J/gG0ewo0s9pcWyrGllPL94SjiYCnKkpSQh5PAqOPc1ywJ/X9plLMojihf9mJpaqfwc3mNHnyobnWPT7P1/1Lei1mE7JWAK30B14RtYVU99MhSbIGc6lIG/TVUBZu2JoDoCrCvCNT0U6P5nLyT6umlFAG9uX8e6zk1URANKYmPDkrj9c04CeJkPASjAbi7i/+xLYH9AWDYS4BkDPLj0ZS8zpaakMX91RerD05qnt/M0poO/SVYdGGChIhxIzNCd/umh9/DfsE+R7HCwSNX/wCsHsKVdDaXFsq1/J2FPanNE3Tmd6Qt40c+M1NyKWoMjjEDo0KsC1tY3Vpu8w+aA2+AqOgG+KuFdPq+kIiagHc3MRKQgspAEFDasCtwHloHnH92R6P1Sq/vvZn+VCKCxSkfg1Mo/YF/zUjl8AQxcTVKWuQ8B5wBsSO9JkBE94A5IWxoYicpGVWHF+E0TC9TfQjFFSJKJwm/8co8SJ/X/A7YNpOj9FzKjSpGH/7zP7IRdQ3OlxbLDohsCXzhrtQCjHS4IFfYlqf2BNhW1BgOr8hy+U+flX1zLCAdamcPLUn/gzxA3Mgk4b4DfU20OBGkKrDEoZRGS1hM/syMSlgxGgt0wJKwdi4SNE5CwehQSllogfl4vxP3RPtMhGsm5A+MaIdH5doE1MD6enTwk/DfKvouSYhTYzKrf42S2vAA2ATz65t9yjEmCZyDya3EjVd9fcvoDWENw6aEcVuQJSMlXdxSodXjI9ApSEEAcYX2S//Bs4UCy/T+nf9hJoYJEru4lBicWJQH4nt+Ntc3K6ZwAPMc2QfCQyqLcVhvAcRbeHgKcrZoMNyaFS53LIWBIwRxxHMtnb/990irYUaipN59NAlbzL/9cDnZ11ZsETBBcePSaTJbY39sicfNkJF/aTov6FuTerpAHuEMe4ou0iEDIg70g96HH3B4i1ekmks5uRPzCfsJHwhpT/JoxkPu9KtC953yBK8vnqnQCLiUTYHLF7zGBZGmdH3Glg0mmE/BNHzM87WaWZ0SAhZufLksvTeYQYYbmwE1EuWXZ6Z+MVb5G9J8/AxpqAfLX9ohY1V0qM2BlsLXsP9m9/6XowX3S2P8zRfuqoiSAoGuHsK1jLeXYf/eW8HK8qxUBxF7Zi7BRtbRS+1mF5jx+tukX5LHTslnA5kFBXpsBv6eFGdbUN8HyOsbiddiRd1WECzUjknAiEPY1cJag6slBJthl0RUvD25BsvszAnoQkJKs2Y1LSiDAv0byrcOIXzRQZEQyIaS+uKfxvQ94/gzbB3VReW1/Vf1BgJ9Hf03h0V9NSgl/AAOWY/mPuprhdkdTBA7Iu6X44RaKz85di/2yRRDYFOAGpm6qfApW5ZG4f76GA1qfiAlCEhHA3gBLWcnsvf+r0IPX9J79N+5/6bX/RZv+G3bnJPb2ba5iIRvjwZ4tkGu6eIUHUE6L9T5iZ3VRDyJSc7mUN256a8Tb9kfS7jlIvrgNKXeOI/nJVYTcvQiXE/twZ+sa7B81CCuaV8Oi+mUUpcdcrEO2uPtgzSv22Cn4xoI9+uYiMWiBmvoFBvTNbuVF3kB+xMX/9yHzZHdzc0UokjMl65fFLuue8HSwF1l58pQUaH3IU5EWFYKko8sQN7U54ma0FVoEOCcgD5MgKTwYtxf/Lioycw8uWVqrpNJY8GmVvxepxiGDspqTcP4/zyTIq93YI9IUeLQZ30s+N3sZMTcSOUNagKrswqiJTZBy94jG+QCBY/9PCgK4Slp/5ewOwMb0oKu+3zh0Tr1iMfAz5c0D3Jg7XtT5K8WNrXoixI0dUWkagz9eFfjJBo6b3ETYuolbpiDF8bxY4Pm/pBxhXu64u20d9tj0wsnutRA8rLrGKjubBwxq3vE1rWXYQgTztF9FEQHQhFwud6uMXf3b4/7OTUiIioCujxT7I4IAYn+tj8Q9cyAP8hT3Wgn8Qd4I3LsYz/qVxeUORtjRpJRo67UwY+pRTR7++X0OAuBx4FsblcoBdv/+pXGohbHoUKQuP4DP5+SgBek1AV7ZcgDYJDiTPt1IWQsohzi7YaJ1W77ZqY+OIXRWHSkIwIUw3yi7D6AjPRiud/t/Ddn/b+4Ui+Yfz7cvgV3jckr96Dc3NYPr+tlIjY3Md8dKdbZH3Gxl8MdNaICEVSPELi/3ctFcHc51xAX6IOHKHiSQ1hA7uma+VYGuAyrjIO36i2sWvCpwiQjtlRX9BKLz8mGQih63ZRpiXz5GWmoq9HLQvU2+dYhIoB1ix9VBwsaJivvIBJmciKQAT0TdOwuvRUNz5F0862WCa52McaCFIoFnGdn8kyrmJICpZAbMr15SOPBy1gCYiRoAnn70Rs28Qgd6DrciYxLgaULZowhMHDc7mqiMLET92hjJl7flG/qWu0nmBwj1s5J1UEz/seIIQInBek8AsvkI0btGF5vOv5EOZ7F/cHvxZWZ0kznxkxHudDGGC4HAf9sspIQFqF2gKU+uIH5+n5wx/rG1hdc75fo+4fiCXAcAoZ1P7vYIiVunCTCoCxtyPT8X8BSmqtE2vTcAVw2q8zUk7p4Neagf9H2kxccg6fQ6xE1sJN43fqkFQrbOhO+aSfCcOxAvhtWDs5piIi7Lvv2zMc61Ncbi2j9iYjoJ8M8/q/yo8Pc0MFKy+526K9qT7W1mjNe9zVVqATwabYFoPKLw/mc3BZx7mKp8Hg8rFRWDr/Jxfvs6if6YjBU9E0Cqv2WJgf79ZR/w7v8pPTBd7+m/o75E3LE/i1HPv2d4smoGDrYriysdjUVBz9NsxSkuA8rDY05/hF/ai5TIbKo77ebJRB5xs7vlyOkXNuu5TZD7uwGpyTpGQxrkwd5I3DWLSKBurjTeqiIph1N11U/aMRK2O5f5sl8gr/78vLjZWcj1AcG5QnsJK4ciLdQXUh1pIaQBrRuXlRU5tApek7quCvQ5CKCHCe53UXj7L3cwwYKaPwjVf0blHzEvW/p07kw+3r3t03sC7miimgR4FNri9J6FrAWEZgsjsnOQ6wVU9RuIHFUbyVd35qsFxB6diYCRX+q/HN+yxNQgC9m/ZX4Wsm+IDTbof/BHKSRcWlW85ud5PYbvqrFw7muuejHRDsNE4GpZFW5TO4mdx2d6Z0SOq5epkvMOlbDhV6R6Ommt6mtKAmnhgUhgTYA0DbbFXwyohO1ksqir5mPgb2tqKlJ8ORTIZcEccXhDf28mbcG2Zt6dgthJ6JKe6BM3syNSXz/UKkZfmM+c4nhO4Q/IljTklgcJ8O6fAf4M4VTg5XVKKn3GNbl2cdGhaIC5GJbK5iAX/rzomTPGz1oAVwqKorH05KDsWgCbAt5qJhnFLrHId8BIwiU7MSRHAjNgbYC17GsZ2QI/+lvJzuk9AWh6RSTf31f8+up7PYLH7z+L6r38dhYuYAkfnpWAEzezg/BUpyUnSYYJjqtHLehPanpFtclCDF52Al7rWk5tmjDv7mc7lhG7fV5mAf//ei8ij9ObReGT5EdiHBI3TcqhbakiAS4tftxDGfzcsJSbgrqll/NmJ0u+T+z8C8gVw2cAc9IPa0o8JMQpV/nw6dbGmc/n5iHZk4k4fThYXTty6wpIvrgln4zAPQiWJCFIdprkB44AmJG46D0CMLtOkWcAqg2/PDoLz5ndc+TyK9X3c9bY0Mo5bf1HF3Vj5xfwCLp0ECsaqm6CwQ5Ajvvzzp1fjQAXGtl3Kw+7enmTwB7rHgh97YqiOlIeX0Lc5KZK6cNsDjil7/qO3U0yew2I9l9dTcU8A5/0tuAZQ0l2Ns5JAmzzc2lv7hAe7/xbGyrsfS4LftAla1IQ7/qZEZSGyr0C85KYv7oA3o/zyAg8j9BZtaXoDfCMxJR9ABVIYvT9hmG2LWm3fVgsCYAdk4mOp+G3fDhcLaoogd+VTIEAYu+MxRe/eBBSXz0gWz+lSACRGBuDPUP7qlT5OY3Y26qKxglJbBo49q6gNmy4pGF53Fy/HKkSajnKDsFoRP/dS7klGhHys15mmf0Hc/T+62uulObLIH9OwN7cMCs3gn9yeM/vF+V+hY+7ZbUHz2gQwnn/bCasrJMVOcqeHZivWJVXRATUjnl7gLCFzaXoDhRJUoFHgLfUO9vYfISINb2K+WRdZ6S8uo3IE6vhMSPLJOByVV/L8pmhMY75pzrdKDLwZxa/3LyiVBZ8r2fBMwUzQoisMagyKTZ0a0H8+BhFfTj9PUxlchI3Ic1NANzww11N2y8GKqf2rqyTvbqxFJ52V9YCwtIHhcyvVjK9stAINzuYivbhB5tn3SseNR6g8czCMoiZ1zsPLcBZEQrUfySAG/825TZgg6To/x+zZ9zbMWvP9xnkHo6IurAF3nP7w2dELVKlFd5wzlBLuX9Sx2q/nLa4OCKUUJLAdAmihyM56K2+B0FUBHYP6SPU2XUNTPCcABw9qnA1+kwCa+tnpSNzZuTRqaPUNOhI462ZrjMs13VH0OOJOtZ4onHIppvKHgRcUuw5qLwYAJKdBLjvoLqkHt7dueFH9tHlB5oZKfkCMhuFts4yG3jH50Eh19qb5Aifvi6AGRA5uo6iZ4CaNRi9a4yomtV/JEDWjzWA0foPAX6N+LOL3q7Ze75OSL2+E3Ez2mRm9iUeWKhjj14kYegi0kJGQ+5dHvI3/yL5CHL3LyD3b4u0qI1AkouCJFQUwDz4Z62oDPSw0E1lIJOA8y+VRD4BO7i4KarL+RMqrjuaGOgW0sKm03VXpmv+JOu6/ZoiLYK+6yQnvkqd3CYu0V7TugaRcT3VtRQjqolWY7lJgEeDBaop9OHd/lk3MxEJyACxU3dTtS3C9jbNIgEmyK0NcyZbcUGQxmPRLMoijiMCajoJx51eQJj5SgoCGMZOwGlStABLsv/nrSIAbuMlOvlk2P3ze4tqNt15tjzp9RZCHtATci9zJL/6F0IdP0bQ/Y8R9fTjdEB9SoBqTgrCGSVtgFtkRz26joARtXVaAsxaxLN+ChJY9VNtxIQE5WKeAKRFrkRaQA+67tKCtIIdPkbgvWzXTZLm1wRpsYeJLGIKfateXj2Plc2r4LaV+pZqIUMq42lPc6UOwK551P2zZ5+dexkksI+0ALVTjUlj2NLQSG2xFicGhRRgaGrUxKZIuaZ6KE7izS3S1ARYyiaxE3Ce3nMAxv+AZMfDbw8BkAmQsHp4tvTXeki5fYQWs1w34Cd1OS18LtJi9pB+64DU6OO4tLsLZg7+Fr/1/RJ/23yBo8s/E2QgAOVdjcB0TEVI8DniZ/2s8z4ATALc6OPMJOtcWn8iXfdspEXvIA3AXhDTneO98cfAbzG1z5eYbfUF9sz/DL72HyPVja7dqwydu4VbJhXqdt3ZsgZLGpbDqd55d1LmIaYO6ZOJss8jyD7hV9Wk4hsdTYV9zwlAbmo6BTGJONLrra5rpLZ5KocLNdYCrMojYetUlU1Dkh0OEGa+l0IDmMUmgJ3+k4BKIuXZmbcD/H7OSNr/d45BHR5TOyPO65WOXNrJtPPPJ/V+TeaunpYmx5WTx9G1VlU0+vE7NCn1HTpU/BYTe3yJlxc+QSqr2KQJICmnM46zAxPshuulGQibA2Fntue89MhVSAudzp1QMx975fwU7SuVEdfduOR3aFP2Wwxr+xVcz7FZQCTgU5PMnOuFumXHp43Bwlom2NmybL4txtz6l1Xq/8e5AEF5jApnM4H7/nGGH2f3qW8RVhpX2ivOU5VBeTyP56qS6OntkOp4UrlY7fEJMTVbglyApdwLYJveCWCiEVJfXH0LwO+ElEubETe9Veai4hLYW1MGIMrPWzcEkHAXct/6tHuezlFx6ObqggEtGgsgZQgTwdA2XyH8EQHJ/TMC3xSF4y0DkNFhivRgfXQEGlOTwJutPVfyS7ruBkQCa3J25E1OQufqlXJcNxNBvwZfC02A/QNpoeMVzkItDm7QusuqpyIi0dAk367EkcOrifHluUmAcwLyCtUxuI+2NBHZfW59zPMcIc7nqTIF+Ln5dRvOXSOQeHSpUn8MzpfhzFkJCGAj+wAO638KkAnS3twt9uCXOxxD/NweOUpfb3SvhGOThiI60F8Hu38KAWgpgfnfCH89FvGx4Qovd0ICDmzegA6Vy+UAUoZsn/2ZwhRgf0DS02z1sPFIOrlaLwTA7brSslVEpkVtgNzjeyT5dEN4qKI2IjkpCTfOnUGb8mZK19zU6DssHvUFUl6zCVOBrAdHrW6Z14O72NBV0buBG6ZwjkO+bc6tKpIpoBwaZFMgr2nFbA4caG6Mq7TL53Ue5wFw5aBys1RFTkBBtICY2T0gf2mv1B2IJ2dJQAD7mAAu6H0K8GSzQs1SlyT853IVCauG5Ug59bKqKrrynvh9rJhPpxPbP9hGgPnMuq+xadEsnDmwF/+sWIpfmjVUCX4Wi+ZfKwjAqzRpDmdzVAomX92lVdfh/CRx7RikJcRmXDjt4hPEbv768udYOHkCTu3bjd1rV2FQq6ZoXOq/Kq/bssXXCj+G+6dKGo+mx4O920S3ZpGMU98ELwdWzr9ngYgKlFHSAp6QZhCQT/svDucxAfjlE9dn5yJXFOb2A3DnoKABmhNA5NAqSLl7OFcy0EPCjKkk6cBMAHekGANerHd/r0dI2kuq9K/1ctjAD/tUFAUzl5fMESOoCu/5d0daQFcB5lWTPkdzk/9D6zLGtFv+Ty34WTpV/hZhDxlIXyEtJufYrJQ7xxA7oYHOCSDpMKmmyenxfFLf04IGies+suwzUvH/Dy3NS6GZyQ95XnevOt/gwSFFaDMtan2eeQ0q4/8x0Tgze4rojMQA45Rl7lasyfUH21TGk1xRgftd8h4RnuHs4yxC33xUeX4N7g+wKpdTkFuGvehlViAtIGr1GIQ5XsgSh/MImCDFvEDZDSYAJ70XAv1ZvVgTQOhRO6Vcc+6Dd6yNYt7clRXzRPptoY/kN0QAnTIJoJnxd3kCKEM6V/kW8c9JA/D4jghgf04CeHgBcdNa6ZwAkm8cyMp2lEcQAQwW131q1acaXTNL77rf4OGRDAJYV2AC4AxEbtWeAa6CEAA7BN0HlleZJpzf7s6JQuEapPbyTs/twZbUyt6GjMyATgUzA/ytq2B7v2bY1DtLng/6jxTpwI+4GtBT74VA85sUT7XfzxmR904jaFwj5ZCSTVXxZeqUAHgnDRknAHF5y6doafatRkAa+tNX6SaAuSInILtV4XQT8X920rkDMNXFPlvpb1q6CfCxiEqwc1KT67Zq+TX876Q7AuMvFnj3v756kfD+ZzrZGmjmA8hyCFYVk4lzmwIuPfPWAgoi3FSEuwhlLzA61dok307D2TWJx91Ncai1MebWKSVkYQNTvLD8Soo8gNesAei9FVj4knbFkgAiHM7CbXIHlSmmj/tWzPxCdUYAbEtHriJV/nNEPP4Yfet/nS+IGGzHVnyq2EX9O5IWkTMcyUVJ8XN76tYBOLUFXePTnP7L6O2Qe5ZEjNPHGNXxy3yvm7Ubuwn/Sc9jqEKI1qyegNOOOfnI8cAOrGhZPWddQkOyzQs4m9DXsoJSbgCLupp9bYTNBa4yzBxL3thIdX9AFeBnMuKEpcsdiejqlsKiRua4MbYT/EeXlIIAgogASiTrfRT4qu7FDvxRT67AebYFQkeqdqDxWGzdEwDn0jiIcJpwBK79FD9X/UYtiNiTzrkAijDgl0gL+4teIGdNfqr7M8Tb/qJTAoif0z1nCFDYGh6Q+7VEyuuPYb/73+jX4Js8CeDXbl8h4G66AzB0Mmk/4SpDfJzmy5l+GcIj2U/MGA/busqDW7Y1MRPViwUdRurcR1kLeNLDTPMKPg2EfQsZGYVcaJS70Ygq8HOfAod0E+VaJxNsaGaKYwMbI2h2d4SMk8IHUCKBCSDpfSOAWNfbeLJsEjyG11U75HJ706z+eufnz0B8pI6636bFIy1iAdnz3yLB9SOR8Teo6dcC7NkB1Lbct/jL4gu8uvgJUt04EagFkOSsskFI/JLBOiUAntwjD/RQvvSYvXTdXyP++ce4tOlT2LT+Cs1yXXcrc0U244vz6XUNvvVo97+rNsbv+/ShcPSt6dBADPe0rVtabZOTIz+V1urzBNtUUiIA3nXzyhAsqGS0B+eOwZwjcDePEmE+15M0kAfZQpU8tuz2gBrw/qs74hd0R+g4KcKAJRI5FThM7ybA0vbFBvwpno/xdMsC3B9cO8+Zdtk75RyZNAwxwTqsA0gNQlrIGJEPwM49zprbb/sZFgz/QqQBLx//OW7s+LfIrxdxdE8jQssllUVB3IMwfoWNToDPu6u7RWV4zh6IWPfnot5AibzC/hDAZvJyv/IJDi3+DPOGKq572bjPcWnzp2T3f6K4bi9ThdMyj+pAfo9wbw/c3rIKdj/VVt+wtCaBqkd5LUeSV8fzPqrDgsEDdacFsFOQKwW5sEjhB1A/aORhrjyFh2RyBs3pSeDvgfj53RAyRv+ZgH6WshBJnIBhC5oWG6ef66H1ONatKkKHqx+PFTSkmmL4RUbvONqd8hsZxv38U5ISkUSmQkJ0FOLC88l8S4sjMP0pPPvyN58i6eXHiHNRCJNCyutPFNV1PnVFvYBSZR0Bh23lu5uWY3/XutjT0lyM8Hrcr5KY08dgjtZg2AdHO3gK8Yl2ivZg3FdgaT0zrO/SFE6nDiM1OZfnXh6DtKhVwh/A2Ymqr/tzUSUIdvxp6Pnn6kavB3ewy6YXFtZS7m7MA058rKpqTW6B1pWUqgU5QuDWR3daQEZjUM4U3NnESOWgEc44fJQL/Pe6l4bXjG6Im99dgJ8lePR/pQgDuksTBpxVqxjU+TvB+/JBbO1YFR75DNZ0H1w5BwGwXF72N8I83ckUCBc5AWwSRAX4IdT9Nb38Uzy/cArXVtni1MwJuL15FVISEzRyCiLxIWkD40nFb0Zgr0NSQ6jN8oAuitCZCttZRBTj48k0+V1tH78Drc1FgxAe8Mnps8HDqolmISxMEDxc1LFPRexuYab0WTPbi9Uvi8dH9ghyU7rupKdEYNOEaSL3qS0KluS+dUkj6YS0yGWK/gZaHNFBATgw1kLpWngacmG0G04OevlLWZW+gMABuiUBd7Ltj7Y0Vsol4A7C3E4sB/i7mcN1TDMCfRb4BQGM/EYKAnjCJsBdvScCTa9Q5ATgd/0I/hnQBva9KuS7WFQRADul9gzrJ0B3afEs4Rc4PHEI/hn4s7BduXnG5t5t8eQo2cnadAviZhrs4U96JhxuSIvN8/RIX2+saFEt317/y+sYiTHex9qWxtkOZYQcaVNaeNQX1shnVkANI+y06kHaTB5gTg1WXDen+qa466T8N9zLA6vb18/KsKN769C7guZgVzPYhKsFHVVUC77JJ0VYG+Hy4ezmBTv92FGYPS/hXhczuA6th+h5OcHPEjT8SymiAPasAVzSOwFMMQN8nxVdoo/DeRwa2xc72pTNU/XPiwDykkV1S2PfyIF4c/u6MAOkONhuLswQEE2FSS3M8420TUATE3Hst1FZ2XU9WiJs72LEz+mmURUj5wqoGnPGjUNc+yr7Ap71yLtasNAOQgK/Rz+zHE4/UaBkXRfhc3sIp18OApjXBYHDPpeCAM6zBnBU78VAk02Q5uFQJOCPcbmFs3+OwLJmZfC0f0W1Xv/cSUCaEsCieqVxbu50hLx5VbjhmAU8YsNCMnPk9SmciRcbEiwxASTg0K82Cs2rjpkIDabGRkHu4SSKn7hQKa9eBvd7lldbNehrUUGlFqDLvAClPAEVTr9HA6sh8K+uiFugvPvHze1EBPAfKUyAQ6wB7NR/ObAx5K9uSg7+pDeOuLl8BhY2MsOJjqURosHun7GLsDMsP/WYO+Y67N4s7HFJB2ZwIWBcLE7+8au4Dl0AnYG2sLap0rTkY7+NFv0KpDwifDzpesxFDQBPSw73cs/qQ5icJIaFJh1fhbjpPymNS+PIzsFW5sKxqbp9mOrswGc9dJcdmDtT8HGu8uQHvcvDe0obxOUCfiYBzGkvCQFwKwAmgDVSTAVKdb4gbUsvn2d4sHkBFjQ0w/qmpng1uHKBnEZH25TOY2qOkShRfXHlnAoHmUStsolwvB/dx9qODbOB2Bwbu7Uglbk1VraqQQA20QD45qLz7+Wlf+PsnN9g17pWVl5744p4feOStJ9LnoqLtn+K91/bsRG9/2X1mdUhvkg6RKbB390R+6uiIIodnHZ1jfGsn/qaAS8VNQIsfv11qwWwx/9pLqfffdI+PMY2VVb7s0nMrJ8QOPQzKToC2bEJYKt3Avj1R9HlREqP/6sT27C0ZSUsqm+Ey93K5RnzVyVOlnWE80kVaHhhupw7UaS98kUkICEejw7tEk5I3r3PL/gD/s5PEfTyOZ4ePyhGnedFArzD7xs1EH5PHwkiY63i7j/rsKxJJUW76xH9JfNpZBxBr55jVdu6gnx4HgFfU97O0xTIPZ2RdHQF4hf+ggd9q4g5iY55OA25RuChmqYhugI/JwG96G2mlHz0akRDxNv2Vgt+QQB/tSQC+FQKH8A81gBm6p0Axv0PSXd3S0YAHuf3YHPfFphX1wj/tDSDj41m8eO4iQ2RsHiQ2FWiruzH9oE/qwTNmTlTdVMerIsGQ1ERuL9zE079OVH8nv3weeyApY0qqCUAu59qwfnsMcizjfkOfOGCHRbdsYSe53brsqSfJTUlGZeWzBbhx+PTxyo3JM3TJkoQ9QuH+jTD0lpGuNkt76QhVa3DOC1XFyFBjihwZCG3luEypB6i5vXME/ws0TObIGDIv6XwAUxjApig967Ao79BwoXlkoA/+O5p7B3eHfPrm9BCMqIdoUL+jr/ZXRH2z2ykPrsuxnrzJBpOgOGQHtv5OQZw0M7EgCtOB1fOMVhymyMM7B0W3dQSwD8DOotc/NwOuNOzJuPior9o942R9HN4Od7Fxh6tREQlUosWbOw7WNO+PpbUL4Nbo7uK2Y3qvvPwoVVUpge/6l14LYAdio65nH5PBlVH8MxOau3+7BI5vQ4RwL/0bwJYycawCWCj/8Eg/0HMvkn6r+57fAVHJw4U4Oeyyl2tzZRjwuPqiIm+8QT6xP3zkep6D3G+7ri/bY3SAAxO/+XEngXZTIFlTasIr/TbcDAhbO7dRi0BHBhriUh/X5V9+DkhR8ojLiwUp/+aJK436JUWcwjT0nBvx0Yxy4C1lzubViichRw1+L2tkrOQ+wU8V1EkxKW5IYUICXL2X26n38M+5eE/pZVG4GcJn1wJAfqfDMQmwGBZgFWJdnp/oyEfI3JdX72CP871Ds7PHiPUfga/LY92HlQpva13XTFimm3EpIO2SH1+h3TnLNsy0s+H1P0uYgfJffg+ccT2QV0ySYDVU/uNK5GWmlrsCSCYgLQ03Z5XqQGQicNZjEV9sC+FfSrswwhxe6lcg6BJWDQ0CDsteyjShpkAtq7N0oRC/ZB0eAni/+6Ro3uSv2WFHANFs8aKmWtZC2AucgpyePx7loHPxBa09npqBH6W0PGm8Lf+QO8EEGgha80EUJn+iNd7QZBtK6TlMRW1UB5/76fp4T7zzKYKRzuUQcyMdkhYPRJJR5Yh5eFFpEUEqexLxym9q9vVFztI7lg+Z/W5nDueIzNt/+jBCPf2LPYEwP30FtUro7qPfW1T4eTLr8ZBkpyG0BA8O3lI64Qj1nSeHN2Hla1qqiSALGehC5KO2yHetr/QCMKGVcWTHubKDUN6FbxUmM9/3iuXY7GrGdzHNUdcPk6/nDkAPyNkzA9S2P8xAZaySuwDMCd5pfeuQHPq0c57WS8FPk57V2Fpi4qZ4J9H8sx2DCJuHUeUmzNiwkMRExWlVgLd3bDu56bYad0T3k8fKf0/IjgIt7auweJ0f8DSxpVgv2WNeDyv1y2oxMfF6TSfIOilC26uXSrCfDn8GASQs39Pg/fD+xrWLBRwRyftKDY6WuPPHRESjCBPd63vm6/LM+wdOSBTS2O/zfV1y1SeG02aQtRTe4QfWY2Qv/vgRd/SuNnZNIdw70C3PmYil19Ted3bTEmbeD6kLmIWaL7zs8TObovgUd9JQQAuJGZMACVJLuu9IOj3SmLiia4JwO3Udmzo0TgT/BkEsH1Qe7xxeoRXz53zFWeHO/iHwM9ZfacXzYIrqf25z3F97IhTi2eLhBkRCuzcBA5nj9P/nDR6D00kJDBAK/U3z1BhfJxQ82/u2owN46xwdN50eNy3F5mEegtPkkr/5qWrzu5LXsLfy+nFs7CITLNMP02zqri8aVXez3V6jNc3zuCR7Tgc+8kEB1tnyWGSa50UA0U0ldwe/yf9KyPsz44FAr+IAPzZDEEjvpKCAM75Wcl+5MlA39IDm6UYDpJwZY1Od37fa4fxz6C2mXZ/DhKgx7ZZdoYLgdvlycM85Rmdc/ivSYrimRbVcX3fP3ChhaV03v3bggRYE1hQwxg7aNd5So/l9/qaShjthGl6yij09vfDkYtn8fzVC8j1nLzEr//S+ZnO7otaoe+Ivyv+zrJrOCvb1MGtQ7vzff7Ty6dwYVQX7G5hgl3pwr+fbGOC2z8rJwppKo96l0Pw9DYFBj9L1O/1JUkCIlnvZyn7RhZkKfsswKrEH/qfEPwV4o7P0hn4g+6exp5h3ZSAn13m1yOQDuuJJzcu5rsYbh7YiaXNqijq/8kccLh4RjVZ3L+D08vnYcVPtYXKedbOVmcLOjIiDNr0ztfk8AkKwLHrl/GCVG25nlN7mcReuuifAByvXsCmXzoqT+jp1QZP7tzM87nOt6/hwriemcDPENYGCgN+x17l4D+1TWZjj4JKxNTqCLD5WAoCmEZawKeysIGyD/0tS1jSA3J9RwKid48RE3gKSwDRzjdxcpo15tUzzpMAWDgVeO/4QXh87UKeC+Lh9UvYMWJA5iLaMaI/LTDVxOH00AEXN6/C+p6tsapDA9w/f0onCzoqIlxvoJSSAFJTUkgDeKpX8D+9ewv7p45STtSqZYJDMyfk/XwHe9xaOFEJ/EcLCX6HHmXgOb454gpo92dJV4RPqkB40XsEIJVkYOBg2QcyPsgW6EQPROibdSLX9IL8zZ1C5/hfmDMuh8c/P7FtXAYHJlvjqf1V9TsCgfrCumWZ6iTnyO+dOAyOV86rJYFbR/bin6F9sW/KiHx3HE0kNChQbyaAlASQEB+HF076IwC+18fm/o7FKrIcFzcqjzunj6h//oM7uLF0Bva2K58D/Gz33+ykPfhZXg6pg+i/u2oJ/m6I+7sjQsebSLH7h/pbyjrIMg4igCb04EspIgEpj48XanKv49ZFWNy0nMbgzyKB0jg02QrPHz9Quzge3bqKnaMHiV1ElPrWL4NdYyzgcOG02ufw/04tmYOrOzcVemH7ennorbhISgKICAuF67PHetv5GfxL1ZRC8/fn/Ej1d8zfvf3aedjfqYoS+K8VEvxP+pRH5OzOWoNfUQPQCsEjpYgAlHhO6n+jTAKgP6rSgzf07gcY918kXt+oNQHEP7oA962z4LL8V63kxarJ8D26Hr63z6uV50e24eJf43Bm6hAh534fAYdNS+B1/ZTa5/D/PC4fhffNM3m+tjrxsT8L71uK56YmxL3dBECvHfbcET43TsLn+gn40k+/m6d0Js8Pb8HFP8fgzBRrleJ6aLPa577ZZweHMe1hP7hhpty2aIjHNg3xfGhDuBZCwv7uUSjwCwfgjIYIlKQGoMQVf84ByCQAS1kpenC/BG+M2CN/KI1D1lRSH59F0oG5SNz1xzslYet/hdsCS7yaNxih1w/rJctQKgKI934Jz/W/ic/Cnylk3fh37vtSJfHLBhSOAOZ1QeTUalKAn2VPAIcAMwlgsOxzetBOijePWN0TcrfbBgLIJnHbp8NvxUgBmjcrxyLW7YnOgekfHISzt67hFZkZ+iIAeVICQi7vw2vbIXg93wL+dqMQv+N3AwEUL/sfAVYlVoRYyD7LJAD2BpIWMJn+Gaf3hKAZlbVuDvKuEgBLaLoW8HqBFXxPbUZsQrxuHIIE9sRAb/hdPYTHOxfB5+F17ZqWavA+cW+ewXPDNEFkTGix/0x7L8CvCwKInd1GogQgxrhsEqxkJWTZDyKArvRPd72zz7B/a50R+C4TQMy23+CxyAavF1rD89QWeJPKHhETpXXSDu/Gce7OCDq3HV6bZsBt8TABTPfVExH56Kqu0Y/EIC/47JyHV0RivitGvFfg1wUBxPzZHAHWH0pBAG/8rGRdZLmPQAtZBfqnvSR+gMMzhEffQAA5hYHDBOBBBODu7wOPAF/4hQQhPjFBqO2sEXB/Pi5bziFc6JKciNT4GMS+eiRA77lhOtyWKl7vzUIrBNiNRtiGCfBYbAO3JcMRcGIDkoJ9xHMLmfWDpBA/eG2ZSdqL5Xu38+uKACKmVJXK/r9F9n95JQII7iP7mFSD3XpPCOLKwMU/adUm/F0ngKgtUwRY3+yYDw9fD0ECGeIV6Ieg8FCEezxH5MMriHxwSUjEvfMIvrQHvnsX4c0yhR8hwwHnSWAPXDUGsaRdZLxH9Nap8FqisNHd7cYj9NpBJPq7Q54YX3Atg57DhOOxZhJdtyW912jhz3g7/C6/0/0ZjqjNU4sBAXRF8OjvpQC/nDT9XWTyfyRTddA/p9FJ0XoPB479L9I87hsIQIUE2I3Cm7WT4PnEPgcBZIin/Sm4LR+dCfTswqD3WjIU/itHCp+Cup2YH/ejc5hs+Hme66ci5OoBMhmckBwZkqdWwFpIckoK4mKjEepwAW9WjKX3tUDI2nFvlcPPZZYFNrSqjJtjuyBy85QiJQBuAx5g8y8pCCCaMD5Vpu4IsJS1pZP8pFBFtMkHeB8IgMHpazcG7sc3wMPrtRIBeD28Bje7XxX2vK01PGk3Z7U7eM1YoeLzDp+gARDjaacOp/N9l49QhCBJI/BYOwV+B5Yj+MIu0izOIerZLcR6uCAuIR7RcbHCJxEaGY6A0GD4PLuLN2RmvCbwB60eg4SdM96ae/x6/hBsbqOYqmTXuBweTO1D9316kREAx/8lUv/9/CxlP6klgKCBsu/IDHghSTjQrpuBAPJwCPpv+o12+5NKpoDvk1sI3z2Hdq3JAux8Lqvd2gKQn8umR9DqsUJ7UJCBpfATsIngfZodkv7CBGGfhPBNuLnAY/9yuC2yoZ1//Fu18/uS9rS7S13R2j2zy3OLSnD+a1ChPkdhCCBkXClpCMBS9oKrf9USQHAfWQk66ZAUFxM0yRipLhcMBKAOmDumI3jLdPiQje/h65lJAP7P7BF3aKHO348JhAEQRxpIFJFL6LrxCKCd3ffMlhwE5OHxEl4HV8CLNIeITZPeqp0/wG4sDvRqpLLd+5rmFeC9dKTkBBA7+yeJpgCVgJ+VbD/Z/yVkeR1EACMlSUYY8QVij8wwEEB+2sCOGQi8fwZe7q7w8PNCwJPriDu4QLL3jz61WhCQh487vF0dEXBomfAvJOx8uxJ8gtf+imP9m+c5JGV9y0rwIQ1BSgJg779E5b/cBGSoLL+DGIJ7BKbp/WKsP0T44jZIc79vIID8dufdfyLy/GYE3z+LiIvbkLBnlnSayCFbBN87g9BbhxF10BYJb6VJNQ2nLVrDtpZxngTAZsHurvXgT5qCFATAzr+QMT9KUf4rIgCBNirCfyrMgI+IKfylYKTgaeWQdGengQCKtcwUBPQ2p1nbj++mdsqT0rDX2iY4TppC0JrxeicAHgAiyRhwhf3vjXGyD2WaHHTyEUnMgOGfIfbAVI2TggwEYJCCisPk3ljZqGyBBqUuqWuGC0PaIWLjZD0SQFdS/ysjwPojqQhgv0zTg062lsQM4KSgpe2R6nrFQAAG0blT89nMgVjbvKJW05JZE7g1tqswH/RBANz9N2RMSanCf2kBVrJBmhOAhay0n5XMXZJowIQf03MCnA0EYBCdid+K0TjStwk2tK4iZE0zzYiA8wIynrOlbXW8mmetFwKI5tp/KQaAKpx/r7j9v+YEYCX7mp64TiJ2QvT2EUjzfGAgAIPoMK16qnDmZQhrA/mBn/0E10d1zvG8kLW/6pwA4uZ2Rvik8lLt/iyrSKv/SmMCCLCUfUgk8IsUacHCGTi1NFKenDQQgEH0Jp6LR2hEAA+m9NZ7GDBmVmsEDftcKvBHEpZ7B9mkNwD9//auBEjK6gj3LMfucl8iHoAoiYjKYUy05BAUhRXZYBAR2J3/nwWWY2G5rwWVY5VTDjkj6oKpUhOqjFoxqXhEkyhqlUq0YkXUREX/+efY2WtmWRD1pfvNbMJSXLMz+/7/n+mu+mq3Fuaf97/X3a+7X3e/OOIA/fHDh5QM0tNMhJ+df96OwawAGM5XALny8k9FR3+y+g9l+XqIl3wF0Bo/uFlFdaCMBRR3PW+BECsAhtMVgCz8UdP3r776b6N5avefeMhA0wEfclSVrxL53WJWAIyUVgCVC/uq9P2/QvP/HmgsoQK4QnYQVTTg4PI+4ocjb7ICYKSkAoisHil8qhJ/osf4r+Lu373RCiBYIIOBG/FBderqA1awAmCkpAJQm/fvOoayu07ocQb/zmAFKOsR4PVkiNDDg8+aGMQKgOFUBRBZdacIzOqq0vz/1tRgOCRKoSmQbWjwtqqB+4o6i9oX15wxPZgVACORFmDB3fPOiwvN/ItXAVQu6S/MKS2VKQCU2bdCeZAJySA0JYpUpQYTQqWDxMmPXmYFwEiJpqCRh27D3f8ilbs/pf5Oh2RRQIdu+FBT1QuY07LlicCPX3/ACoARvzAeKBHfPDpTvL/kvoTxySp3QgqgtvRu9P2vVdXyux5evxsuhmQSWgGbFL6AzA787v2DrAAYjeiruEy8OWtMo4qATseTI/snpADCD94qfOqy/upz/zdAsgkfegNpFmUv4ckQVTvvbdA+nBUAw1EKoDRX2XVfp+AblNUBSVcAhgbt8OFbVMYCzKmZ4sShA6wAGHE3Aflw2f2iLGdgwngpb3ijFUB45WCZ5q7S90ds9qKsJl0BCFICbhiq4vqwBslBK68XP3zxFisAhqOCgLVrRgn/jA6qd/8vUPgHQ1OR101tw127ECeVWQHTW4vIcwvkleKsABiOUAClY0TFwr4qk35ETCZ3Gvo52n4nbAWsAjB1+KVyK6Ckr/juvedYATAcoQBqHhii6qbfBpd+ou+fSzLapIQKoD1+0XP4hd+rjAVU79PEyXd+ywqAYWsFULvmLhGad5Vq3/97NP2fQblsByooViXoU6nhKEMw8vRccfzZ1cxwDHsqgNJcUb3sRuGbmqV69zcTqvprRJFQJn7hHxW/pPAXXyIiuzzMcAxbKoCalUMsOPOXN/685C2EFqCSUAGMVukG/C8esLC3qHtqPjMdw15HjxvHiaDaYp9Tgn8wElST6YEs9Dv+pv6FM0Tl6iHiuMOupmKkMJAXK5cPsEL4KevvL5U6tAQryNRhFA6iWvVL+6a3FdWbxzLjMWyBmk1jha+wjRUKoNLngTvBKvJ66ETAtV1ldmC9FRAovkxEdhUwAzKsTTve5ZG8qLDJ5yn9/lzrfRq0BSvJ0KhGAN63QgmUL71GHNs3mxmRYU3gb1+RKF/Sx4qdn2TtbXTB+4HV5C+ATEOHYhxQSPVEUIOFitWDRF3ZImZIhlLUlS0UFasGqc72q0c5brxFhsci3/8MAcGeXjqKsOBUwCxsLapKbxfHny5hxmQoCvqVSJ4zp7W2QvhRxuD3pp5As8+kpwjPARelIapsGnK6EqjZfA8zJkNR0C/XKuEnGKYGOaIQXGAnQo3UEl2BPepjAbGTgZkdRXj7RFwgtgQYTbfzh7feJ3zqq/z+7/trsMN0K076ueCAoAc6oxL42qLJEf6iLiJCSoBzBBhJF/5lIrztfuGf1cUq4adGn18GdOgAdia0BGZGe5JbM0mBuZeLyA43KwFGUhN9Io/lx477XFaB+vwXgt3J76EGovCidROVIYILeonaPdOYcRnJOevfM1UE5vey4qz/1Iy/F/x6kht9NlGNAN0mlIODPmLZZHmaSSVQ99QCZmBGYsd9T84XgQVXyB6VFu7+Ryjf36dBM3ACGfmQ7dVgcfRucquUQIZM0qAFZEZmNE7454nyxVdbLfxV6FYvLtchC5xEvnzoaGjwBL7ACSuVQEC6A1M5JsCIy+evlWa/5Tv/cUOHx00NOoITCc2WfvgS71k4gXIBg7iQFMShSC4zOON80X7ilaD1wk94B4X/OnAyGW4Yiy8SsXYiM+TpQHjbBM4YZJz7nH/b/VYV95yOGjT97wank3citPBqsMHiyYzmCczqLBM5mNkZZ0J4y3hLz/kbQIO1lTo0h1QgfJke+FJ/tipLsEHG4IwOonpjLlsCjAY+f9X60cgb7e0g/Cgj8DKa/t0hVUiMB5fphkGoCP5pByVAedyVa4fHjglZEaQvSmR7uco1tyJPtLKL8H+McnKzGAapRb58yDQ0cHstTBVu2Go8S4RW3ihq905nJZCmwl+7txB54GeSF2xh9uvwJW6Uk0KTbVLm2wTNQ9rG8gMqbDHhMmHoShHeNpFdgjQTfgr20dor7t9/LoQMHeZ786ENpDJ53dAJFcEO2dLIHhMv/EUXiapHRom6/UtYOFI9uWf/YlzrO2XhmF34LyoLsBU3xw6QDmQWQEd84b/bIR7w/7hAtnQJju2bwy5Biu761D6uYgWZ/Nl2Ev4fcUN8w8yD9pBOZObDlagE3rWTJRCtJrws6hIcWMpCkyo4sCx2vn+pnQRf7vwo/G8b+dAT0o0Mjywaug0n4WObLYowC9uKqnU54tiTc1l4nN64E9ewen2O8FnXwedcEf8PTR2GBnTIgHQkH10uorsmynvN7aYE0EwMLR8gwtsnizq2Bpzn6+OahbdPEqGS/jaK8jdI9PkMMd5wQyakM6EWbI0TMQUnxW+7RfI0k5lhlatuicUGWLCc0a57jqh46BaZ+WmjKP+p8Ed5HloDkzwZyDI12Vr8hA0XS7Yf98/uKsJb7uWqQlv7+stF+NFxwl/U1ap23ReCE8jrhcTzLPmnBwY1mGubHIEzWgTNRXBxH9lyjI6TWOjsc7RHaxJc9FO77vj1QN6G2SzpZ3cH2iBW2tIdOK2egC4ojbYd4yNDK6v3andPxbUYbJc8/nPBh2b/MgSb/efJFuyCk7QCJ8xr6wUtQGtgXk9RvW6UvCKKBVKxn/94kah6ZKQIzOsuLTMHCP8KRGeW8AurHuyElsAchN/mCyuLSKj/YNXDd4hjT/CxYdMH+IpxrkfIhh02S+g56zVeyMcLWfjjdweyTQ3GGTrU2H+RM4Q5JVP4Z18smbNu/yJ2DZJs6tOc0nVcFIylubZBw44LDfhNR15uxRLdeJfgDpzAz+2WMXjuGEF7qQhq987g+oKEgntL5BxWld4mfNPbCaesf+yc38TNy8MSnGiykA7NzagSOIQT+51jGIByCHC3olpzSkhh9yAOMx/niuascs1QWahlg9588Wb4fYrIMzxpnuSTNHdgCrRAbToU8ZqjlECsKSndW1i+7DpZhRbZqbNVcLajPJwbmiOaK5ozhwl+fVXfYVOHcaYHsllyk0jfuqEZugMD0LR62U5VhPGlF0fjBOVLrxVV63PYKojt9jQX5Uv7yrmJ+vcuJ4Iu7nwLhf/WgM47f9O4A/ng8ufBJWgJ/MmpSqDeKqD8dP+sTiK0YqCIPJYXtQpkU5JUDh6WxAJ6uNtvnyxCywcK/8xO0Vx95+32p+/8rwc06BEsSNPCHqUuwWR56chenPhKRyuC0yoQKcuQ8goiuwpk7brsWejk1GMcO70DndnTO1WvG4nveDW+axuRCmsW4z3q5PMo8mM7lky1acOd0eRahJr3M1yE71OEoaLKoKCF8BdfitbBDdI8poCYPFEos/vxYokcI/VZpDFTSXWoZKB8Fxvn5iey6/8Hhb/Y8KRJJx8bnhC0wgXIxcV4I1UsgbMdK1KyUQUqhMq1w0T1htEivHWCqN09BX3oYtnwwoomG/TdNAYaS/X60aJyzTCptOg6Nscd28Uf6f8IN6CJhptTe62OC2TgQlyHi/KbFGa4BinIlH1IvnNgziUyI46KYCiWUFU6XFRvukdEdmji2K9nxNyI+dHCpXhcCTLdyxbLi1XpGfSsyE63qN48VlStHS53dfpO+m4ag/Tjqa12QXORFmugu15Dk/8X6O+3YAm0T+ZgN8QKW1cTNnHeAUXQSRB909tKq4GKlug4jQSUauPpTJ3M8cD8niK4sLcoX3KNBP0emNdD/pv8P/R/8TP0WfkMehY+k54to/T2rrhrShzDzeYxFP5eLHE2JNTIdFSYgwt1yK69BRiOBOWeHEZ3cyIn9zjDGuiH2I+LVsvMy0h419fhGdz5b6Ibrli6nHJK4IaLcNFW4wIazMSMRsKLPFTqzYeLWaIcSAEPtMEFvC92B8FJZmjGBeJklGdgAgp/W5YkZ+cL0PXkvdB/exB/BlP5uJCRlHTeIOJBFP5eCI7yp5hbcJWhwfO40EEnlRczVCT1EE/AQeIRlpRUdgumQCvU8DridVz0Gmb+tEcN5fGjhaibk7iCLy2IKgtRAfSJ9h6ET9gtSFNzX649LEf0IZ5gyUg/l4AuJbk5dmRYx0KRVgk9ZbT2hofbdaU1iWjeQBdDgwnIEIc5NpDqvj58YOpwr6lBF8Hsz3QqGQXQHhVBPuKvHChMrQAf+vhvoIKfHMjjsl2m8wUKdWhDQSFkmBeQeb5OtXLj9DnLd32F6/g87via6eGqPaZ4lMB4cPkomxDNRWQkaj7ybw4WOqZJB902vQcV+K98+dAlwCm8TI2OERSiItChCyqCIabm2oyMdZSFzLb4CrEJBX8IrZkYxoLPlMxTAw3aIXP1i9YYwFG2CGxznHcU1+QhxPVo7nPqLlPTk5+uL9MgD/FKLE4QZoWgzMQPyzmnucc18BdAR+ZIJmsUgQea465zEzLiA8iUf0B8zoVHTRbU+8yr4RzjXJseuInmnjmQyTaxAr8O3QwdcgwN1iKzvho7SmThTWy3pzl8Bed0Dc2tPx+6sW/PZGvyTYZMSi/FnSoXf65H/INzCuI8u9fgQ5y3dfhzjKnB1b5J3ImHyWmKgBqW6tAW0cOnue6QykCDd2Odijhe0HCnxzmBd0joTd01AuepB80dzSFzElNKUUCHzsjcdyG2It6LHV9VOO7ew8b31wvJd0ZliGb9Fvw5KpAHnZgzmNIrbkDKYCJko4l7AwrCNFQGe6jlNOJTRFWKWAk/xt7lXxQXwffcje851XTDANzds5gLmJjqFcJ4cKFgdEcBIXdhFgrMekQZgu5CPBzrb2jnbsfHY2M8HBszjX0D7vCzUPBHeN1wuVjFATwmpgtRBhBwQ6YZTUf+CQrQzw0NRqC1MM7UXLNRsDZTBxv8G7oQYCquVziJQk0NM+m7D9JYaEw0NhzP7TRWGjONPZgHWfQuTExMyVAMc8Dld0NLFLB2iK4ocGQx9EYh7Gt6XEN8mmuMqUMeooguSkGh3IQ/96GwHowmLUm/+wj+7o/t2Mfpd/k3nQKUMrmGFMvjXvqshs/AZ9Ez5bM11xD8zDX4996x7+5KY/HnQ0tum+08+i+JZVpmHNY7QwAAACV0RVh0ZGF0ZTpjcmVhdGUAMjAyMi0xMi0wNlQwNToyODo1NCswMDowMIq1m3AAAAAldEVYdGRhdGU6bW9kaWZ5ADIwMjItMTItMDZUMDU6Mjg6NTQrMDA6MDD76CPMAAAAAElFTkSuQmCC;fontColor=#999999;fontSize=15;" vertex="1" parent="1">
                    <mxGeometry x="440" y="380" width="80" height="80" as="geometry"/>
                </mxCell>
                <mxCell id="6" value="jellyseerr" style="shape=image;verticalLabelPosition=bottom;labelBackgroundColor=default;verticalAlign=top;aspect=fixed;imageAspect=0;image=data:image/png,iVBORw0KGgoAAAANSUhEUgAAAQAAAAD2CAYAAAA5zlnWAAAABGdBTUEAALGPC/xhBQAAACBjSFJNAAB6JgAAgIQAAPoAAACA6AAAdTAAAOpgAAA6mAAAF3CculE8AAAAB3RJTUUH5gwGBRcTa6TnQQAAAAZiS0dEAAAAAAAA+UO7fwAAdFVJREFUeNrsvXl03Nl13/m5v1/tG3YQAAkCJAGSTbL3RVKvarXUWhzti+UtHsszSTx2zokzEydnMpNJMsmcjBM7kzP2TOIzGtvxHNtx7JFkKbKl1tJSS2p1q/cm2c0mSIArQOxr7fV780cVUL/l/aoKC5sFdL1zeEgWLuq3vvvu/b57v1+hNXbZGBCi0RAYEURFEAmjiAC9wCGgHUiCSgAJhBSKJCIJIIlSSYQESlIICQAUq4haRrGCyCqwUvlsBcUyUP4MWQUWgXFgGiGLUjmUygJZMpk8XFetZ7R7hrRuQROP8KEIpqRQRjsi7YhqQ9GOyH4UhxCGgYMoDiK0A8bbdGYWikWEy8AllJpAZAKlriEsotQSShYRa5ESS+Qu5loPs+UAWqP+6h4gEhnCMI4CR4BBhH0o6UPoA/YBXUCwSS+gAMyBuoGSKURNoZgCrgAXsKzzZLOX4Hqx9axbDqA1OCCEAr0EA3eh5E7gFMIQ0A/0AYk98IxUOX3gBjCJ4hJwGlGvUCi9Sr4wDVdbaUPLAbxDRnQkhuJ2DHkYUY+hOIZIsjLZY4C5x+9ACUgDqyi1gnAOJd/Dsp7BLL3O2kSm9ZK0HMAeyN8PGxgSxzA6sBhFeAxRj4LcBaRa914bKSyieBnU94DvI3IBy1rEUmvkLlqtW9RyALtghT8SxuAQSo4B70HkSeAkEGrdnE2NPHAapZ4CnkWpc8A4mQstQLHlAJptHDWJWAOYcg9K3YfwbpB7gM7WvdmRMY9SLwE/RuQFSrxIVibhrVLr1rQcwC0cx8LEiw+h5AMg9yGMAPtpXpR+t48CcBXFBVAvYPFNsis/hBv51q1pOYC3aZwQIoVDGHwC1McROVJZ6aOte/O2jgwwh+ItRH0JS32VTPgynG3tKLQcwE0Y8ZEEcADFZxH5ReBw6/41zVDARZT6A4Q/B66yNrbaui0tB7DNMSLEpAvUyTKYp34e5GDrvjS1L7gM8v+i1DdBzpBWczDWigpaDmCTI3q4B8N4L8j7gSeAYfb+Hv1eGSVgAvg28C1U4TukJ+Zat6XlAOqP2Eg3wkdQfAaRu4CB1sTf1Y7gGoqXQP1n4Jukx2Zbt6XlADQr/kgYkScRfh24nXLNfev+7B2MYBalXkH4t1h8h8xYq56g9YID0dE4WKcQ+YeI/BStgp29PvIovoayfhM4TebCWssBvDMnfgThGPBxUL+GSE9rbryTYgI1A/wO8GWkdI618VzLAbwjxhEhIgcx+BTI5xDuaa367+ho4AVQf0KJr5BTV+GCajmAPTtGAsTlk6B+CeTdQEdrDrQGZQ6D50D9PmvyZRgrthzAXhuxI7eB8RsIH6JMn2W03vvWsA0LmEbxdcT6V6xdON9yALs+zx8yMQKHQL4A8stADy3gszXqoAPAFEr9B5T6I1T+Etkre7bpaO/ub0dGoxjyJGL8S5CfZ2+w67TG27MoJhF5FOROxFhAuq9Qmi+0HMCuWfmP7MeQX0bknwN3tSZ+a2zJEQiHEHkMUSbBrmsU5xdaDqCpx7BJrOddGPKPEf7rSq7fGq2xnZFE5AGEUUJdswS6r1Kcs1oOoPlW/RAh83Mg/xrhESDeendbY4dGiDJL86OgLAIdr1Nc2BMpwe4PjSOjJlIYQIL/DNQvIBJova+tcROHBXyTovX3CFgXWBvf1VuGuzsCiI2kEHkCMf4dIh9FpNW00xpvx6J5BOExkEmCXZMU5nMtB/D25vpCpGsIkV9B5B8hcjstoK813k4nINKLyLsBk0DnGMW+VZhpOYC3J9/vOYYhv4nIz1EW0GhN/ta4FZFAe6Vl/ADBwisUFpZaGMBND/uPHEKMPwHuBVr5fms0w8ih+AlKfYHM2K6qINw9EUD8SIRg5wdA/giRO2iRdLRG84wAwiDIRwl2zRBou0wxlisrorUcwA6s+ofbEOPziPG/IjLaCvlbozlxAToQHgeJEgi+SbB7leJcywFsa4QPdWCYv4rI3wcOtd6z1mjyES1HqNKD4nSzVw82twOIHk1hyD9H5G9TBvtaozV2wwgjnMRQRwh0/Ihi84KDzesAQiO9mPw2Ir9AWUyzNVpjd+ECyAjIMUJdP6EwP99yAI2M+JEAgc47CMjvIPIJINx6l1pjlw4DYQSl7iDY+TqBjhmKC1bLAfiNyKiJ8AAiv4XI+2gh/a2x+4cgMgSMgrxBoHOK4rxqOQBt2N95HOR/QeQJWow9rbG3nMAwyACiXqawMNNyAJ7JP9qDKf8HwodbK39r7E0nwBFEhpDOb1OaX2s5APvkD/DbCJ+kVd3XGnsZE4AjGDKA2fU9ivOZW++VbuWIDQnKHETM36xM/hY99xaXFtMIEAqEMA0T0whgGibJcIqOeBdBM0RHvItoKAYCSoFpBuhIdFMsFVhKL2KpEpZSLGYWWM0soYDlzAJLa/OUrBJFq0ipVKj8u4BSLb3NbYwciv+M4h8j2Sukr9yym3kLV9sDggoMIsb/iPDx1uTfxDIiBolwcuNPLBSnM9HNYOcQyXCKrkQPqVgHQTNUnvCU/7D+twgKhRKpflb5W4nTrlDMs5CeY2F1lrmVGyyuzTO3coO17Apr2WVWM8tk8qsth7C5EUb4DKgMKvAvYP8VuHZLbuCtiwDCw92YgX+CyBdosffUHdFgjJ5ELz2JXnqTvexLDdCd6KE7uY9EOIGIiUJVJndlEotr4js+E8dkV5W3QdVxCAqwlGItt8LM0iSzy5PMr0wztzTF/Mo08ys3yBeyrQfW2FhFqf+HkvwLcudn3kEOYDhAPPi/Af8NkGy9Bz4+MhBhsH2Q0d7jDHcO0x7toD3WQTKSKnOfOCa4NOgANHa2ye74XVWNFhy/i7gchmJpbYHl9AILq9Ncnx3n2sxFrs9epFgqtB5k7bEC6vdYK/4jmCi+ExyAQWz0NxD+MWWq7tZwhfcH2ge5f/BdHO4+Qmesi3g4QTgQca7Q9onpWqH1q7fLTlWdgHb1l0qU4E4VKo7BGxmoihOyyOWzZAppFldnOHf5ZcauvML80hSWsloP2M8JKP4l6fP/mjLl2B51APHREIq/jfA/U5bfbk14MYgEI6TCKU72neLB4UcYaN+PIQYi4pmsupB9Y3VWNSIAe+iPZvIrfByM1HYmGieAlNMERCgpC0tZTM2O88bETzh78Vly+QyFYq6FGzjHLFj/hJJ8kexYfu85gNBwgEDgSUR+CzjemvgG3fFuDnYMcefAXZzsu51UOOmcmLYJR50J5zdZ1x1DdRVXvsfwTPQtRACIP4aggLmlKc5ffomJ62eYmb/Canqh5Qiq4w0s9d9RkqfIny/uIQdwWIgaJxD+DSJP8g6u8gsYAfa3HeB473Fu672N0Z5jhAOVdgfXxMQzIeutwN6fayMFX2DQfjzx/q5fOrE++bU/dzuEst1qZpHLk29yZfJNLk2eZWFpCssqvdMdgIXiKZT678kUz8CE2hsOIDbaCfwbhJ8BIu/UFX+wfZB7D9zHiX0nOdB2gKAZrIbkLpANDxhXK5z3AQF9HYANyLN/XyOgonI7DD9gsLHvyxUyTM1OcPHyq5wd+wGrawvvdCeQRak/Bv4B6bGb3kH49lQChjp/FZFfA6LvxCfan+znU6c+zYePfYST+07SHe/GMMxqnl3J9ctzRjZc8/pEE7G56/UfO9B80YOAjs8qdhvgnvMYZawB2/cpPagooj0X93IimqWlbGdzcAIBM0hbspv+fUcYHDiBYZjMzV99JwOGAUSOIixRmP/R7o4AIodNxHwcUV9F5B218ofMEJ2xTh4aeohHDz9KIpREDPHk13Y0vxoNVCaqLde2r9S1VmffSEGAChbgOEat0N5np8CZ30t9XMHzfU68wL4NaVklFlemee7lrzBx+TWyuTUsq/jOcwNKZVF8DKP0bdbGb5o3NG+qcwl23ofB/4nIwDsp1B9IDfDIoUf43O2f49799xAOhBHD8OTyIpVZK2JblaurM7aV3w6oaVdTv0iBil0lyrCUVZ5+Yjjdv+uX11f76srvwho2ztlv8tvsXLUH5c+cAGfFHyBiEI2mODx0N/sHjlOyiqSzyxSLuXeWAxAJINwJ8iyFhRu7zwHERkYQ+WeIPMg7pLsvFU5x34H7+Ojxn+LRQ48SDyccE9jpHZ0Iuy4u893TRxyAWr2tOUtKWMEMpfAq+dA8FgpTRR2/6wD+3Odsj0I8caN4P3Ndrx9Iqb22DQdokEx0sX/gGG2pXgrFHKsrc6h3VGogHUA3ofaXKCzcFHDk5qQA8dEu4B8A/y3vgEq/oBnkWPcxHhx6kFP7TpCKtDknsG2h1+3b48jbt7/nbwYNEp0hOvtj9B6Mk+wOoMwCViCPMorMjlu89I0lH1CxFjCoKUKqcS7O/28PpJxfvM6F8Rc488bTLC1NvZNigWWU+l0sfovs2FzzO4DYSAj4WUR+E+jZ608nHAjz0eM/xUNDD9EWaSuDe+j2750IvzP/d66OUGPPH1Di3fMPxwP0HUmyfzRF71CceFuIUMQkHAsQDDl3XZfmcvyH/+nl+rn8dgqEPPUH1C8g8rm29WinUMgxPTvO66ef4uL4i++ctEAxg1K/Tkn+jPz5Ha2t3vluQOFwZfXfs5NfEMKBMEPtB/nZOz/PwY4hDDFYr2dxhL8bE0hVJ74WZLOFCO5JpcpbfWKUV3czZBAIG3T0RRk4mmLgaIqugRiBoIlhsAE2+mKzsQB9Q3EmL605wUfb6uw8d1to7wby7BPaXiC0Ed0oDwjodAhVd+B2RFXQsvx9gWCI/v5j9O4bYfCtH/LCi19ieXlm76cFQg/C/4ChXiTPm00cAewPEo/9LuUmnz05TDHZl+jlkeGHee+hx4iH444XH9vKaV/BxFNVpzz5s2e1BcywQTQVIpoKkugK0z0Yo3c4Qdf+GLHU1jqoiwWLH379Kj/+5qQzGlF1Sn5d/QHuSMG3OpAdrDa0HXd27jLPP/dnXL92lnw+wztg/B5r8mvwVqE5HUB05AMY8iX2aHtvwAhw+75TPHHkcY73HCNkhj05LD5A1zrIhigv4Gb7HREh0R0m3hki1RMhtS9C50CMjoEYyc4whrn9R6aU4q1X5vny/33eBSrSQLiuL/H1xwq8GIV+m9J5X/TnUr5/9q3Q1bUF3nzjac6/9UOWFif3elnxGhafJHP+qeZLASIjAxjyG3t18geNIB85+iEeGnqQvmRf1X0qV+Ue7s05e1jrTe5ACMVNOg/E6RqM0z0UJ94RLq/4HSGC0YC2qGZbXl+EaNJEBQpQDFZAShfwhs6B2VKV2geAehNRvP9WNY/rTa9AiCc6uf2uj9DbN8rLL36FyWtv7OWUII7BPyRy5CzZC9eayAGMmJjyS8C79uJdb4u08dOnPsN9++8lGow6cl533rw+weytuqDKn9ly/tS+KP3HU/QfTdGxP0YoGiAUMwlHAze9QHt5Ice1iRUQa2N5FR067wEGla1isNbqrxz1DI2Cig7/oXEqdidlT52CwQj7B0/R1t7Hc8/+KRfe+hF7eDyAafxXMPKvYGzbzRPbf9XChwxM8/2I/O/AbXtr1Q9wtPsonz35KQ53HqoU3/hPBnxecrFNpMh+i/d8/jBDo32IIeU/N2HCW5aiWLAo5i0ya0Wmr6wxeWmNK2PLzN3IUiopSiVL08/vCs8b7A9gM/0BqlpW7FcdCHaSEttx13cW3Pe5Ylco5jjz6l/z2ot/SS6XRuNK9sJ4A6X+HqXSt8htr0pw+xGAafQDvwgc20t3OBKI8NDB9/Dh0SfpS/Zptr5Eu1opZY8A1uvwbC+5BYZpYAZ3viEys1Yks1Igs1ZkaTbLjctrXB9fZfpamkLB0gJqdjDOvSSIplbBHino+hJwRDxoC4Q2jqtc1YHoC4Q2vm/9hosbVKweNxgMc+ruj5BI9fDKT77E0sL1vdhleAz4RUzjDHDt1jmA+GgY+AjwIfZQi288GOeDI+/nyZH3kwjHPYUpttJ9TahKZTUDxxZY5TuKa1BM78x5lgoWS7M5lmazLM7mmJtMMz+VZXEmy+pyHkv5gZOaLTw0rccb+/jKW82Hc4vTucnp3VFQDrjEthWqAylduIC7pgB7xCHu4yoMM8jw6LuIxNp47aWvMnn59b3mBAxEPgTyNPHR/8ja+dytcQCl0jCm+StA5165s32JfXzg8BM8fvgxQoGQbZ+68ubZlnw94OcDWFUMi2uQX1YoS9Xdr/eE9SXFynyO2atppq+ssTSTZWUhz8pintWFPMWS5ZxUuoYi3PiED/Bmw/HqA4NoKMpcTlP8onGlzURrk5P62NkcsohJ/+BJIrE2Tr/0Nc6ffXqvRQGdwK9Q4vvAuVvjAAzz7wJ37JU72hvv4TMnP8E9/XcTCoRsjTrullmcgJUrBxafqj8AVRKWp3IUsiVCsfq3v5CzuDGxwrW3lrkxscryXI5cpkQ2U6KQK3kBOs/ErE4OT3gO/sCbK5XxzGPRAHSO2gDxdxJuO+W18zoG0VYb1rNr6zrA3Q99Hgzh/Onv7jUncAcGfxf4tbcfBIyN3Av8CJFdz+dviHC0a5Sfu/2nGe4YRgwDpap5Z3U101TL2V9KR4Ag1dC48uJL5eXsP5bi0V8aIdUT2fiSUqkM2BXzFsszWa6PLXP9rWVuXFojnyuhrDKwp2P62Xb77jZKfrX2Qo1eBR8SE2XrOtSAe/52NgBT8LXLZJZ5/SdfZuzMdyjk9xBtuVJ54CHSYy+8fQ4gNhIFvojI57nV6kI7MI53H+Vv3vmzDLUPOVZse66Me8LZV0Jd1Zo7erBNwkgiwOEPR0n2RIgYUQIqzNpsgRsTq9y4uMrybHZzTLz1uuu2xQmomfxb5ASs1x/gdlJ+90DVAjNr2BUKWc699i3eePFrZNKLe8YFoNSfULK+QO7iprGAraUAwkMoHt3tk98Ukzv6TvGZ2z7BUPtBD9iFZvLrklUdeOaog3cBiNmVIv/lD18o1wMEOkkG2wgYIdukqVFj7wLyFGqDNkgLqClVH3jTXpv4AIN1Sn6Vj6N0gIp6Z2J7o23pk/e4drC1vl01MgmEooze/gQAZ37yFXLZlb3gAAR4BMN4AHhm03Ng04cLH4kjxq8j8hC7vM//nv47+ZlTn2WwfRBn+6k3t7Tvd3smjmMCiWeiKTspR2W0h7ppD3YTDcQxxLQBdOhDZx+mn+pf3mM4EnzHv5XHuXmjnBpCI1qS0UZqCOpf20bUtBU76tuZgSBtPQcJBCPcuHp2b1QNikRAihjtT1NaKNxkB9D9CMLfAfp28z0b7TzCZ09+ioPtg4gYLm4+F4JdealEgz6L7UMjaCBdefKFAoYVwEWcV3UgUmMuuvkBxOVoRAeoSX3grRFOwI2TEs+5VO9Bjc/c1+Z5TzW4gs+1ubkD/e1ca2EDdoYZpL37IEYwxMy1c3vBCQQQ4ojxGoX58ZvnACIj7Yj8CsKH2aX7/oYIxyo5/+GOQ5XJXynZEeWSw5LqxpZuchkWwYRB6pjByEfaefDzoyQPBph6MQeWu+vPH0DU5cg6Zh61MS/qA5LgBcrQgXXownlqtO/iiIoc7bv46xkoV9UfvniB/ftqYRzbsxMzQEfPMMFInPkbFygV87vdCXQCq5gdz1JcyO68AwgfMTCNBxH+PrtY1Wd98h/qGNpYucQOJolr9RNv3iymItRl0HY8wB2f7ufhj53iwHAvlrJ49j+dJzttD/31q6mzsEY8E8nJ64dmhRVN9OCFdze4A23X5uD60+by4uL1s09+NycgPq3EtmurnIPYju+JFHQcgw472aIdvnaGGaC95yCIwcL0ONbu1jE0ELoQeQmjfYLSQkM10I2DgIaRBD4KHN6td+hw+zC/cMfnGW4/6MjZ7aBd9TMNoCZgxCz2nUpw8P5ODp/qJxyu7oKefeESq1eVNzjy2T3QVwz6FNu40fl6vfsKbU++syJPD6jVAj3tqyk1z8V2barGtW38rh6kdAKIO21XBgaHTz5GNrPExde+vdsjgcPARzCM54HlnXUAYg2D8dndivz3JfbxmZOfYLiy1Yc7rMad33sBtdThAKOP7WPwZBftnU6qw9npBS6/uEhxbX3dceXy7oYZ3FRhdTgBcVfp1Wnf9enW8weSlf+PfMaGY/I9F/uef2PXtuFmanUnbtpOU1lo+3cs2cXxBz5OqVjg4mvf2u07Ap9G1B8ArzUWNjT+1T+P0L8b70pXtJNPHf8Yp3pPbOT81TfDlZfaQ3ZbzX/fu6O895dPcOLBQc/kV0px7Y1FFi/kESVeANEPFMMbnoumF1Y0fN864M3bgtsACacHp3Ch7sofVPTE8eKTeviBii7wUdmBSKWzU43bIQ55M/1xq443kujkxIOfoWv/LpetFAYRfmEzHqP+iB0aBPMsIrtOzjsVTvKJY3+DJw69l2Ag6Ah/dRV02NpOEUEiioOPt3Hvh46QSMW0x5i8Osu3/+AM2fEADnEPHyDPEQ3UqDZUGiBPVwSEqt2+a2FRLOUpWgWy+VUWV69Ssoqs5eYplQokYj2YZpiu9sOIEcAMhDDNMCLmFqsN/WjBlIdVqCYt2E7brd8ndxuyzW5p9jLPfe3fsTJ3dfeyCym1CqUTpMev7FAKYP4yIruO6ScaiPD48KN84PDjBMzAxradk49fOVtcqUpkhTsNRp/s5bZH9xON6oWNioUSl0/PkblkbJT6ulthfVdgR2Wc+OMA2oo3Z4RiBzPXPyhZBRbXrjOzNM7U/BvMLk0wv3yZkpX3gXkCpOJ9dHeM0tdziq72wySSAxhGcCPS0bcSN1r1J16BE90ugnh7GXbEbiMYcbUX2+yS3YPc/t5f4LXv/CErC9frMxs1ZRQgcZT5y8A/3f4uQORIF2L8U4QDu+0+PDz4bj5928eJBCMuEEg8IJF7z18lCtz+8f2cfGzIAfS5x/zsCs/88ZuQDjm+2VvdhgfS9+AMvu3F1C+zpbrdVrIKzCyNM3btB7x84cu8celbzCyOkc7Oo1SpxsJhkc0vM780wdUbLzO7cJ5iMYMZCBMKJRHDdGzh4cIc7Cftd21+isGqJmCqEVFxFWZt286WGkSSnRjBMIs3LlLcnX0DAhLF7PgSxYXM9hxAqPtDCD8H7Krwf6htkF+882fpinV6gCBxVPh5O95ygQx3fHqAk48MEwoFax7nma+/zuJrFakt6vDmieY/Ir4JmWNy1BXUgFgySN+hMMSmSBvnUZFJZheusry8+bp3pSzS2Xmm595gfuEihWKGVGIAMxCuf21S+9q8EuQ+dhvX6L0H9qKfnbLbEGM1TOId+ygVcizeGEftRi4BIYjIaQrzb24jBdgXAD7ILuv3bw+38TOnPkNfok/TvqthubGDRSGLOz62nzsePVJ38s/MzDP5bG5j8juPgU93XWOIuLd9183MU7XvHohx+3t6GBxNEYkbFEr7KZbuA2BxcZGx8+f5T3/2pzz77LMUCpvb6y6V8szMn2Np5SrTs2e4584vkIj3N35t7jDd23OsrV5E2UlU69mJF1R07Qp4yqTr2IUiCUbu/yiLN8aZHn9lN0YBneW52/M1mClsLQKID9yN8LeAwd1y1bFgjM+e+AT3D9xbkeB2hv5+irwKkIji2Md6ufOJw4QjoToTo8Q3//hl1sbLmyk6ALHhdls3gOdzzu6cNp4K8sAHBnj/54Y5eDRFsj1EJBYkHo+RTCZJJpP09PQwOjrKk09+iOHhYcbGxlhc3HxEULIKrKxNcm3yRbq7jxOJtG0IjG62lZgGwDh/u0a/z4tJUKkRULXATJsgiREK0943wuRbz1PcfboDZnlBi/yEwvzk5h1AZMjEMD4J8hlgV0h7h8wQjw09xAeOvI9YMLqx7dSIIi9hxf5H4tz55CHi8WjdY42dvcrEd9copd25r3N1EVtUsL7yiKuBxqO+q+qo7wrEUkEe/fhB7n60j3DU1G+x2Y4dDoc4efIkJ06c4Mzp08zMzGzpHucLa8zOvUky0Uc83lNxArWUgNGAgD7VgegViD39Bluxs4GtzufhB8pW3qlognC8nbkrZ3djkVAM1HnMrhcpzqvNOYBQdx/IFxB5YDdcqSEGx7pG+cSxn6I33rM5RV5T0XEqxL0fH6Gzq63usVaW13j565dYuJgDZXgBRHR5bCX3FOV0Fj55ry5UXR/BsMG7ntzPPe/tw9gkrdj+/QcYHjrEc8//mOXl5a05gfwyK6uTJJL7icW6nXUADkeIB4zTlwu7acsat6u3K7BdO0SIpLoo5DIsz1zabXhABMUCwo8ozK9uzgEEu+5G5Nd2S/6fCMX5/MlPc6x7tLzCatJDJaLtDgsOKN7zM6P0HWisxeGtV65x7ukZyAa1JbRu5N/Rvuso7Fd6AKxO++6ROzt4+KODBLbILNw/0I+IwbPP/gjL2lonXDa7QDozR0/3cUKhpKYRQXNt7k5En90Ch53juXlBR7VT7cX42xmBIJFEJ6sLk2QWp9lVVOPl7ftnKMxf1i6cer8xEgF5ABjaLdf52NBD3NF3CsMwXPvi6y9T2SO4222tQIn7fvoQA4ca0zJdmF/m4kvTlJZNTyjp7a7TtO9So31X+djZJk00FeSuR/YRimydiiEYDPK+x9/H3Xffu+XvUMpiZuYMYxe/ScnK20qTa+xa4K0OrGtnv786EHBdcUnwsdM3WHm3Iv3syucQ7z7AgdvfSyS56/rghkDuIToSbtwBGHQDH+dmqAffhHFq5BifPvEJghsFK+sP1t5qYwPo1h+6qRj8UILhE41VOFuWxeTYElOvZpDKrXN8ny+Lrk4JWFdmiwMYxH7+lRf24NEUXf3RbYuJDA4e5PH3vq/sMLc4LKvI+fNfY27uvHdLTel2N2yqv3iZhz2gZyN22OyoZccW7So/NQz6jr2b/tvegxEI7iYHEEDUhzFUZ+MOAG5DePduuLq2cIqP7vsIETPkyfHEvtfuAacsUscN7n38GIFAY6vp6nKGn3zjLcxCyLZ1aAP8fLe/VbU2fv287JGvY6FzFilhBwaBfUMJYontv4ChcJBDhw/R1dm9re+xrCKvvfYfKRbSrsiT+iCb0tkpFxDqttM9S9Ect56dbNpOTJOD93yIZM8Qu2vIwyh1pHEHIPIpoOndXDgU4r2HH2ak8wju6rT1FUdtaPM46/PDvcLtHxwi2RFr+HjnXrlC7lLIucrrSn5r9cZTQ31XU8Nu7yQ0DCESNXdEIRigq7OXzs7ebX/P8vIlbky/qo1+3G3XtQhBnXb42FXLuWrZ4bBz7wo425Xr223UdxJt7+Xwg5/EDEZ2kweII8YnG3UAAuoDu+GqjnQc4j0HHnAIdtovQ98Kq1DhEgP3t7H/aHfDKHo6neH0NycxlOlC7xsQ2XClCjXtXJ/ZnVowbBAM7xwRU3t7J+3t28d4S6UCly//gJJV8KQ0NcFRnR07Y+d55tSWL69p54L9eg7fxb7j72Z3DfkbujvofZviowdBmj7G6eps5/HbH+JAYj+CeNRtN8JupSphddUhtA1GuO2RQSKRcMPHe+67b1CaDbqAMLRlsd72XeXDmyf+qrp4eQQKeYtCfuf46/I79H1KWSwvXWZl5ZqXY7AuGOcEatdFQ7V2Cg/QuD07pbdz5TJuUNYIhDl474eId+3fTR7gcHlu13MAlnpvs4N/hmFwOHmIu6J3Ya63rCpVH3gDJKY48HiKrt62ho83PTXP7PMlKIpzrRBns1i16k85khA3QcX6OVpK6dttXRGA2lhpFdl0Cau0M9tQCwvzLCzM78h35XLLzM+P2ZyCqgGy4QHZlEZh0GPnaInejB2bs8MmSKJsqsQ2u2TvEAfu/gBiBnaLAwhU5nYdByA83uxX0t3RyS88+SkSwYRmJRZHS6iyA29A+6kg9zx4rGblnH0UCkVee/oSizcyjvr2Kp+gT5sv9so4tF2H4jpnxzalgxNQKr65xNSVZTJrxR0I2xUT4xNcn7yyI88kn19haXG8er89IBv6duBN2SmnOjA17Gp0TzZu5+Ux3Hj+gSDdI/fQOXSKm6LvflOyAO/cdjqA+EgK4a5mv447Ok/RMbPPlV/a1w83y0+loKPN4r6PjTQ8+QGuT8wy+0YOKQScK4ny5oYoN/jYiLiH+5x12EAZ7Mrkl3nt1TeZnV7Zdi3Kwvwqr716jlx+Z8QxlLLI5ZYoFNJe4ZL1q6wpcOJMrRqyo7ZakjsywxVpKRd662+H1i7a0UfP0QcIRndJo6zIncSOtPk7AItTIE1d+dfeluIjh54kYAR8gSB8HtjQIx309jV+eel0losvzbA6WXChC5pj2cJGd+heG/DT5cr6383kl3jx9e/wwo/OUyxuPXe3LMW5Ny/x7I+f2dFnk8+vksstbwK0k5p+bPN2/n5xS2rDdewwDLpG7ibRO7xbooAulJz0dwDC/UCqma/gXb33sS/RW51krjAZHcU2YHQXGbl/AMNsHEWfu7bC2PPTUDJd4hl4K8pcravuV3EnOAELpQLX5s7wpf/vy4ydndvyPZydWeP3v/jnXJs8t6PPppBfo1BYc+EZtbj5lKaVuJYdW7QTfzvR2TkfcC27SKqbvlMPEwjHdoMDSCLcrXcAgZEQ8G4g2axn39fdw/sPPY6B4VDkrSYAogfeTMWxxwbo7G/80jKZHC9/7wIsRqovqFKIZs/fuf9cffFrgoU6CXG8dQVKymDhemRRKuV57vUv8cXf/SrXL69Q2gQgqCzF4kKW3/ud/8L3fvCnWFZxR5+PUhaWsjQAbAMgmx2MU352OMG4hu1UDTsf8FaUtmoTGyNz2ZEY9N3+XlIDI7vEAci9RA6YVWRwfQQ5jMhBmlTxxxSTd3c9QFekq0osITZiDDuRJ9VKQAVEDxr0n2yvS/BhHzcuLzD5QhaTauGP+Alg1FLfda80gtNOucU4XKGsqnL9iQiIQa6wylef/rdYqsjn/+YHOXHXALFE0DcKVQqy2SIXz0/zx3/01/z5V36bXH5151NMwywTiVbO1cKfAswOstkbpfSUXS4OP/Gn9tJz/dWyo76d3ckrr52YAYYe/CSLl842u7iICRzGjA4BF50OwOAoNC/td19iH3f13U40ENFU37llp6qhm4QUB+/oofdAxyYQcotnv/omZiHkAac81Yb11HcV/uq7Cm+bag0ALBSIEQqUuQrS2UX+6vv/F1OzY7zvifdz3wO3s/9gO22dYYIhYwPpX1rIM3V9ieefe5GnnnqKF175Bpns0k15RsFgjGAo7pEVs98DZQdsbQ5VOexU43aO+MllR2OgrN1uq6rEbQdvIzlwhKUrbzZ7FHAA1G0uBzAiKEYR9jXjGQeMAHfuO8VQ26CDVqo+MKSIdgfpvS1JMNj4fu251y+xOmY45rpOQMRfT8MlbOnYrXC/clKH6LPK1x8OJwmHEhs/Wc3M8Owrf8GbF57j0DdPcezoCQb6B0ilusq03+lFrl67zNjFNzk/9hqLy9ewbmI/eyAYJxiMe0lRRQ/UbnTh6e6VWzDFz86OIdQSQNFRs+NuB1bOjs5G7QAMk/67nmDl+hhWqdjMDqAfxXEY/iuYsMqzIlSMQWA/EG3GM+6ItHOi5xiRQLTS4+8urPFu+60HPG0HI+w/3NPwsXK5POe+M4MUzZoruYf+yh3216PJ8iEOFduEd4S/CsLBBNFQmYprXdG2WMoxs3iBudcu8dobTxM0w5hmGIWiVMpTKKbJF9I3XQFXxCAcaSMQivveA9E9I1+Qbat2NGYnaEVUGrdzOzghNXicWM8gq1PjzewAosB+QkTJs1Z2AAGzHZEBmlD2yxCDkc7DnOw54QRrfMQ97KFcIGqw7744wVBjq79SihefOcf8eA6lDK+DUWiaeGyTWvlwAtpSBa36rnhbmHXpjWDQmTpIOBgn69q/t6wi2dwSt4rEOhiKk2w7uKG8pOdFtKn0itMRboTabju83IqbsxN/O0eIX9+OOnbhth723fEYa9OXm5k5SBAZIGC2k2fNqLjv9mbN/2PBKPf230UkGHa0elbr++wVdMpGKAFtg1FO3tO4lunczBJTL2ex0sbGtqKyqQNr23ftbb5u9V3cAFON6kCprRi8btfdfphIqPk2akLhNto7RzzqyvX4/T0cfm6Qzd5irbZi56cijO0fjakNqzp2RiBI2/DtJJt/R6C/MufXWS2kHZoz/++OdXPnvlOu6jtX/bgdSbaFZd33RRomvCgWi4y/OsPCRKba669J973qtj7tu/gAR6p6IconCqmCirbIYz0dSh6kI3nQQ0V+S5cUMUi1HSTVcci5smoQDy0Yh5PCqxZot3U7fOxs99mDIbnVhuvbRTr2kTxwrNl7BPZV5nzFAYhqa1YH8MDAPSRCCS2K7gb8HD+NKI7e1biY0fz0KuMvzqCypi9Zp157zwUSNZJE1QQGNR/ajhkwwxw58DCm0Tx0DYYZZGDoEaRSnan8dj10YFyjoF0jdmzfTkntas16dmY4StvQCULJzuZ2AOU5j0F82AR6acIKwLAZ4vHhR6pzQrzAmz3msz+k8JAi2daYnGGxWOLyGzMsj1sOpFl5KvKcOxB11Xd1nIDirIzzBRUdnIC2nQiBwd676Uw1T8d2qm2Y3v576twDLx+jp05Caqkq+agIu/3mptSG3XY0qEpMTVXi5OBxIh37mtkBpIBe4sOmQSkQQckwTVgAdHvvSZLhlIZxxwbCKGfV3/oW1Mi7+htmzlmeT/PS1y9B0XBU/bkZayxbeKlr361Z779ZTkAXZ439HgQCEe4c/SSmcevDTMMMMnriUwQCkbpIvL3SzgGwOlIGcVbu2Z3teqhtf0ZaO/HauaornXZuoE9vh6+dOJ5bIJ6k/chdmKGmZQ0yUDJMKRAxMIggHGpG9P++gXswxNiYKA6RjfUKOqkq8q4bBTth+Fhfw11/z33rLMZi1BHuSR2iD9EQfXg5ATV2VDkB0fHm2WnB7KujcjqWgd47GRl8DEPMW/eMjCBDRz5Id99dLvXdak/DBpipaoNsWoVk9/c5QLtadqq+nYu6vJbaMOjLmqt2yvV9Quex+wlEm7aqHoRDGEQMREVANR0DUG+8h6NdR7zijui0/ZwVW8nhIIFYYwHN1OQc157LoNv79VB8u9t38WnfVfaKN81K4zqGsr1NSrev7d0SJ2CGOXH4p+jtOn5LAEERg66ekwyNfBAzEPYBR73gWX272mBrTRXhzdhRw070HI261FApvV205wCxvuEmzgLUEKIiBkoiqObj/z/Zc5xkKOnJtZRmUXeDOgOHu4jEQ/VvgVK88tQEpIOan9UI52sCg5qXTfTpweaAQZexQHvyAKdGPkYqMfC2P59k2yBHjn+MRHJAL12uuRD/e9Wonc9z1ICyO2Pn87w0zkJn13ns/iae/wyhJGJgWUmarAYgYAQY7RwhGoq6tviqcj/Khf1vON9oidS+WEOlv+fOXmLmTBYsL5rfePsuvu27WqEMDzCIdo+5toOptDoZAQZ67+CuY58jHu1+255PNNbN6InP0r3vdsQIaMBRPXi2I3bcorZhnV0dgZPU4TuaGQjsx6LNwDQPIxJupjMbSPbRn+wr5/+4+PUcfeZUw8bKkh3qNgi31w+Js9k8V55bITeP98VCz8nnVOnVt+9ia9/V8dz5VwequpyADursynWbZpjhA+/hXXf+LVKJgU2xHW0+7BfiyQHuuPfvMDD4IGIGfVMUZaPaVr6pjNQF4zx22KjAfcE49HbKZqd0dqqGHRo7tfH7judWsQslO0kdur1JMQAJY8pwAFRfs1UADyT66Y51bay6Tq585WDTtXfVKaB7f4q23kTd0P/8q9e4emYBZQU2ZObXpQX8t/WcKrPKJxwU26q2sUlpK+hxfGaTMKn2ObghCfE6H1v5rIjJYP99JOI9/OS132d2YYxCMb2zUVkwRkfnKKfu+QKptiEsHXjm4tyrpQNgB8900uAb1ZAOO3xAu3p27opBdXPaht3XaJq0H72P5fHXmzUP6AugaGum+R8ygwy2HaAtnLKtnDbkRVtmW5lQJnTtayOVqr3/v7y4xpVXFyguGi7Qzvu9OBxNDdQYOzlIg5yAGxNEaYlD3ZyAjlZnzarbnhriPff+KhcufYcrk8+zuHxl26QfhhEg2XaQ/v0PcPDQE0TjPV5QDI3AiVL+dg2AbBsgqqvkV9W1c1cCOoFGh50re3PY2fAenR2aUmdd8VNi/whGIITVjNLiirYASFMxGqbCKQbb9mMYhk2zxX3e3sIfAAkrjGTtrjfLspgaX2Lq9BqC6Q/06EA6RV3hCHv77mZFQOrVElQ5B3xOViAR6+HE0U/Qv+8urt94lYmrz7C8cm1LzyKR3M/g0CP09N1Fqn0YMxB1NCvhA2z6gXYN2/mq/eiB08bsnM/FX7ikDtZQ6z1wqxIrRTDVSaRnkPTkhWbMAxKB8jZg84QA7ZE2+hN9nlDSqcEnG9Lf9gchYYUkandhZdN5Xn16HGvNdAB+tjRR376r/Np3vZyAdhYZXMdw59Q6eWzlC4CJRyzEu0OhCAQidHcdp61tmAP7H2B2/jyTN15heuZ0XRbgUChJT88pevvvpqNrlHiiHzMYqVn5KJ6CqHp2olXn8dhJbTs/GfKbbieN2JV/bkbiJPYfaU4HICrSVCmAIHRE2ulP9vlW0Amul8g2GSLxIKnu2uSMb71+leU3bN8nUqN11dW+a+eR96OS9ksVdCxG6+2kChD7v70hrIPtyOUQcIGU63aBQIT2tmFSbQcZOvgoJavIanqalZXrLK9exc5qk0zuJ5EcIBbvxTCDGGawnFMJWFowTgOK2e1qtESz/ndNu+qOj/MeeGnVWN/7F/xbtuvayebssNlpnPK6nRmOEe0/XL2eJkwBOprlfEKBEIc6hjcKW+wPpAyoiZNswr56C8QSUbp7232/P53O8urXr4EVrIJrSpN7a3jf3Dmhn+Kt8qka8+ME3HjJEX2koPSRgmiYdkW8RVLl+2ZiBkxMgY5wgo6OI3rgTel59p3Cq1KTj98te6YaBM92zq4Gv79Lbdhp569K7AQLNXa4uCntz9cwCaW6CMSSFNeWmy0E6DDWu4KaYQSNIH2Jfc642TMJ9Yq8ANFEmETSPwJ45YdjFG8EtQCiO65X3qRAu6esbd/VJL71gDK/kl/ftlc0wKW7NVn8hUs816bbylO2TTXlcw827MRjpzT3SnsdbMVOato1kypxINFOqK2Hphui2gygaUDAoBmkP9lXEzjyVZkVRSnkj7TemJpj4kfLG7p6DQVj0ujPpUaUtYmKwe18JtIYmNnAtSnHBBZfR6k2A9qJ+Nt59vx9rncrasO3VJW40ryVaCPU3oQOABIGqnmKgEJGsAIAysaKIvXq4tc/N6AY1DsApRRjz82QueHV3vNEA26acRps33W1i/o2s2AP92s0HG2YKX1xjw/opEOwN3tt9jSDGi3MgL2KoU6rs71hpnaVo/0eKKlRDam1ayZV4srCluwg3N7bhNuAEjYQ2pvlfA53HiJohmwVdO7WUH9FXpEyCKgbE2OTXHplHpUTZ2torXr/Rtp30XACouEsxCkmoVzVi3i+TwcqOkN/HVutFhjUgVOuXZWa11bXrsGdDBfIVt+OxuzsD5LmVCUWI0Ag2YERDDeXAxDaDVBN4wD2xXs3VhJxse36KvJWHoRhGkTj3hucy+a58soSq1dLWgDR/jc2XNzB9Vd5mm5OQCeaj7O2v1YuL/o2VT0noBekXAcGN05eXNGSs0TdAwTYr80tcaZ0xCuayKNqpzzXa79X1bZmP5BNtmiHs73YE0E1lypxMNmBGWk2+TDVboA0TdNyV6yrCia5VjPlp8hre4ndBCBKwY3LS4y/NItYpmdF9K/S0wBMLuDId/Wjdm28GxjUpSvV6kDlAwzWaE3WSJf5IvZoOPkaANm0dg2CYrUUkjdndxPUhm+CKvH6/4MdvZixZuMHkGRTsQB1x7p8VHS8wIsXtFIexdxcLs8bz18hPyO+wJcvyCabA4Rqg2vi/98aohmNnMtW2pB9y509bDi1gVhV7xhCTUDXrwuvUbutg3ZvnyrxBhAYTWEEm48hyAC10iwnM5AasC2f4gGx0Gm+2/L5UtFZBTh/Y4Xrz6fLCKE2H/YH6BzHFzzpw+Y4AW0AnfijxsodSq6DhaAJ7b03Rk+lZ2tX1aRV3ko72cAqpCbIpgEzfezWV0b7ba4FSDZqR027RtqB3672YsEIRzECwSab/mrFAFlsDjxCaAsnNe22qra0lKqGzsVCNQKwLIsffOUMpTWjLoC4HuqWFWGVk4MOXftug5yAysYY4wYV8Sn5VRp9Ot2q4xCn0IOKCrDWr2fjZMRxHdjugRMU83IuUAc889qJL8iG6zqU/To04V4tkM1+ITXtqKNK7Gu3XVViRTDZgdF0GIAsGiiawgEkK5Nf2YE37Nxy9lVNA0opwSpUrcbevMbqmaAWQEQDdjnkhl1bdKKJFESz+omGv84OInlYhURDCCq2nnepwTrjyOXF0w3n5LTDRWKiDT18hUtcIcUm7JQPaOcFzzwciH52PiCbE+DEx04T3aAD93RRkHiBWtFFQe724oqdYWCGotBEeg4oFgxE5ZoDAOysvKx+kkx6sKa65INaK4dY6XSW179xnVLJ0gKI6wqzdqGRhtt3HSAldXnuHPX+GjTdHY40xgmoiRTqcN/VvTaf495cOycg2ZCd1AHjbMQijipMO0ejbddCOexU43buf2nAVPd7FezchxFoJsEQtWIAq81wKkGN0IUSzeT3ldoWckslMuksb718jdVLlsdL6HkEpPEqvS2CcTsjFqJ3ILXPRTbHTyjO79K1Ou+sHTsGsnmjgdogpL+dNGZnz/lFz1WpdfRNlQGQNVCy1Azn0pvoqVlH78RbxLMDIMDaSoZzb1zi0gsL5FctLYDowPscYaNyR7BanMLNCejfvgvaSrstcQKKlhMQ3bXV2vPHew904Jm/nVeqbHN23udWDzyrd1/w3Gc/FWGXHfVUhMWLFTVq50ktK4h7MOi7k3FrAgBZNUAtNMO5hM2wprXVRzzDg/KWX970Wp43vjfF7PksKPGpyEOvLIw4j+vx4F5aLncbqPP8fDgBVeOcgO7KM2213KauTWOPDqR0RRIeO7Zo524osoNnaMEzewOO3m7dKbsEXXzt3Gmd3s7Tw7FpO/HYBTv2bfAoNokHWAggLDXL6Yg99LdtCTnaNm2tulUuvfLLW1oyyK4GsPLWxopTvxDG3Wfut62nPJyA4Gzf9XD96TgBpTYnILq2Vw0vIo1cG0r/feLGFXzsPCuon5NwF0Q1audq85W3v224IbtaqsS+dspbqShGc0UAwoKBkmxT+CKorchr4wfTMgWjsEqKYmXye19y5zaWb/uuby7fYPsu0hioiLftVbm3tlxqyLpWUzRbeQ47NP0Gvn3/mnvgBsW0KZoePKtvh6eEuCZw6Tk/f7Xhzdu9ParETTWULBmgmgIETEWS2mIfVcN9KV8UzadgQ+oDbH5cATsNDDbUvit1QIla9j7Aqd916JxfXTvxF0xxPMcadg2BdqKzEw/I5gcQN2bH1u1ozK4JPcCq0SwpQEekvcrQg0agww6uuMA4hX+Pv6+yj6Z91/473upAfVuutwFHeffZXfPX076ra3uVOorB0ui1yeaES+raoWUiwu/86tnVBNnwZYB2pxL1qjDxA1bfJlViHUFKc+wCIFPNcC6GmF4ADn3zjp3C060O7AbcvC+RnZRSrwTsDqfdvfa4v0/LCeh88JbyaSTaEM9QnuvFBSapOquPo5DIr5LSXvnoaKxRNcFMNOfntavx3BzXobzIuQ94Vt+OLdq9varEzZkHyLRBSU2gbn0xkLKvpriRbFeE6Gqtta/EyuaN3e273txM326r/Crj8AGs7Cq4GgDMsZraqgMdVYR+9fzKtpUn/mmNt4tRc22iYbUVp7SVrtrQs+3pa4e3vVjjnLCpA1e5COupCJe/rL6dNG7H26xK3FRbgCpHqXTRwGAJmGyGLQC/qjp/1l0XX18dIE+hI83Ep0pPNYQruKv+tM4En/Zddxstm+QExF+wQpd/Kh+QTWkJa/3Brp20q95mOyiraioub05tuLlUiZtoTGIYKwFEZUEuAcPNEQXU5v+rtYMgOhCpERBG8Nl/qAMW1hKTYIvtu74sRXUqDBugnS5ZJZZXZ1lavoFSimAwQizeQTzZWaYB14F24uX+04KFbjvVmJ1qxI7NgnE6xdbt2NUDjPW7KDTv5AfhEqhsACVZRC41xzk5p59yS8W6Q0n0+7CevFPqVJ75AExeEQsdPmGvCnO5jzqU3eIDvDkjCaVpQ8bbzqpqX9vC4iQvv/Z1bkxfJJdbK+MuhkkwGCESa2P//hMMDt1FZ/dg9bX2EeOw4x6+duK/579pO4eyj2jbcrUcjXY75QOsNmqHxs5+dL+2YdWYM7kFs+0SimwAiywG47daHCRTyGjUecovtuiq2xxtw7WFKJTmd+vJcHk5AUXvYHBVEaIRk8Tdvqu7jvKwPACSH4ef8oKFWrEQmJ2/wvd/8IdcnzyHZZW0rnfy2llefflrHDn6IPc88GnC0aT3uKDhNBB/O0fqU8vOng5txo4aqsS2NKeeKnEjdujtnKrEervmrAFgHItsALOYhcAEiAXcsl7FqZUbDhEKd7VclR+uuuK4gTz3CuyotBOXsrD7GMrOb6tp37VPfnHvKGgUg+t0tOnaYxVQKOZYyyyRLWQoFgtYygIRQqEohhEgFIoQDEYIhqKu/UWlFQvJ5dP86Md/ytVrZ2u+DcVinmIxz8rKLMVSgZBybpXh2pVQIpRKefK5NIVijkI+S7GUrzqYSn9DMBIjHEsRjCSRit6j3/eh2aJzR1DqFqkSq22oEq+/bFax0CzqQBaiJjCL2QBrEyXiI9PAMtw6huCSVXIE0h6WXOWVxXLP+Fo8cloFIC2QZ9OFrwGoOXL/TXIC6rY2S8picuYi5y+/zNXpMRaWp0hnlimWChhi0J7qJRyO05bspbd7iHtv/1Alb1daosr1756du8yVq6cbfw7FAqVioQ4oW77h1yZe4fLY86RXF1hdniabXqJYqG4oGWaAZEc/nX2j9B48Sd+huwlGEy4QUH+fN6U23KjdNlSJ69vVUCWufF5YnEGVCs3gAJaBadYmSoEKGrOEcONWOoC5zJwWhHGDclXGXNcaJjXC+Xpc9BqVoca3bKQOoFg9f7/23WKxwNnx5/jJmW8yNTfu6cqzlMX8UrlcY3L6Apevn+aO254gXKFQ9wMLERifeJHSJl66fD5NLr9GwudeOaK2K2e4+MYz/stMqcjS7BWWZq9w/cILHLh+jhMPfY5QLKUFz7YEArKDdjdNlbhyP/IZlGU1gwO4sd4FXA75RS0CN27lGU2vTJdfBi8q5tmLtnPkKXFBcDX2ZjfAQq2TWP9baouFOOwalQHXi1OIlCf3xeun+eGrf8nkrHfy60Y6s+KUqqpRHTg9O7G51FBZG+cgOvINEf+quRojl1lm4vR3OfujP8cqFb2grE9bc2Ntw5ttL6a2ndSxw1kb4Lt74KpoLC7NokrF5nAA5TnPOlvmIre4FmAuM8dcet53z185dOfs6LcXlLXzBLrbdy3f9mLx5bnbVPtuTVDRHU7D0uosL735HeaXJjeFE6+uLdjAJ2/r9PqYn7+2BXzIj+XGWb246TSvWGDywovcmHjVu5NhY/LRVkPaQUW3KrFy4gl+z638xcrbUu7q4HMKkmjs7CrCmu1bO5i5nk4WVhYoriw2CwYwWZnz66CfsQzM3FJUQlmcnT7rKfkV+/6ephZbu6KLjiLKW2knmkhBNsMJaC8+EPTccm6xC9u5Wsri6o0xxq+93tDKbx8r6QUcpBQu4RIECoUcllXc5OTHs5Nh73PQ5rubGOnlGS6f/QHFfMYWwaAHAZWiVMxXwmZ/OyVeLket2IqGw6+R9uLG7NypqHJEFIX5KUprTdJ5r9R1isUFgDIGkFZpYlxBJANEb9V5vXLtZR4efhjDMKsrjtKBbN7tM20Pvaojga1wiD+4V2ctJ2DFWeSKOXLFLJl8hlwx55hAkXCMjlSvfWnSgoqFQp6LV1+jtIWwMJ1Z8hUuWf9scWkKaws5p99OhvJ5Hpsdq4uTLM9dpXPgKGhlxcqrfHZtgRvnX8SyikTaeggnOgjG2wjF2zGCQaeIih9oh1c12Q8HaMxO6tq53z+lLLJXxygszTbD9E8DV8hfylQdAGMlZOQMcB04cqvObHxhnHMz57ht34kNb6pqAG81abOF+pLagn8urwEVF9ZmmZh+i5nlKZbSC+QKGbL5NLlC1nH84b7b+MD9P41Tfss7aQqlPOPXT2/pXi2vzOpfwB3ad/YFR3dgrC1Os7owRcfAUQeg61Ylzq0tcfX00yxee4twooNIsotwop1QooNoxz4SPQeJ9w4TTnU6t+Y8YK7SO0qfSsq6asN+1ZriBaUBiqtLZK6cw8qmm8EBXAPOrp+yjaJU3gCu3koHsJpb5XsXv8fBjiHioYRtz99ZiSWil5/GtZGo2xcXDRuOtiLP9oCvzk3w4sVnuDJzkcW1OTL5NYo1kPVkrN1bPaZ5ARdXZ1hNb5OV3efadqLyTLTVkLLt7y3m1siszFIqFTECAX01pCslyq0ukFutsteZoQihWIpQooNY937aB2+j49CdhFOdTpIVe3mZH+WZBqjdvJ2O0bm8+meunCN98TRNMq6BnFv/T9UBlDKXMKMXgYcB81bhAKenXufpC0/z/tEPEAqGa1bkucNzxA5hiX7v3SPRp6nIq7TvrmSXePbct3nxwvdZySxTajCftpSFQzTUrXFYOcbU7NYrsBeWprxRj4uVJpXqxTC2Xtu1HopvwHPuqj/Z+vdmVxcpFXOIGdBoNaq6jqaUz5LJZ8ksTrN8fYzps89iBkN0jd5P393vI9F/uMK/51IlXuf39zjKTdohjhoGJ0BctrNQ5OenWHz265RWmkJ+owRqAlW84nUA2aslYiMvIvJJbmE9QKaQ4Rvn/gqABw89TFu03eZPRS/uqQFmPCq9sjnevLmVKb7xyl/w6sRzm4dY5yaqoCKuJifbMcrI/9ZGLp/W3gO7Qm0oHNvSLFU+34cDUNtehJFLL1IsZAlE4r7cfA2fr1WilM9QymeYfOVbTJ/9IX13PcHAAx8h3N6DmKZWbdifZ7GWHV67StRiOcqALQpzk0z9xe+QmTjbLKv/CooXyEyUvA6gfHUvI6zcSgcAsJZf4y/PfJmplSkeOfIYBzuGCJohH0JL+9aV1Abe0EQK9tLRirNYzizy9Zf+jNOXX9hGDq3HH+yv9cLydrhYfIg+BBDlWzDVcFoheOrklbCtld+Bf+QyG/UA+IBsllXC2gJAWspnmHzpG+RW5xh+/OeIdPVrSnndPFJ+JcSN263fmGJ6mbWLp1n44deaafKXHYClHC+10wGIOoOSSYTBW32mRavIjyZ+wJXFy5zoO8Wp/js42DlMJBjxfwGlzgdSnZyOfX7bwyyqIj8+/13OXn1527l5zcozEbL5zM7t7ODqmtv295W1EkE/6Qu5DIXc1kGtUiGHVSq5notzT72YS1PMrm0tnSwWmH/rBeK9www8+DGMYLhmoY4fuNyYXfme5+euszZ+mvTEWdbGXqW4vEBTDaWuY5XO+DuA9IUlYqPPAw80yzlfWbzM1Mokr1x7iX2pfkZ7jnLP4P10xrvrd/rV6gH3oXS+MnOR1yae8+maazzHzeTWiITjNcGkxZWtF18uLE56HIuIYLlAu0Syi2x2ZYsuwE/DEIqFLMX81gmlc5llisWcBjyrgrKWVdxSBGB3AlOvfIfu2x8h0tnXWJuvDtxTurZhRXFtiez0VbKTF0lfeYv8/CSFxRlK6ZVmKfhxrzo/IT+x6u8Ayhf3XeBXdybQ25lRKBW4sTLF9OoN3pw6w1Nv/jXd8W6O9B5juOswh7pHCAejGIaJIQZiGPr2XdC376pqyPv6pZ8wtzK9PTDTKrGcXiBccQA6MEkpRb6wdSa2nC162ACdNG3D0WjbZqF/G62VhuVm/Tq2SXGlrBIKSwue2QlQtztyS9MsXHiZ/s4POzaJnOrALiHRUqlcgKQsCquL5JdmKebS5BemyS/coLCyQPbGZaxcGlUqooqFSqefRRMPVZnb1HYApcIzmME8EG66K1CKfClPvpRnObvExbkLGz8b6jzEQPsgfW376WvfTyKSIhKMEgqGiYYSmKZZgzev/PCnFq9xdW68YbS/ZjheeRn8xEJuzF3asNl+2G9vdXYTpWxuEkXj7UTjHfp6f4WnfHfbF1ADZJOdeWlYGn+dvvs/7G0bRl8otjT2Mpe+/LsUVxfZQyNHqfBMfQeQnZghNnIGkXt209Vdmh/n0vz4xv+TkTZ6kvvoTfXz7tHHGOo+UgMYLD/8meVJ5ldndtjtVieovcugUMxvfwLVqXxU2zpnzfdp5b22i5PoVIRdkcd2QeUbl/Qqwpr3wLJK5Oan9trkB3iZ7ITn5TZ8HszXd/vVrmSXuDjzFi9d+jEXps/VBgYFLKVYWJtlLbu8c6CcBkxa/2x5dW77DsB+PPGSVmz7+9wEnvY0YbtpXS5NqVj0goC4di92IAzIr8xTWFv2FySxB8C5NTJTl9h7Q31T96nhk6D9FbC2Fy67UMyTzq3ZCon06HyumGVpbZ7SNsA/z+Lsbk1W1ead5bV5FDuQAtgOIjTQo15nGIaJYZrOee5pifYq4276uWRWKRXzdVWJd6auWZGvVBHWaxsu5TJkZ6/utdmfRllPNe4ARMZBPbMn/B4KS1kekQj3Cp0rZFnJ7Fy3lqrJCahYXp3doQigmlxYvsrGjY9wJEk4knStyM7wfCe2Gsv4h3KBcXjVhmUn5r8iO3etIVXiUjZN9sblvbb6fx+Ri407AIw5kL8ECnvh8hfT86xWQnvRte+KkC/lSed3UCZRSQ1+f2FpdXZbIGAwGPEIl7glybbkX8QAHXefbXlWqB3pCaiCcVXRDj99we06yUJ61UUMoxF5AQorC5Ry6b00+wvluWzMNe4A1s7nUbyM4q094wNd66V3Vdvh4zmKaMShBJwvZllLL23ruJ0d+6GBFubNhv+BUNj3+5ROpmybz8RStVSJd+phrKcAdlVi5Xk5LCwy03ts9Ve8heJl1s7nNxEBACU1BvyYJmU13lbOfJMrHAzDIBHr8G0vXl6bp1DcATU20U8atUUEzQyEiFTqBnxVbbaX+te/Bm6Cmo5SFNaWXM9DPOkaSpGbu763pj/8uDKX2ZwDyKl5UD8G5nb7Xcjk02QLWWdRDnpuuR1xAGIQq+TR60eyqwgvr+6MA7BLaNlpzh2Kt5sMx6tkLM50ya6gu1MBUz1VYmWVquXC27xPxfQKfpyPG++CUuRmr+0lBzAH6sfkmN+8A+CChVLPAxd2+13IFbPkSzkHsOTmBLxZYY5OTWc1vUMRAG5Rke1FAGKYmIGQpxFG2byMR5BkBwA6HRgHQiGzQiG9vBMHIb88W1eVGGWRm5/aSw7gPKhnYczaggMAMstvoHiFXQ4G2vM9P05AuQkT36EsbGtNXl6d27YDiERTHhBLXKSAm3VrgWCEaLLLwW1YvVFOFeGdSwF8FJcrOwRqh8pr10t27ZfkViVWQGF5fq9M/gKKV0hfeKNmtFr7O2YKwDeAXX9XPB5/Y2UTLTC4nRGLJJ2Kt7aVzrJKLC5PUyhszwEkk91uDEurVLz1qMWuIqw22HiVR6t9ewGM8uxaOPkadmqUCjmySzOaLcaqinAhvcQeGvPAU7bAcCsOALCs76OY2CuIiJ+AiGGaBM3QjhynLdmDR7moMhnT2RWyue1vN5bJPrwAmhuhX11tHMIxAyHCsaTr+/SCKTsWBXgUlJw4xo49e6uEVeledPMyrB8zvzC9d6a/4hKW9f26eFXdL8pemAP11+yR3QDxCHSUvX8wECbuAO62PqKRpKOjzQ46rqYXWctsP69NJru17cDKJRaS2QTnoGkGCIXjrntVQ3xku+XGGjBugwp+p+dDsUBhdclblm2jFGcvTX/UX5Xn7nYdQDmA+iJK7d7SYHHiAUqcdedlBWLDgYBvZ6QS3VT7zJ2g2Wp6gfQOVBwGAiEPI5BlEytF1JZ70t21C15J9B0EATVg3M0AZVWp6CAXcagDr6dplrVHpr9ag9IXGzFtzAGkx68g6t/v5ijAXsvu1qLa6RUnFIhUFWwcNeeKlbV51nbAAbR37veQdAhOKbTV1flNvdRimBiBUHWCaOTM1o9lmAEMI7ATIZkLjOOmrMhWIUd+ecbRm+FWdd4jW4AKUf+e9PiVnXMA5a/9IxRXdv3d8QBlO18J2NG2z4OSKaBYKvz/7Z1pkFzXeZ6fc2/v3TM9OwazYBsAJECAEDeJlGWboqXEjl3+4XKqvCSuuOIlKsWOVZUqL5VUxUnJNm1Liiw7dmRKMhVLcmQrpkSJ4iJxX0GCBAmAwMz07PvWPTPdfXu5y8mP3u7tbpDA9G3MDDnnDwEUq2/f0+d7z3fe833vSyodxzDyjQGML4jHE6hPntnO6Nls8rrezeMNEGrpdDroVp2TSx/nC7bgL5p8NsTJODQaq8VB3MwATMysVqc3owJsZj73Xoj/KaT8P9f6f18HAIhJ4Fu7NQso97NXObaWS1xdBYDeuix5NpcmsdG4B2sk0umU+64yxSjXBZjG1kJJOKsm7cVGzamirDYHEa4eMwAsI4+eLHUEirokoCcS3fXRD/wDggn3AcCyUsAjwPhum5Wwv5WQL1xcarY0WVT5BbqwuAP+CJFwW91qQy2bZG298TSzrb0fUWzYkQ7yzEmsJZMr132PLq/VSbnBNN0faUf1B+u7PzeJkzOyKXRt86quxN5o524HgHGkeBxpptwHgNy4hWW9huT7gLmbZsWrelEVD05TB5vzq900pMERLRKA9aoNM9kk65uNZwDRaG+ha69K5caqsrbKaJtbON5UUvHqz7NzA40m6arXj1DUKjKucqRxsy6jwgPohTT/arJmQtnNwW8ieQRLvoE2Jd0HAIDs2Drwz8DwbpoZRVGdi62aoBPu9Z739Rwtgo0tqZAFhdvltamGC4AAWqLdxffBoW1YfcW5uT6PvE6Bk/Lnyau3Tte7HWiIBKyjzQfuk7NGeh09GceueCxtar/C493NADAMPEQ2dl1aZtcPeab5CpJngF3DmIQCLQR9IRz2Tw5ikKsaeF7vaI101O1rN0ydpdXJxuNFUWiN7kOUdyun2qD9uZnrbDkWxWvQq7kN1yXPGjqw1rdlK2cALqcAlp4vFgM5ezNKz/VEu3dr8OeQPINpXbeN1fUDQG48jZTfQLK0G2ZGVVQC3qCNNHMSTnZNQMsFObDO9gGEUJ1BQ8HoZGWt8V7zYDCK3x+uAaxq8syyTDLp9WvmAISiEGzpqCHGnGScqHXKdYf7cz63SRyAmUlilNuCa29p1FCk6Ce466i/JSTfIDeWbj4AFAjBswj5FLvgRsDn8RMKtNS1AcdGbOWNLKkG7+dDgVZaI5112mghra2TaMALsEIA9uH1h3Bc+4la0k5LrxeMN645FgU+f7jclFP+PAeZaTPScEOv7yomoI6jh5sAkNUwtOTVvQ2FwNvRs/vCHx7Hss5u6Xi8tYRjPIfkC0i547sEVdWL3xu09bLX0wSUGEaeTL4xKaiujgH8/jAWteIWc4sjmKbR8PtEo734fOEqg5MiLtuCVUsnMK6Db7Ask4212drPc1wD2sg/Fwp2pKi2aKscM7aiZ/CuzzMN8hsrWPmMA9hKaCOFwGPLgnZJ+Oew5GfJjeVuHAAAaLFzIP6WHX4jEPJFaI90Y7++qtd+mslrbKYb0z7p7TpMwB+pri8BYHL2LRf4MkFrWy9eX8AppFkdjwK0VPy6CUfLMqo+z5YKVGkBSgGh9l68gXDD54B67sClrMT9Y0AKS8+XsyVpEzsRQiHQd3g3hb8JfIls7PJWP6Cxew+LLwBv7eQZCgda6GzdZwPMOhp0UpI38qS35KFX4ho8tLftx+f112jp5fUs84uNyyt6vUHCkQ4U1VufPLPtaBvrC+j5rbVv1AqlSMd1nZtxKa/mcoxoyvkytzqPoW3WHgOLIBcYOLabAOAtLPMLjXxAYwCgMgn8NTtUL0AgCPpDVV1+oq61eCafakikIxyK0hLuAKHUtBwvrUy4cv0XjnQQCrfb0vF65iNgWRaZ9HpDJcdOt2FcZP5qU2/nv4vy/CleP6ov4Oqa0JPxiupvtR6hIvB29KK4/MwmjTjw16jq5PYBQHo0h7QeQcpHgR3XSqUoKm2RbhRFdXjbV1fpGabBSqKxCr1oSw8tkY6q1LVwzpiev9Sw3yBAS2s3kWIbsCN+hO2MLiGXS6OlE1vqbnu39uJGTEeummnUQEDhhVR/ELVK96BhANiMY+Yytvt/J+upBMN42nb8daCFlI8irUdIj+a2DwAATGsBeJAdWBzk9fjo7zxsY7DrawLqRo7Z1cakDzvb+mhr6bH53ZVyC4vZ+SuuXDG2tPYQLkt2VVDM7jiMEGjpxHXpANTkQ6JEAta6Dbt9N19TMm0v1ML9Xn1p6GSXprCMPBUZ1Yr2oRqMEBg4vtMBYBh4sBh7bC8A5CYsNH4IfA1I7qRZCvhCHOk96diV6xF0WT3D3MrWWxxCwVb27xvC4/U76uWlEMwvj5HSEg2/i88fprWtt1wBWE2eQUXAI5NOkEld/zONfJZ0cq2KBKxIgDkyAAFCVW0FSVs6o9k+z0k0unjaqBn51YWCRmDJ/tx2jaoEwwQGhkDZsWXBSeBraPyQ3IS1/QAAQMzEtP4OOLuTZqo7up/W4pm5riZgMQVcSsySaUCmKxJqo6fzUBXRWAie5dVJstnGJcACgQhtnQM16XMNeSYhnYqT2YK+nSUtLFOva2biuDYrPtcfaUf1bu28bOYzmIbh0Omt7gtoVpFJZmHclgFUaUSqHjydvXgibTsVAF7BlF+BmCu3b+7BXHZsDov72UGmosf6Tjt/YOqZZ8D4/IWtb2JC0Brpoi26z5lqCtD1HMsrE+TyjVtNBYIttHcM1BJ1VeSZYeRJbSxj6NnrT48ts1w7YDfPuJrLkFC9CGVr23Q+vYFV+o7COW+l56r+IJ6GrxnrPHtlDmkYjmIgewGUt60Hb1f/Tgz+NJb8U7Ix19xL3M1zMuLp4lFgZwBA/+k6wWKrBxAC3cwzPP36lp/hUb307TuGr+TVVz5nSDZTa6xvLjUsbS1Eof4/GIo6uIsaSk0IcrkUm4mtHQ1NPU+urMMv67sNO8izBg1CbZ9HlcsxgOILoPqCrq8LM5smuzLr/B5UdAI8nb34+4/sxGPA18lknnbzA11+wxEd5OdAvr3dM3Wg5xjtLT117KbsqjOSycVhUg2IdPq8QYYO3uEMkCLTuLI2TTzROFirqpfufccKV4x1yDi7tmEumySxtjXhJiktTNMoB2Rdt2FZmclgtAePL9QQBNjdhh1VgdVEjdtb6fgFR/jb9RuFx4uv9yBqqGUHxb58G+RnYU7fwQAAGOYYlvw0sLpdU6UoKqcPfajSlisqVW3CpgkopcXrV57EauCKrrvzAJ0d/bY22qLGvJFnLTHrigCo1xdg4NCZujtnpRegsJC1VJzN+NauNPWcRmp98Z3dhm3PFYra0C6pxReRlunoabBnN2oghNqEIwBAOvamw5UYezYiBP7B4zvpOnAVS34aw3Tdpct9AMhN6CjKY8CX2KZbga7WXo4PnEE4inIqAhAls4ul+AxLiZmGNAGPHb7LecgoMtlpLcHSijviSS3RXlrb9lfvnTXkmWnqrCzEtr7HlElA+1xVEY22HgTF42moZ98y8nV7GkqVlIrH/UKgMg+wNI2pJZ18kM352NPVh7dnEFxSim5gJIEvoSiPkZvQdz4AAKRH15DyAaT8AdtgK3as/zThQGttL7vNbEI3DS6Mv0RS23oRYzDQwuHBM/VO7aTS664BQP+B03XJuGoSyzQNVhdGt342NiocgJ2Mq+2aK2YmoSiq17/l5+mZZKFY6Soux4rPj+JtDgBIaaFNXbHNn7NCVHg8BE/cieIPbmfw60j5A6R8gPRoU0x6m8dyaLExpPwTkLEbOWOtoXYO996M3xusW0NS0gRcWZ9lavEKegPlsocGThMOtTlIRQmYlsHSygSZjDsJUN/g6bpkHFXkWT6nsbq4dQCQlkkuvY6ez5Q/2ek2jKMJSfX4yiIiW9qFUwW9guoErFSzofiCqIFQcxaKZZKZetvBAsiq2org8dtQW7ZTKFQWYkiLNc2gt5k0p0Ra55D8PpC/UVN2oOcYfZ2HEYqoIcpKZJNpmUwuXGY5Mbvl5wghGDp0ezEAnAYTup5levaCK+/TEu2hraOvrsZgKURLT15dipWDd8sUjp7FKFpo1XMblrI6Zd/6ESCfTBQqJO1S4I4/C5SidqDri9OyyExdtrWH21SCinUISihC8OTd2xX9eaT8XaQ8RxN1N5p7z5GdMNFi30bKPwIyzZ6x1lA7Jw/eSWu4w1nya6syk8BSYpZLE6801PzT03WIfV2Hi0pDhbN/aefK5tLMzF1yZ/cfOIXH678KGecUBJmffLNxCkfbJFfslqtkUDa34ap26paegyjq1gxCchurhQyAainwSm2+L9rlej9AGew2E2RnRpytzlU6By13/sR2aAVmkfKP0Ma+Q3a8qe32N+ii0/orkA8BRtNeRCgc6DnG0P5boMa+qkKU6UaetyfPMrey9axKCIVDA7cW0n9ZK2g5O38Zw2w86RGKwsChD6AoXqdMlq1Jp/Rcw8izNNM46Og5Db3YLVdpa5Y1giq4sC3lkmtI0yxjTD1XYk8wguL1NWdVZtPkFiZqWp3t15BqVy/+odM3MvgN4CGQ/+tGPOzGAICQcSSfRcpXmvWIoD/MXcfvJRxwutXIKoJpKTHDm6PPNZaWh9sZ2H8TXm+wrtvw6Lg7rxlp6aYl2gtKPTJOOEjAxMoUORdMR/OZTXKZzatWTVJFlvki7VvuBzBzGvn0etW50TmX3paOprXnWjmN3MIElqFX5pSqLkVFJXz7vaB6bkz4S/kKlvwMGmvvHQBIT1hYvAV8Aa7dteR6xtD+WzjUe6KGsCp0y1WIspcvfp9kg805+3uO0t15EOxmnMW/pdIJlpbdYf97eo8RLNpvOcm4WlGO2bFXMc3GL1z0bBq92Lsgqqom6/VT+MLRhmoBcsn4O7ocq+FWFJ+/ObFmmuRXFzA21+r6HxZTS7yDR/H2DNyISJkAvoAUb8GY9d4BAIBsLA/md4D/DSTc/OiAL8h9t/0cquJx7iBl1ZxCCnth7EVGZs439Cy/P0zf/uOEgtFCUNjujiWwsBRD30Idfp20iZ79x/CHWuu789hS8Vw2xfLcFSwXNAct00DPaUhpVtyGZeXJdkUgCQSjXQ2RdKn5MRxVxWWDkwII+Fo7m8YBABjrq+iri84S61LjU5ET8LT3EDzzIzStLLGYxAF/g+DbZEdvGGl+Y4udtYkM6dE/Q3I/LhUJeVQvP3nXL9HZ2lu/3r94vbO6scBLFx9piPgDaGvdx4G+U4gi+edQAJYmI7EXXRH/aOvoo61zECEUW7GNoJ62YXxlkkx63b2faWMZPZepcRt29gIUvo433NZQS3Bmbd6h0isdcypQ/UG8DRwz3hUAEovkFicL/RoCGwloe3evH/+RU3h6mtYglERyP+nRPycdy97IkNyObgcLTf8MyC82CgJCKBzrv5Xj/WdwSn1Jx1VZJpfilUuPs9KgL5+qeOjtPkJ72/6qGvbC2EiuEE/MueI2HG3vL1f/2R2NqXI0ltJidWGErLbhHgCsL6PntbqOPbLqNiLQ1tNQBpBZrW7KqRU7Dew72DQmXpom+socppay3RzJ8sZR+iae3oP4jtzSjAahJMgvFmLixqtqbVO706SBIe5Hyq8AW26Wb490c+fxe2kJRutkZwVAMC2D0dk3GZl5HaPBM7LPF+TmYx9GUdS6DrpLy+NkXOj9Vz0+2rsGCYSjV9fmK+7EGW2TtaXxLbX/Xj0DWEHPZWoqKctJiO3PiseHL7x1m/BsfBGzVLtgvwa0ncODPYOIJpJw+cVJzLJzcBUfUfwuSrgF/7EzqC3tbj46hZRfwRD3w6SxHZG4ff2OOW0VaX4GKb/JFgqF/N4gZ47cw6F9N5VNHZ1n5QKcr20u8vrwUw0TfyXyb3/3kC1FrFwZW5bJwtKoK+IfwVCUrp4jKKLiZlRPmw8gGZ8jmVhw9afRNpYxcppDDqyaHbe7EvtbGnDVlRaZtQWHK3G1tZqvY1+TAWAKI5mwKRFVVIKk7VrQN3QKT+9Bt2TK8kj5TaT5GXLa9jXObRsAMCcRxgwWn6ZgO37NCCiEwuHem7n7xMfxeYM1C6a0i2TyaV659Dgzy6OupOW3nrwP1ePF4cdX/NyNzWXW4rMNdRaWRijcTlfvkM28ssqRp5h+W9IkvjzpOgBYRp70+hJW8Y7eIaFtM1EtcQKhzr4G4t9CW54ufnB9V+JA1wCeJrbmynyO3PQwlp5zkJ6y6sijtLThP3kXovH+AAN4BItPI4wZmJPvQwAAtBlJNjaONH8L+N61noF62wf5Vx/8ZcLBVpt8XAW9hSi0+l6efJVzw0+65vl3YOBU+WxYTYol1ufZcMH6W1U99PTdRCDUVrYWrpBxOM7jmfQ6K/PDrrxfzcF0ZRopbUU6op4gSOHPjWQA0jLYnL5cBLr6rsSoKpHDp5q6FLMTb2PpORsJKRzVpIX6B4XgHT+O2ph9mAV8D2n+FtnYONrMttrr7QzJE218FlN+Cilfe9fd0R/h47f9PB0t+wp3/GWtOqeJxWJ8mmfPf9udSRIKp26+t6gv4FQVlbLYhRefJZ1u/Jjh8foZPHxHZbe1eQBWq/NqyTXWFpvTa6UlFrEss6bazy4IUprxYEdvQxlAdnUOS8++oytx5NAtTV2C+fnxQnuwEHWNUcu0YKiV4N0/2UC6IV/DlJ9CG5/dCaG3czSPsrEJEL8P8uWrknAeP/ec+BccG7jVsRNWy1Vtaus8/9bDbKTdOVq1RfdzsP8Wx1WUvQ03ndlgZWXClZ04FOmks+dw1bvVnjkty2BlfgQt2ZyCscT8CJap1ygCFf7udCX2N2irbWibZBPLzuNGlStxaPB4U3kAK7VBfm68rhhpddu1/9Z7UKJbyXrkyyB+v7DWd8bYYaJn1rNI+QdI+Wz176AqKmeOfJi7bvpoxeq7Tn28aZm8MfIMsdk3XTn3Axw5dButrd1OxRpR8eNLpxMsr7jzm/bsP15o/nkHUkwChp5jZrRpldXk0xtkNlfrcitUNSEFWjtRPFuv1zeyWuE6sE4lXonQ9YSj+LubW42XG7/oqLgsrasKESvKXEDgrp+4vrRfymeQ8g/AenYnRdzOAgBtzEDyHJLfAfl4iRgUCI72neZHbvmXRALRcpNKWe/P5mM3MnOe86PPknPpWiza0s2BvpP4Sg7DOEthLctiY3ORZMqdnfjQsbvLZ39ZJqJqtfJSyRXiS2NN/TkSM8NVJKCoq+AjVC/B9q0fA8xsisziVF2X43IQqiotx25r6vtmrryGlXM6B9vbrssGIoqK//YfRe26JvLTRPIkUn4KyXNoY8YeALzjrzBmkIm9gc6vIOVXhFC0I/tP8lN3/QLd0f6aZhRsunULqxO88NbDJJLLrnwVIQT9fSfY1zPk0KyzN8noRo7JmQsNK/8CtLb10tV7tMayqpoUk8D4xaebQv7Zx/r8SBUJKOu7EqtqQzyApefJrEyjl9uQa12Jheqh9fgdTesMBLA24mQuvFjnWCnL36U0H0p7D77TH3q3wqA8yIeQxq+SGXuDzM4K/p0JAOWpiy2j8am2UMeX7775Y2Z3tN+pGWcnpYRAy6U4N/wUsyvu7YrBQAuD+08QDERsz8JBAuZyGvNz7oggDxy6HUXxVMw4qtLv0t/z2TTz4+ea/hNszMcwHYpJoq4rMYpKqHuwsfQ7vkR2df7qrsSAt72H0ODNTXtfaZqkz/4AM7VhO4o4ez1KFmIiGMZ7ywdRrg58aaT8Frr1STITszs1zHYuAAAQS//Unb/4h/s6DjyQyWupMiFTpwX3fOw53hp70cVnC7o6Bjl04FZnxFeN+Pq8K+m/x+On/9CtCFWtG/z2Ry9OveVq6e9VMVjbILU2V7cC0ZEBKCrhRgFgfYlcfMH2rqKmIs8TbiV44KYmvrHEWJoic/Flx+8tq4jQUtKp9h/Be+L2eq3CCZAPIPld8uNLOznCdjgAwNcf+e3V+ObCf13dXPyLbL5QzidwpsRTi1d46eL3G270sQ+vx8ehwQ8QDrXXOOPaA3Nq+k1XntfWOUAk2lO8aZBXbU81LYPZsdcwjeZrrVqmwcbcCI4KRDsW2ogyf7QbtYECGTOroS1MYGY1h+CJtAWh8PkJ9g/hcbcc1/nOWorspbMY6ytOn0KcBiIAIhTBd8sHUZx1ASsgP4/FH5OxZnd6fO14AAD4u4d+c2UznfiTmZWx/5HOJpftzrgb6QTPvvkQKW3d1WcGAmFOHP+IwzCi1skWZmfdkf7qHThJMNzuWHT2lLP09/WVaRIrk65wDu+6H1oG67MjSHsTEk6GrvQd1WC44evA9FwMPRmvuBKXyE9RqYkI9B4ksP9wE19akh+/QObiy0jTrPEprKyHwpfyHDuN59DNoKgSKWeQ1n9Gys+SYQnG5R4AuJUJfPeTyQcf+vXPvXjpsV/Q8ulhwzKlbuZ54cL3mFocttFS7ozTJ+4jXBTjEMJZ91/QwxMsr0ywvtF4Ga7XF6Sj5zAeX7CsS1ctkFHiIOYn30RL3pjScWlZpNdmC6IdNgsvWZUWCyHw+MOEOhtrl9XmY2TjC5VQE6LGldjbuZ/I0Q+gNFEjQGYzZF9/BmNxyn7ycVQFShtIeQ7fnBfB0Fks+VNoY19FG0tCbFfE1a4BgNJ49qU/f+qNkad/cW1z4ckL4y9rIzNvNNzlV7P7+8PcctOP13XGtSvijU+cc4WJj3b009LWWybZ6plxSEBLJ1hbHC2r9t6IkU9vsLEw5kyD67gSe4IRQj0HGgs8Q2dz9DxWPls5f9dxJQ4dOYWvsXLcdx361DDZN1/AyudqfvtS8FvaJvnzz6/nX336n8hl/w3ZsUu7LZ52HQAAPPb0g+fPjzz3m+eGn/xcYnN5DJdlk48NfYhQKPqOZJxu5Flairli/NnedaDi/CPEVZ+7vjzJxsr0DZ3rfGaT5NJEFVVW60qseP0E2veheBuT70qOvYmRTdclP0v/5u89SPDAiaZWBgJkXv0h+uKUkwQsfiFjdYHsMw/P5Z7+9ueN8Yu/Kzc2x3ZjLO1KAIBp+cLZz4/NLsb+FMlvI3nGLRCIhDs4eewjhZ7/0g4nap1s4/FZNjeXG6429PnDdPYcwesPvSPJpudzrC3G0FLxGzrTlp4ntTxNLr3+jq7EEvC1duKPdjUGOPFFtJnhGtLVYYSieIje+TGUQKi5776xhvaDb1ZlIRJjdozMPz8Qy7/w6O+Z06OfRxubhVm5BwA3emRjm1jyMaT5y0j5ZaRsuNDi6OE76ewYqJKpsqV+RRJoZvaSK8afwUg7nb1DDtfi0mqrkIASLRVnefZtZJOLf+qezdfmSa/O1SgClTOAYn2EL9KOr6WjQd7BZPXVx53pv6ityAv0HSZy4kNNf3d9+Dy5N54t/w7ZN56z0v/3L14xhl/719b66jfJjCV2cwjtbgAAyMVMMuPzWNYnkfLfIeVFtuhE1NHWx7EjH8TvjziccSuFaYU/aJkNFpdGyDfowiOEQkfXQTr3HXE40zoFNwqRkFgeZ2X28vbg7PoSWny+qJtXcQcuafeX5sXf1k2go7dhwQxtZhhtbvSdK/IUlc77fr6pZCCA1HNoj36N/PAbhvadL09p3/rb/2JOjX5Mrl8+T3Ysv9vDZ/cDQHmVjufI6P8A8teAfwSua3tWVQ8HB0/T3XWwvNvbxTcqZJxgcTHG6upUw1/Z4/XTe+BUjeCGrBLc0I0cc2Pntm1qTT3H5nwMPZOq60pcuipTvH5C3YN4GgxKaegkzj/t4FeqK/IQ4GntovWO+5r//quLqdTff/bR3EtPfEKuL32GzFjqvRI27x0AKHADJtrYK5jy94pKQ9fMmLVEujh88Hb8vnBdZ9zSwtONLEvLMVIunMV9/jD7D1S5ztSpctQ2V1mcPL+tM7sxc4VcMl5JybGl57a5CvUexhNuzFBTWibpiUvklmcckyKrCrHwqLTefi++5mr2L2IafyI34r8j1974PtnJ/HspYt5jAFDmBmax5F8i5SeR8rl3Iwg9qpehQ7fTt+94dRzWkIDJ5Brz88OuFOJ09R4jFOl0AEydcGBu4nXy2fS2TmkmsYi2Zlc8Fg5GsLQrB7sH8YZaG35ePr7I+qWXites9SvyEArenkFabvsowuu6eYiF5Bmk/ASm+TkysbH3Yqi8NwGgwA1kkPr3kfJXkfLTwPLVYiwQiHDryY/h9fodLj9Vqw3LMlldm2R52Z0ij8GhO+q4/uJY6FLC5KXtbyGXpsHa6DnMom6eoz229N0BT6iFQFd/w46+Vj6LNnWZfGLJZsCC4/eRUqL4AoRP3U3w8EnXXhVYRspPI+W/x8o9TG5Ce6+Gicp7eRgbEiORQI8/hbf9eyAiCHqBUGn7UhSVH7vnlzkwcLpc4edI+wXlBZ/JJnn+hb8nmVxp+Ku1tPVy14//CorqrWQaDhKwQHbNjLzExKWnt4X9r8HUZJx9Z+5FDYQcgiCihAfF+VM8PhLDryIb7Fcwk+t423vw9w8hFLXSKmyfKwFqOIrwB8nOjGBltpwpWcASkm8hzd8gM/ZNjHgCY1O+l0NE4f0ytLHLaPLXgd8G+SgUzBcH+05y7MgH624DFTKukIIuL4+z4pLyz+DQXSiqzcrMrm1YFAQxTZ252GuuWH65gqdakvjo61QLgtiJS4DI4HE8gXDjObieY/Ptl8mvzjt3/vJzK8Rg8OY7CJ/5CGJregFrwGPAf0KTv05m/O33S1i8fwAAgJhB2vonDD6BlP+tPbr/3Adv/1nD7w/VFLhUtxwbps5bFx5zxYDTH2xh4Mjtzko2x/MLi3pjbY7E8sQNafy51rHy9gtYpuEk46rmSg2ECfcfdYd7mBkheeU1LEOvassVjuOT8Hhp/fBP4z94XXoBOZDPI+UfYsj/QNr6R4gZ76eIeJ8BAMCYJBebRph/2997/DeEUL+ezaf16np/gVMLbnExxsLCiCvfoLvvJiLRfVDVZiyr8unl6Qtk0jurziS9NElqadIBXLLKRRgkHac+4s6BXM+z8doTGKl1nLSMzaCgxD9Eu2j72C+gBCPX8MFyBckfA59AmF8kF5uGMfl+iwaV9+vQ183lhdcXBg7+6HO5XPrxTDZ1ezDQ2i0URThNIiWGofPii18jHp9pHHFVD8dO3ce+wZPgsBjD0WWmJVcZe/MJ1lend9S0SWnhCYZpO3K6AGDVV3NFQPCEWlg9/3TRbKOxYWZSKN4AwaO32q4fhaMtt8wHtHYgfAFy4xehljeRgI6UDxduiHiITGwOfd18v4bB+xcASvnAyGOZK28/POkJ9D6oaRuXvd5Aj+rxtiiKGkAgLCSx2EtcufK0K7bfPf03c/MHfpJgpL282VcX/lhYLEy8zviFJ4us+05CAAszn6Xt6G2owXAxG7dZapWyAUUhl1hCWxh35bG5uRjBo7fiaet2BL+0HQeKCIunpw9p6uhz4yUQMIBZpHwUi/9Ihv+JMTaNEdff7+v/fQ8ApbE096oxEXviQkvo+D9mzORyKNgmTGl2plPx0Pk3v8fq6jSN9hupHh8Hj93N4NG7UIqstqwjbZ7PpBi/+DSr21T6+64YYOh4I21E+o87g9DOZygCoXpZv/yyKzcYUkqsTJLQ0VsRPj9lhWKbRFkpGxE+P572HvS1Rd1YW4ghre8C/x2Nv8CITUDc2lvxewBQd8zMPJOPXX7k3P6+e54wMeYXF0fnhkee9+l6tqPR+WqJ7uPE7T9NS1uvQ9vQCQCQWJniyqvfQc/tzOtnyzRQ/UFaDt2C4gvYUnIbABQBITU7gr7hhoCJxExtoEai+PuHCmq8VS4+5Vbd+JJhrC2+bWmpv9cXp/+SbP5vyMRGIW7urfA9ALimMXrlu9qdZ37pjedf/PoLm6mV50FOIsUAgi31uyqKSv/h2zh6+j6E6nFafhfJMwlYps7k5edZGHsNl2UO3AWBfIZQ72GCXX01BqalIkGh+sgn46Qm3dHJkIaOmUzg6z2I2t7tyDgkkF+YJHPppfHc1PD9mZHzX9Be+v632Lx8GTNu7K3o+sOzNwVXH1/96s9ZQAJ4ldCRi6D8PyQ/hxC/BgxRTyb4KsPrCzJ06qN4vAFHO03pvyWdAT2fYerSMzvq6q/umXxzjeT027QcvgWlJGVmY9qkBMXnJ3LgZvwdveTiiy4ggCS3MMnGK4/R0bEPNdqJNHUyUyOWdunlCWN95a+wjO9mLp2dJT2a2VvBewDg3tDGM8AocD++I19EVX4WIX4VwRDQAQTfCRA6e4/S03/CkfYLUeqkqxTWTA+/RGp9cefPh5SsXXyB9hMfIjJ4U53rzMJ/g31DhAZvIpdYBjdAzTJJv/W89PUfyQivN5569cmx3PTwA5jy2+TGknsLdQ8Amj/y4wngQdj3DYKt9yDkx0HcWQSDA4CjHE31+Dhx58/UON4WWo4riJDPpZm8+NSumYbcxgobExcJ9Q0hPF5nSl68pveEW2kZOlOQ+ko1rNycB2akrsfi3/nSOSz5BFntBZjX9xblHgBsw1jKk1l6Bg48R9DXC3wAKe5A4cPA7UAPQO/gKbr331TrK1CVL8yNnmVzbW5XzcDKGz+k49Yfxd++r0bSrJQNtBw9g//1PozUxlZ4DQksgTyHxcsIXkeK82TMRRjfY/P3AGAnjGmLDPPAPBx/gpB1CMRxkHeB+In9B2+9U1HVALIqTbZdZWmpBFOXn3Ol1PiGZgHxRRKXX2Hfh3/Wkd2UOwaFwNvaSevxO8jMxbD0a26nzyI5h5SPIXgV5CiZ3DTM7u32Lo69WwDXx5qFHo/jaY+BeBUhvhtqaf/uXOycsR6fPSilDPpDrUJx3ARIpq+8wPSV53de4c81DH0zTudt95V7G+z6CSVI8HXsJ3HhBax31jWQSDmN4EEkvwfiASyeJCuvoI/FYXNvx3d5iL0puIEjeNQHHG/p6P+xnoGbP9p39K6b2vcfjZpGvvX8Uw8G5mJn/bvxN1E8Xvo//m/puednKvUAJYLTpha0+tLDzH/vSxLIAmkghZRxEGdBnkXKsyBGycTye4tlDwDe+8M7FIjuP3CytevA3WvzI0e05OpBoA/oBbqByO74jQTh/qMc+vnfwd/VVz7imPkMhpaUZlbLWtJczieW5qe/8WdzSDkK4iLSuoixPoy+lttbDHsAsDfCh4JY6iFQhhDyMNCPEN1FQOgpgkI373LluC1ZgC8gu+74mN5+5l7N0nMrVj4TM43cYn4zsZJdnl5KzQxP6EvTw1LmJ0hP7t3R7wHA3njXERj0o/pbkLQhaEXSCkSLIHAAIQ6AHAAGkAwgRPiGfC8p0wjmgBkQs0g5A0xHDp5Yi97yI9lcfHEzcf7JRTOnrWPKJNmxvR1+DwD2hnvAcMgDih9FDSCkH/AjpR+ptCJkO9AGtCGIIkU7yHaEiBaARBb/jXYErcUD+iaQQMgEUmwgWEfKDRDFf2MDWAfWkSKBsDYRIgfkkCKHZWbBzJGd2iu53WXj/wM35lWfQZxbugAAACV0RVh0ZGF0ZTpjcmVhdGUAMjAyMi0xMi0wNlQwNToyMzoxOSswMDowMJfID70AAAAldEVYdGRhdGU6bW9kaWZ5ADIwMjItMTItMDZUMDU6MjM6MTkrMDA6MDDmlbcBAAAAAElFTkSuQmCC;fontColor=#999999;fontSize=15;" vertex="1" parent="1">
                    <mxGeometry x="640" y="150" width="104.07" height="100" as="geometry"/>
                </mxCell>
            </root>
        </mxGraphModel>
    </diagram>
    <diagram id="U0cBu_YSkR7BM3933Cyo" name="Hardware">
        <mxGraphModel dx="1292" dy="860" grid="0" gridSize="10" guides="1" tooltips="1" connect="1" arrows="1" fold="1" page="1" pageScale="1" pageWidth="827" pageHeight="1169" math="0" shadow="0">
            <root>
                <mxCell id="0"/>
                <mxCell id="1" parent="0"/>
                <mxCell id="42" value="Proxmox" style="points=[[0,0],[0.25,0],[0.5,0],[0.75,0],[1,0],[1,0.25],[1,0.5],[1,0.75],[1,1],[0.75,1],[0.5,1],[0.25,1],[0,1],[0,0.75],[0,0.5],[0,0.25]];outlineConnect=0;gradientColor=none;html=1;whiteSpace=wrap;fontSize=12;fontStyle=0;container=1;pointerEvents=0;collapsible=0;recursiveResize=0;shape=mxgraph.aws4.group;grIcon=mxgraph.aws4.group_on_premise;strokeColor=#5A6C86;fillColor=none;verticalAlign=top;align=left;spacingLeft=30;fontColor=#5A6C86;dashed=0;spacingTop=0;" parent="1" vertex="1">
                    <mxGeometry x="78" y="281" width="225" height="260" as="geometry"/>
                </mxCell>
                <mxCell id="43" value="&lt;font color=&quot;#d45b07&quot;&gt;&lt;b&gt;Virtual Machine&lt;/b&gt;&lt;/font&gt;" style="rounded=0;whiteSpace=wrap;html=1;shadow=0;sketch=0;align=center;verticalAlign=top;strokeColor=#D45B07;dashed=1;" parent="42" vertex="1">
                    <mxGeometry x="11" y="46" width="194" height="140" as="geometry"/>
                </mxCell>
                <mxCell id="44" value="8 vCPU&lt;br&gt;8 GB SDRAM&lt;br&gt;NVME 120Gb" style="text;html=1;align=left;verticalAlign=middle;resizable=0;points=[];autosize=1;strokeColor=none;fillColor=none;fontColor=#999999;" parent="42" vertex="1">
                    <mxGeometry x="29" y="71" width="92" height="55" as="geometry"/>
                </mxCell>
                <mxCell id="45" value="container" style="sketch=0;outlineConnect=0;fontColor=#D45B07;gradientColor=none;fillColor=#D45B07;strokeColor=none;dashed=0;verticalLabelPosition=bottom;verticalAlign=top;align=center;html=1;fontSize=12;fontStyle=0;aspect=fixed;pointerEvents=1;shape=mxgraph.aws4.container_2;spacing=-7;" parent="42" vertex="1">
                    <mxGeometry x="29" y="134" width="48" height="31" as="geometry"/>
                </mxCell>
                <mxCell id="46" value="container" style="sketch=0;outlineConnect=0;fontColor=#D45B07;gradientColor=none;fillColor=#D45B07;strokeColor=none;dashed=0;verticalLabelPosition=bottom;verticalAlign=top;align=center;html=1;fontSize=12;fontStyle=0;aspect=fixed;pointerEvents=1;shape=mxgraph.aws4.container_2;spacing=-7;" parent="42" vertex="1">
                    <mxGeometry x="84" y="134" width="48" height="31" as="geometry"/>
                </mxCell>
                <mxCell id="47" value="container" style="sketch=0;outlineConnect=0;fontColor=#D45B07;gradientColor=none;fillColor=#D45B07;strokeColor=none;dashed=0;verticalLabelPosition=bottom;verticalAlign=top;align=center;html=1;fontSize=12;fontStyle=0;aspect=fixed;pointerEvents=1;shape=mxgraph.aws4.container_2;spacing=-7;" parent="42" vertex="1">
                    <mxGeometry x="139" y="134" width="48" height="31" as="geometry"/>
                </mxCell>
                <mxCell id="48" value="&lt;font color=&quot;#5a6c86&quot;&gt;&lt;span style=&quot;&quot;&gt;8 CPU&lt;/span&gt;&lt;br style=&quot;&quot;&gt;&lt;/font&gt;&lt;div style=&quot;&quot;&gt;&lt;span style=&quot;background-color: initial;&quot;&gt;&lt;font color=&quot;#5a6c86&quot;&gt;32 Gb SDRAM&lt;/font&gt;&lt;/span&gt;&lt;/div&gt;&lt;div style=&quot;&quot;&gt;&lt;span style=&quot;background-color: initial;&quot;&gt;&lt;font color=&quot;#5a6c86&quot;&gt;NVME 512Gb&lt;/font&gt;&lt;/span&gt;&lt;/div&gt;" style="rounded=0;whiteSpace=wrap;html=1;shadow=0;sketch=0;align=left;strokeColor=#5A6C86;" parent="42" vertex="1">
                    <mxGeometry y="200" width="225" height="60" as="geometry"/>
                </mxCell>
                <mxCell id="49" value="FISICAL HOST" style="text;html=1;strokeColor=none;fillColor=none;align=center;verticalAlign=middle;whiteSpace=wrap;rounded=0;shadow=0;sketch=0;fontStyle=1;fontColor=#5A6C86;" parent="42" vertex="1">
                    <mxGeometry x="129" y="218" width="90" height="30" as="geometry"/>
                </mxCell>
                <mxCell id="50" value="" style="group;strokeColor=#999999;fontColor=#999999;rounded=0;" parent="1" vertex="1" connectable="0">
                    <mxGeometry x="45" y="559" width="290" height="140" as="geometry"/>
                </mxCell>
                <mxCell id="51" value="&lt;font color=&quot;#999999&quot;&gt;OpenZFS&lt;/font&gt;" style="rounded=0;whiteSpace=wrap;html=1;labelPosition=center;verticalLabelPosition=middle;align=center;verticalAlign=top;" parent="50" vertex="1">
                    <mxGeometry width="290" height="140" as="geometry"/>
                </mxCell>
                <mxCell id="52" value="" style="sketch=0;pointerEvents=1;shadow=0;dashed=0;html=1;strokeColor=none;fillColor=#999999;labelPosition=center;verticalLabelPosition=bottom;verticalAlign=top;align=center;outlineConnect=0;shape=mxgraph.veeam2.nas_backup;fontColor=#999999;" parent="50" vertex="1">
                    <mxGeometry width="34" height="34" as="geometry"/>
                </mxCell>
                <mxCell id="53" value="sda&lt;br&gt;8TB" style="sketch=0;pointerEvents=1;shadow=0;dashed=0;html=1;strokeColor=none;fillColor=#505050;labelPosition=center;verticalLabelPosition=bottom;verticalAlign=top;outlineConnect=0;align=center;shape=mxgraph.office.devices.hard_disk;fontColor=#999999;" parent="1" vertex="1">
                    <mxGeometry x="54" y="601" width="40" height="54" as="geometry"/>
                </mxCell>
                <mxCell id="54" value="sdb&lt;br&gt;8TB" style="sketch=0;pointerEvents=1;shadow=0;dashed=0;html=1;strokeColor=none;fillColor=#505050;labelPosition=center;verticalLabelPosition=bottom;verticalAlign=top;outlineConnect=0;align=center;shape=mxgraph.office.devices.hard_disk;fontColor=#999999;" parent="1" vertex="1">
                    <mxGeometry x="112" y="601" width="40" height="54" as="geometry"/>
                </mxCell>
                <mxCell id="55" value="sdb&lt;br&gt;8TB" style="sketch=0;pointerEvents=1;shadow=0;dashed=0;html=1;strokeColor=none;fillColor=#505050;labelPosition=center;verticalLabelPosition=bottom;verticalAlign=top;outlineConnect=0;align=center;shape=mxgraph.office.devices.hard_disk;fontColor=#999999;" parent="1" vertex="1">
                    <mxGeometry x="169" y="601" width="40" height="54" as="geometry"/>
                </mxCell>
                <mxCell id="56" value="sdd&lt;br&gt;8TB" style="sketch=0;pointerEvents=1;shadow=0;dashed=0;html=1;strokeColor=none;fillColor=#505050;labelPosition=center;verticalLabelPosition=bottom;verticalAlign=top;outlineConnect=0;align=center;shape=mxgraph.office.devices.hard_disk;fontColor=#999999;" parent="1" vertex="1">
                    <mxGeometry x="227" y="601" width="40" height="54" as="geometry"/>
                </mxCell>
                <mxCell id="57" value="sde&lt;br&gt;8TB" style="sketch=0;pointerEvents=1;shadow=0;dashed=0;html=1;strokeColor=none;fillColor=#505050;labelPosition=center;verticalLabelPosition=bottom;verticalAlign=top;outlineConnect=0;align=center;shape=mxgraph.office.devices.hard_disk;fontColor=#999999;" parent="1" vertex="1">
                    <mxGeometry x="284" y="601" width="40" height="54" as="geometry"/>
                </mxCell>
                <mxCell id="58" style="edgeStyle=none;html=1;exitX=0.5;exitY=1;exitDx=0;exitDy=0;entryX=0.5;entryY=0;entryDx=0;entryDy=0;dashed=1;startArrow=oval;startFill=0;endArrow=oval;endFill=0;" parent="1" source="48" target="51" edge="1">
                    <mxGeometry relative="1" as="geometry"/>
                </mxCell>
            </root>
        </mxGraphModel>
    </diagram>
</mxfile>